<?xml version="1.0" encoding="utf-8"?>
<!-- Generator: Adobe Illustrator 16.0.4, SVG Export Plug-In . SVG Version: 6.00 Build 0)  -->
<!DOCTYPE svg PUBLIC "-//W3C//DTD SVG 1.0//EN" "http://www.w3.org/TR/2001/REC-SVG-20010904/DTD/svg10.dtd">
<svg version="1.0" id="Layer_1" xmlns="http://www.w3.org/2000/svg" xmlns:xlink="http://www.w3.org/1999/xlink" x="0px" y="0px"
	 width="33.004px" height="71.265px" viewBox="0 0 33.004 71.265" enable-background="new 0 0 33.004 71.265" xml:space="preserve">
<path fill="#17803F" d="M27.301,65.562l-2.551-2.551l3.148-3.148l2.023,2.023C29.25,63.237,28.352,64.511,27.301,65.562z
	 M2.852,61.886l2.023-2.023l3.148,3.148l-2.551,2.551C4.426,64.511,3.527,63.237,2.852,61.886z M5.777,30.011l2.324,2.324
	l-3.148,3.148l-1.875-1.875C3.75,32.261,4.652,31.062,5.777,30.011z M3.977,22.136c0.75,0.227,1.727,0.602,2.699,1.051
	c0.449,1.051,1.051,2.176,1.648,3.301c-0.227,0.148-0.523,0.301-0.75,0.449C6,25.21,4.727,23.409,3.977,22.136z M11.551,22.136
	c0,0.977,0.074,2.023,0.227,3c-0.75,0.227-1.5,0.449-2.176,0.75c-1.648-3-2.852-6.227-3.375-8.102
	C7.5,18.687,9.527,20.187,11.551,22.136z M12.301,12.386c-0.375,2.477-0.676,5.176-0.75,7.875c-0.301-0.227-0.602-0.523-0.824-0.75
	C9.75,15.085,9.527,10.737,9.453,8.409C10.125,9.312,11.176,10.737,12.301,12.386z M15.977,2.636
	c0.824,2.25,2.176,6.375,3.148,11.102c-1.5,3.074-3.074,6.898-3.824,10.875c-0.75,0-1.5,0.074-2.176,0.227
	C12.301,16.21,14.777,6.534,15.977,2.636z M22.875,9.761c0.227,2.176,0.375,6.148,0.074,10.273c-1.5,1.273-3.074,2.852-4.426,4.574
	c-0.523-0.074-1.051-0.074-1.574-0.074h-0.301C17.852,18.386,21.152,12.46,22.875,9.761z M27.375,18.386
	c-0.375,1.273-1.051,3.227-1.949,5.324c-1.352,0.301-2.699,0.75-3.898,1.5c-0.449-0.148-0.977-0.227-1.426-0.375
	C22.5,21.835,25.574,19.585,27.375,18.386z M29.926,24.534c-0.898,0.824-2.25,2.023-3.75,2.926c-0.898-0.676-1.949-1.199-3-1.648
	C25.5,24.835,28.199,24.612,29.926,24.534z M29.852,33.534l-1.875,1.875l-3.148-3.148l2.324-2.324
	C28.125,31.062,29.102,32.261,29.852,33.534z M28.652,51.534l3-3v5.926L28.652,51.534z M31.574,56.261
	c-0.148,1.648-0.523,3.227-1.125,4.727l-1.801-1.801L31.574,56.261z M24.75,55.362l3.148-3.148l3.148,3.148l-3.148,3.148
	L24.75,55.362z M20.926,59.187l3.148-3.148l3.148,3.148l-3.148,3.148L20.926,59.187z M20.926,66.909l3.148-3.148l2.477,2.477
	c-1.125,0.977-2.477,1.875-3.898,2.477L20.926,66.909z M20.25,67.585l1.5,1.5c-1.199,0.375-2.398,0.676-3.75,0.75L20.25,67.585z
	 M12.602,67.585l2.25,2.25c-1.273-0.074-2.551-0.375-3.75-0.75L12.602,67.585z M11.926,66.909l-1.801,1.801
	c-1.426-0.602-2.699-1.426-3.898-2.477l2.477-2.477L11.926,66.909z M8.699,56.034l3.148,3.148l-3.148,3.148l-3.148-3.148
	L8.699,56.034z M4.199,59.187l-1.801,1.801c-0.602-1.426-0.977-3.074-1.125-4.727L4.199,59.187z M1.727,55.362l3.148-3.148
	l3.148,3.148l-3.148,3.148L1.727,55.362z M4.199,43.812l-3,3v-5.926L4.199,43.812z M1.352,39.011c0.148-1.574,0.602-3.148,1.273-4.5
	l1.648,1.648L1.352,39.011z M8.027,39.987l-3.148,3.148L1.73,39.987l3.148-3.148L8.027,39.987z M11.926,36.085l-3.148,3.148
	l-3.148-3.148l3.148-3.148L11.926,36.085z M20.926,28.437l1.5-1.5c1.426,0.602,2.773,1.352,3.977,2.398l-2.25,2.25L20.926,28.437z
	 M24.074,39.312l-3.148-3.148l3.148-3.148l3.148,3.148L24.074,39.312z M28.652,36.085l1.648-1.648
	c0.676,1.426,1.051,2.926,1.273,4.5L28.652,36.085z M31.125,39.987l-3.148,3.148l-3.148-3.148l3.148-3.148L31.125,39.987z
	 M28.652,43.812l3-3v5.926L28.652,43.812z M24.75,47.636l3.148-3.148l3.148,3.148l-3.148,3.148L24.75,47.636z M20.926,51.534
	l3.148-3.148l3.148,3.148l-3.148,3.148L20.926,51.534z M17.102,55.362l3.148-3.148l3.148,3.148l-3.148,3.148L17.102,55.362z
	 M17.102,63.011l3.148-3.148l3.148,3.148l-3.148,3.148L17.102,63.011z M15.75,63.011l-3.148,3.148l-3.148-3.148l3.148-3.148
	L15.75,63.011z M12.602,52.21l3.148,3.148l-3.148,3.148l-3.148-3.148L12.602,52.21z M8.699,48.312l3.148,3.148l-3.148,3.148
	L5.551,51.46L8.699,48.312z M11.926,43.812L8.777,46.96l-3.148-3.148l3.148-3.148L11.926,43.812z M15.75,39.987l-3.148,3.148
	l-3.148-3.148l3.148-3.148L15.75,39.987z M15.75,32.261l-3.148,3.148l-3.148-3.148l3.148-3.148L15.75,32.261z M17.102,32.261
	l3.148-3.148l3.148,3.148l-3.148,3.148L17.102,32.261z M20.25,43.136l-3.148-3.148l3.148-3.148l3.148,3.148L20.25,43.136z
	 M20.926,43.812l3.148-3.148l3.148,3.148l-3.148,3.148L20.926,43.812z M17.102,47.636l3.148-3.148l3.148,3.148l-3.148,3.148
	L17.102,47.636z M15.75,47.636l-3.148,3.148l-3.148-3.148l3.148-3.148L15.75,47.636z M13.277,36.085l3.148-3.148l3.148,3.148
	l-3.148,3.148L13.277,36.085z M19.574,43.812l-3.148,3.148l-3.148-3.148l3.148-3.148L19.574,43.812z M19.574,59.187l-3.148,3.148
	l-3.148-3.148l3.148-3.148L19.574,59.187z M13.277,51.534l3.148-3.148l3.148,3.148l-3.148,3.148L13.277,51.534z M15.902,25.886
	h1.051h0.074l2.551,2.551l-3.148,3.148l-3.148-3.148l2.551-2.551C15.824,25.886,15.824,25.886,15.902,25.886z M4.199,51.534l-3,3
	v-5.926L4.199,51.534z M1.727,47.636l3.148-3.148l3.148,3.148l-3.148,3.148L1.727,47.636z M16.199,69.835l-3-3l3.148-3.148
	l3.148,3.148l-3,3H16.199z M21.375,26.636l-1.125,1.125l-1.801-1.801C19.5,26.112,20.477,26.335,21.375,26.636z M14.324,25.96
	l-1.801,1.801l-1.125-1.125C12.375,26.335,13.352,26.112,14.324,25.96z M10.426,26.937l1.5,1.5l-3.148,3.148l-2.25-2.25
	C7.652,28.362,9,27.534,10.426,26.937z M27.301,28.362c2.625-1.727,4.574-3.898,4.727-4.051c0.148-0.227,0.227-0.449,0.148-0.676
	c-0.074-0.227-0.301-0.375-0.602-0.449c-0.074,0-0.523,0-1.199,0c-0.824,0-2.023,0.074-3.375,0.227
	c1.426-3.301,2.102-6.074,2.176-6.375c0.074-0.227,0-0.523-0.227-0.676c-0.227-0.148-0.523-0.148-0.75-0.074
	c-0.148,0.074-1.727,1.051-3.75,2.551c0.375-5.773-0.301-10.727-0.375-11.176C24,7.362,23.848,7.14,23.551,7.14
	c-0.301-0.074-0.523,0.074-0.676,0.301c-0.148,0.227-1.273,1.875-2.699,4.426C18.75,5.64,16.801,0.843,16.652,0.39
	c-0.074-0.227-0.301-0.449-0.676-0.375c-0.301,0-0.523,0.148-0.602,0.449c-0.148,0.449-1.574,4.574-2.625,10.051
	c-1.801-2.551-3.301-4.199-3.449-4.426S8.852,5.788,8.551,5.94C8.324,6.015,8.102,6.315,8.102,6.542
	c0,0.449-0.074,5.773,0.977,11.699c-1.949-1.5-3.523-2.398-3.676-2.477c-0.227-0.148-0.523-0.074-0.75,0.074
	s-0.301,0.449-0.227,0.676s0.602,2.324,1.648,4.949c-1.801-0.676-3.148-0.977-3.301-1.051c-0.227-0.074-0.523,0.074-0.676,0.227
	c-0.148,0.227-0.148,0.523-0.074,0.75c0.148,0.227,1.875,3.449,4.5,6.301C2.547,30.616,0,35.265,0,40.589v14.699
	c0,8.852,7.199,15.977,15.977,15.977h1.051c8.852,0,15.977-7.199,15.977-15.977V40.511C32.926,35.636,30.75,31.284,27.301,28.362z"
	/>
</svg>
