<?xml version="1.0" encoding="utf-8"?>
<!-- Generator: Adobe Illustrator 16.0.4, SVG Export Plug-In . SVG Version: 6.00 Build 0)  -->
<!DOCTYPE svg PUBLIC "-//W3C//DTD SVG 1.0//EN" "http://www.w3.org/TR/2001/REC-SVG-20010904/DTD/svg10.dtd">
<svg version="1.0" id="Layer_1" xmlns="http://www.w3.org/2000/svg" xmlns:xlink="http://www.w3.org/1999/xlink" x="0px" y="0px"
	 width="42.743px" height="40.881px" viewBox="6.343 6.651 42.743 40.881" enable-background="new 6.343 6.651 42.743 40.881"
	 xml:space="preserve">
<path fill="none" stroke="#107F12" stroke-width="1.1413" d="M15.176,39.442c-1.004-1.574-1.754-3.34-2.254-5.242 M12.406,31.595
	c-0.148-1.102-0.222-2.238-0.222-3.398c0-10.359,36.332-10.359,36.332,0c0,10.363-6,18.766-18.168,18.766
	c-6.137,0-10.707-2.141-13.727-5.586"/>
<path fill-rule="evenodd" clip-rule="evenodd" fill="#107F12" d="M44.746,26.731c0,2.027-6.457,3.668-14.423,3.668
	c-7.961,0-14.418-1.641-14.418-3.668c0-2.023,6.457-3.668,14.418-3.668C38.289,23.063,44.746,24.708,44.746,26.731"/>
<path fill="none" stroke="#107F12" stroke-width="1.1413" d="M30.621,32.88c-9.024,0-16.759-1.98-18.048-6.363"/>
<path fill="none" stroke="#107F12" stroke-width="1.1413" d="M30.551,32.88c8.633,0,16.18-1.848,17.828-5.93"/>
<path fill="none" stroke="#107F12" stroke-width="1.1413" stroke-linecap="round" d="M17.438,33.692
	c-3.375-3.41-10.524-2.73-10.524,3.621"/>
<path fill="none" stroke="#107F12" stroke-width="1.1413" stroke-linecap="round" d="M17.379,40.794
	c-3.258,3.574-10.465,2.844-10.465-3.441"/>
<path fill="none" stroke="#107F12" stroke-width="1.1413" stroke-linecap="round" d="M16.668,36.251
	c-1.758-2.57-7.379-2.676-7.379,1.102"/>
<path fill="none" stroke="#107F12" stroke-width="1.1413" stroke-linecap="round" d="M16.5,38.435
	c-1.762,2.57-7.211,2.727-7.211-1.051"/>
<path fill="none" stroke="#107F12" stroke-width="1.1413" stroke-linecap="round" d="M17.577,33.86
	c1.137,1.667-0.785,2.469-0.785,2.469"/>
<path fill="none" stroke="#107F12" stroke-width="1.1413" stroke-linecap="round" d="M17.327,40.86
	c1.137-1.664-0.785-2.469-0.785-2.469"/>
<path fill="none" stroke="#107F12" stroke-width="1.2228" stroke-linecap="round" d="M21.734,18.622c0,0-1.312-0.715-1.312-2.168
	s1.786-2.984,1.961-4.352c0.276-2.172-1.441-4.023-1.441-4.023"/>
<path fill="none" stroke="#107F12" stroke-width="1.2228" stroke-linecap="round" d="M30.698,17.81c0,0-1.308-0.719-1.308-2.172
	s1.785-2.98,1.957-4.352c0.281-2.172-1.442-4.023-1.442-4.023"/>
<path fill="none" stroke="#107F12" stroke-width="1.2228" stroke-linecap="round" d="M39.668,18.622c0,0-1.312-0.715-1.312-2.168
	s1.785-2.984,1.961-4.352c0.277-2.172-1.441-4.023-1.441-4.023"/>
<path fill="none" stroke="#107F12" stroke-width="0.8152" d="M13.465,25.341c-0.813,0.684-0.398,2.277-0.398,2.277"/>
<path fill="none" stroke="#107F12" stroke-width="0.8152" d="M47.477,25.595c0.816,0.68,0.402,2.277,0.402,2.277"/>
</svg>
