<?xml version="1.0" encoding="utf-8"?>
<!-- Generator: Adobe Illustrator 16.0.4, SVG Export Plug-In . SVG Version: 6.00 Build 0)  -->
<!DOCTYPE svg PUBLIC "-//W3C//DTD SVG 1.0//EN" "http://www.w3.org/TR/2001/REC-SVG-20010904/DTD/svg10.dtd">
<svg version="1.0" id="Layer_1" xmlns="http://www.w3.org/2000/svg" xmlns:xlink="http://www.w3.org/1999/xlink" x="0px" y="0px"
	 width="29.997px" height="74.288px" viewBox="0 0 29.997 74.288" enable-background="new 0 0 29.997 74.288" xml:space="preserve">
<path fill="#17803F" d="M8.325,21.671c0.441-1.129,0.156-1.727-0.406-1.82c-0.566-0.094-1.191-0.723-1.633-1.036
	c-0.441-0.312-0.785,0-0.785,0C6.946,20.698,5.22,22.3,5.22,22.3s0.062,0.25,0.504,0.535C6.161,23.116,7.884,22.804,8.325,21.671z"
	/>
<path fill="#17803F" d="M2.704,40.729c-0.219,0.535-0.188,0.91-0.438,1.289c-0.25,0.375-0.5,0.473-0.5,0.473
	s0.281,0.375,0.785,0.031c0.504-0.348,0.598-0.312,0.66-0.094s0.379,0.312,0.66,0.062c0.285-0.254,0.473-0.348,0.848-0.031
	c0.375,0.312,0.816,0.691,1.191,0.535v-3.734c0.504,0.312,0.438,3.641,0.438,3.641s0,0,0.188,0.094s0.535-0.281,0.535-0.691
	s0.281-0.473,0.66-0.375c0.375,0.094,0.535,0.375,0.785,0.375s0.219-0.156,0.438-0.281s-0.062-0.473-0.312-0.754
	c-0.25-0.285,0.312,0,0.816,0.281c0.5,0.281,1.285,0.094,0.91,0.062c-0.379-0.035-1.543-1.102-1.164-0.977
	c0.375,0.125,0.973,0.062,0.629-0.062c-0.348-0.125-0.219-0.754-0.598-0.941C8.86,39.444,8.86,39.413,8.86,39.413
	c-1.004-1.414-2.449-0.406-2.449-0.406s-0.504-1.508-1.445-1.727s-1.977,0.375-2.105,0.973c-0.125,0.598,0.125,1.004,0.566,1.035
	s1.254-0.031,1.758,0.25s0.062,0.281-0.188,0.125s-1.477-0.312-1.664-0.156s-0.062,0.441-0.062,0.691S2.923,40.198,2.704,40.729z"/>
<path fill="#17803F" d="M9.579,23.022c0-0.25-0.785,0.031-1.695,0.062s-2.48,0.406-2.793,0.094s-0.535-0.281-0.535-0.281
	s-0.156,0.469-0.816,0.629c-0.66,0.156-2.23,0.062-2.574,0.062s-0.566,0.219-0.312,0.312c0.215,0.078,1.035,0.07,1.277,0.066
	c0.465-0.026,0.949-0.026,1.367-0.012c0.645,0.023,0.93-0.215,1.051-0.375c0.086-0.188,0.145-0.34,0.145-0.34s0,0.777,1.07,0.875
	c1.066,0.098,1.875-0.289,2.234,0.484c0.469-0.246,0.859-0.074,1.172-0.445c0.344-0.406-0.379-0.723-0.379-0.723
	S9.579,23.276,9.579,23.022z"/>
<path fill="#17803F" d="M0.97,20.132c0,0,0.582-0.293,1.262-0.16c0.68,0.129,1.07,0.031,1.75-0.227s0.973-0.582,0.973-0.582
	s-0.098,1.004-0.324,1.848s-2.43,1.133-2.297,0.293c0.129-0.84,0.324-0.648-0.227-0.973C1.556,20.003,0.97,20.132,0.97,20.132z
	 M3.079,23.433c1.352-0.094,1.32-1.098,1.32-1.098s0.785,0.25,1.227-1.16c0.438-1.414-0.332-2.32-0.332-2.32
	s-1.523,0.875-2.34,0.812s-3.016,0-2.953,0.816s0.535,0.754,0.535,0.754s-0.504,0.406-0.379,0.598
	c0.125,0.188,1.191,0.062,1.191,0.062S1.731,23.526,3.079,23.433z"/>
<path fill="#17803F" d="M22.802,32.124c0.145,0.156,0.73,0.738,1.484,0.738c0.004,0,0.012,0,0.016,0c0-0.023,0-0.039,0-0.039
	s0.012,0.016,0.027,0.035c0.754-0.031,1.875-0.794,2.176-1.008l-3.582,0.031L22.802,32.124z"/>
<path fill="#17803F" d="M28.228,32.882c-0.18-0.148-1.453-0.961-1.559-1.027c-0.164,0.176-0.508,0.492-1.023,0.715
	c-0.254,0.109-0.574,0.258-0.934,0.344c0.078,0.363-0.035,1.949-0.035,1.949s0.941,0.438,1.508-0.188
	c0.566-0.629,0.5-0.848,0.5-0.848s0.691,1.16,1.32,0.723c0.629-0.441,0.254-1.066,0.219-1.191
	C28.196,33.226,28.419,33.038,28.228,32.882z"/>
<path fill="#17803F" d="M22.306,14.722c-0.332-0.027-1,0.168-1,0.168c0.289,0.277,0.535,0.383,0.895,0.383
	c0.66,0,1.414-0.348,1.945-0.062c0.535,0.281,1.352,0.754,1.789,0.66s1.508,0.816,1.633,1.539s0.125,0.91,0.125,0.91l0.535-0.598
	l0.312,0.22c0,0,0.312-0.25,0-0.63c-0.312-0.375-0.723-0.816-0.816-0.879c-0.055-0.039,0.312,0.145,0.734,0.203
	c-0.094-0.16-0.309-0.473-0.715-0.801c-0.523-0.426-1.16-0.309-1.281-0.281c-0.012,0.031-0.023,0.004-0.023,0.004
	s0.012-0.004,0.023-0.004c0.016-0.039,0.031-0.18,0.031-0.605c0-0.75-1.473-1.637-2.191-1.75c-0.723-0.109-0.5,0.777-0.5,0.777
	s-0.668-0.75-0.891-0.859s-0.168,0.418-0.168,0.418s-0.137-0.109-0.359,0.027C22.169,13.694,22.638,14.749,22.306,14.722z"/>
<path fill="#17803F" d="M2.2,26.823c0.785-0.25,1.445-1.191,1.445-1.191s-0.145,0.82,0.266,1.191c-0.051,0-3.398,0.574-2.969,1.633
	c0.195,0.48,0.785,0.312,0.785,0.312l2.348-1.48c0,0,0.246-0.141,0.422,0.129c0.328,0.512,0.195,1.328-0.066,2.172
	c-0.258,0.84-0.938,0.516-0.938,0.516s0.293-0.098,0.613-1.133c0.324-1.035,0-1.426,0-1.426s-0.324,0.031-0.844,0.453
	c-0.516,0.422-1.539,0.766-1.539,0.766s0.094,0.441-0.219,0.66s-0.312,0.219-0.312,0.219s0.629,0.156,0.848,0.66
	s0.723,1.098,1.477,0.754s0.879-0.188,1.32-0.504c0.441-0.312,0.473-1.602,0.473-1.602s0.25-0.469,0.285,0.219
	c0.031,0.691,0.156,1.633,0.156,1.633s0.879,0.473,2.008-0.441c1.129-0.91,0.566-1.789,1.004-1.977
	c0.441-0.188,0.785,0.281,0.816-0.094s-0.438-0.535-0.219-0.723s0.438-0.473,0.344-0.785s-0.785-0.879-1.379-0.941
	c-0.441-0.047-0.848,0.117-1.234,0.355c0.102,0.109,0.234,0.262,0.391,0.469c0.422,0.551-0.195,1.168-0.746,1.652
	s-0.613,0.906-0.648,0.711c-0.031-0.195,0.289-0.551,0.938-1.523s-0.336-1.039-0.336-1.039s0.445-1.113,1.348-1.582
	c-0.078-0.043-0.445-0.289-0.785-0.355c-0.648-0.129-2.148,0.07-2.43-0.484c-0.188-0.375-0.574,0.129-0.746,0.258
	c-0.289,0.227-1.426,0.289-1.879,0.098C1.97,24.304,1.556,24.272,1.2,24.265c-0.273,0.133-0.492,0.312-0.48,0.543
	c0.031,0.598,0.504,0.785,0.566,1.285C1.353,26.601,1.415,27.073,2.2,26.823z"/>
<path fill="#17803F" d="M29.298,16.46c0.566-0.473,0.66-1.602,0.125-2.105s-2.543-0.25-2.543-0.25s-0.375-1.508-1.285-1.852
	c0,0-0.496-0.598-1.152-0.5s-0.68,0.605-0.68,0.605s-1.188-0.645-2.281,0.176c0.41,0.062-0.816,0.816-0.754,1.445
	c0.023,0.234,0.141,0.473,0.316,0.68c0.191-0.02,0.746-0.078,1.043-0.215c0.363-0.164-0.082-0.832,0-1.082
	c0.086-0.25,0.473-0.109,0.473-0.109s-0.168-0.391,0.168-0.418c0.332-0.027,0.887,0.664,0.887,0.664s-0.055-0.195,0.332-0.555
	s1.5,0.5,2.164,1.027c0.668,0.527,0.527,1.332,0.527,1.332c0.445-0.109,1,0.277,1.5,0.582c0.391,0.238,0.559,0.609,0.613,0.762
	C28.946,16.64,29.142,16.589,29.298,16.46z"/>
<path fill="#17803F" d="M1.165,16.085c0.504-0.25,0.816-0.156,0.816-0.156s-0.91,0.281-0.973,0.973s0.062,0.691,0.062,0.691
	s0.188-0.375,0.406-0.566c0.219-0.188-0.062,1.288,0.879,1.727c0.941,0.441,1.852,0.219,2.227,0.125
	c0.379-0.094,0.848-0.344,0.848-0.344s0.91-0.125,1.379,0.25c0.473,0.375,0.785,0.629,1.32,0.344
	c0.535-0.281,0.566-0.504,0.566-0.504l-0.66-0.473c0,0-0.312-0.312,0.156-0.535c0.473-0.219,0.816-0.281,0.379-0.941
	c-0.441-0.66-0.879-1.004-1.035-1.098c-0.07,0.793-1.238-0.113-1.238-0.113s-0.293-0.824-1.457-1.066
	c-1.164-0.238-1.762,0.305-1.762,0.305c0.027,0.098-0.598-0.25-1.32,0.312c-0.723,0.566-1.352,1.289-1.352,1.289
	S0.661,16.335,1.165,16.085z"/>
<path fill="#17803F" d="M3.614,37.058c0.375,0.031,1.695,0.062,2.387,0.5c0.691,0.441,0.469,0.031,0.344-0.344
	s0.504,0.469,1.035,0.91c0.535,0.44,1.539,0.219,1.977-0.66s-0.031-0.91,0.031-1.254s0.629-0.566,0.312-0.848
	c-0.312-0.281-1.348,0.281-1.789,0.281c-0.387,0-1.676,0.098-2.148-0.117c0.035-0.496-0.039-1.379-0.098-1.949
	c0.066,0.055,0.227,0.406,0.324,0.059c0.16-0.582,1.168-0.746,0.875-1.199s-0.551-0.582-0.551-0.582s1.297,0.031,1.004,0.875
	c-0.289,0.844-1.133,0.777-1.133,1.164c0,0.141,0.016,0.277,0.039,0.395c0.039-0.176,0.027-0.367,0.246-0.277
	c0.312,0.125,0.754,0.281,1.633,0.062s1.852-1.32,1.664-2.164c-0.188-0.848-1.57-1.004-2.039-0.879
	c-0.473,0.125-1.004,0.219-1.758,0.219s-1.57,0.344-2.105,0.406c-0.531,0.062-1.852-0.062-2.293,0.125
	c-0.438,0.188-0.816,0.312-0.816,0.312c0.094,0.344,0.312,0.031,0.848,0.062s0.816,0.188,0.312,0.375s-1.035,0.598-0.879,0.879
	c0.156,0.282,1.004-0.566,1.254-0.406c0.25,0.156-0.031,1.035,1.035,1.977s1.945,0.535,1.945,0.535s-0.188-0.062-0.312-0.566
	s0.219-0.785,0.25-1.16c0.012-0.141,0.078-0.234,0.164-0.273c0.098,0.762,0.125,1.672,0.125,1.672s-0.02,0.555-0.602,0.578
	c-0.723,0.031-1.352-0.535-1.977-0.566c-0.629-0.031-1.664,0.785-1.664,0.785s-0.535,0.473-0.188,0.598
	c0.344,0.125,0.816-0.062,0.816-0.062s-0.785,0.691-0.691,1.004s0.25,0.156,0.785-0.156S3.235,37.026,3.614,37.058z"/>
<path fill="#17803F" d="M3.688,49.655c-0.66,0.598-0.469,2.043-0.469,1.539c0-0.503,0.91-1.227,0.973-0.941
	c0.062,0.281,0.754,0.25,0.973-0.156c0.219-0.41,0.695-0.246,0.91-0.379c0.648-0.395,0.895-0.776,0.953-0.918
	c-0.34-0.152-0.887-0.23-0.992-0.227c-0.762,0.027-1.727,0.398-2.457,0.977C3.829,49.429,3.946,49.425,3.688,49.655z"/>
<path fill="#17803F" d="M2.985,44.624c-0.188,0.473-0.629,0.66-0.535,0.879s0.375,0.281,1.066,0.031s0.598,0.125,1.066,0.125
	c0.473,0,0.66-0.345,1.129-0.379c0,0-0.016,1.582,0.371,2.52c-0.211,0.02-0.371-0.07-0.371-0.07
	c-0.469-0.125-0.91,0.504-1.379,0.348c-0.473-0.156-0.879,0.156-0.504,0.219c0.379,0.062,0.629,0.125,0.629,0.125
	s-0.504,0.125-1.129,0.473c-0.629,0.348-1.16,2.102-0.941,1.664c0.125-0.254,0.91-1.34,2.273-1.832
	c0.711-0.258,1.746-0.453,2.492,0.066c0.047,0.031,0.086,0.062,0.121,0.086c0.113,0.02,0.23,0.035,0.352,0.047
	c0.691,0.062,1.098,0.031,1.695,0.125s0.031,0.785,0.566,0.191c0.535-0.598-0.25-1.098-0.535-1.195
	c-0.285-0.094-0.125-0.25,0.438-0.375c0.566-0.125,1.098-0.879,0.723-0.66s-0.973,0-2.008,0.062s-1.664,0.25-2.039,0.566
	c-0.008,0.008-0.016,0.012-0.02,0.016c-0.156-0.43-0.453-1.387-0.309-2.188c0.188,0.184,0.34,0.453,0.609,0.574
	c0.438,0.188,1.223,0.25,1.379,0.91c0,0,1.695-0.16,1.285-1.227l1.16-0.094c0,0-0.422-0.746-1.27-1.043
	c-0.203,0.145-0.547,0.332-0.961,0.353c-0.68,0.03-1.426-0.196-2.008-0.356s-1.23-0.129-1.555-0.195
	c-0.223-0.047-0.691-0.258-1.035-0.448c-0.172-0.028-0.359-0.044-0.551-0.036c-0.785,0.031-1.32,0.219-1.633,0.598
	s0.125,0.031,0.66-0.094C2.767,44.276,3.173,44.151,2.985,44.624z"/>
<path fill="#17803F" d="M9.829,43.901c0.723,0.062,0.879,0.062,0.879,0.062s-0.91-1.539-2.07-1.383s-1.883,1.066-2.23,1.16
	s-1.254-0.375-1.883-0.406s-1.035,0.062-0.66,0.406c0.184,0.168,1.379,0.652,1.797,0.621c0.422-0.031,1.074,0.086,1.559,0.281
	c0.445,0.18,1.328,0.141,1.77-0.145c-0.004,0-0.004,0-0.008,0C8.981,44.499,9.106,43.839,9.829,43.901z"/>
<path fill="#17803F" d="M7.329,49.933c0.305-0.168,0.902-0.074,1.285,0.051c0.625,0.203,0.895-0.441,0.895-0.559
	c0-0.094,0.016-0.227-0.457-0.285c-0.523-0.07-1.605-0.188-1.891-0.102c-0.289,0.086-0.691,0.609-0.691,0.609
	C6.333,50.456,7.028,50.104,7.329,49.933z"/>
<path fill="#17803F" d="M7.286,61.327c0.203-0.051,0.414-0.105,0.621-0.164c0.012,0.137,0.086,0.879,0.562,1.199l0.195-0.094
	c0,0-0.434-0.73-0.465-1.195c0.438-0.137,0.824-0.285,1.031-0.438c0.344-0.254,1.379-0.473,1.883-0.379s1.004-0.565-0.188-0.973
	c-1.023-0.352-2.277,0.039-3.09,0.477c-0.102-0.348-0.426-1.562-0.422-2.348c0.133,0.25,0.348,0.473,0.688,0.52
	c0.879,0.125,1.414-0.316,1.945,0.125c0.535,0.441,0.535,0.441,0.535,0.441s0.23-0.57-0.059-0.935
	c-0.277-0.229-0.66-0.479-1.168-0.714c-1.258-0.57-3.395-1.141-4.84-0.914c-0.176,0.105-0.422,0.234-0.688,0.301
	c-0.504,0.125-0.598,1.035-0.379,1.379c0,0,0.156-0.375,0.473-0.406c0.312-0.031-0.062,1.16,0.973,1.352
	c0.883,0.16,1.855-0.023,2.164-0.645c0.027,0.535,0.133,1.453,0.496,2.008c-0.027,0.017-0.059,0.035-0.086,0.055
	c-0.188,0.125-0.785,0.156-1.477-0.188c-0.691-0.348-1.664-0.031-1.664-0.031s0.723,0.441,0.941,1.035
	c0.219,0.598-0.473,0.219-0.91,0.312c-0.441,0.094-1.227,0.535-1.098,0.973c0.125,0.441,1.004,1.129,1.977,0.66
	C6.22,62.269,6.532,61.515,7.286,61.327z"/>
<path fill="#17803F" d="M6.438,54.327c0.316-0.359,0.223-0.801,0.125-1.055c0.078,0.047,0.211,0.074,0.434,0.062
	c-0.008,0.508,0.012,1.479,0.215,2.047c0.012,0.035,0.027,0.07,0.043,0.105c0,0-0.652-0.551-1.395-0.758
	C6.087,54.64,6.282,54.499,6.438,54.327z M2.36,55.237c0,0,0.754,0.691,1.445,0.66c0.188-0.008,0.344-0.023,0.477-0.039
	c0.211-0.094,0.383-0.167,0.383-0.167s0.289-0.165,1.391,0c1.102,0.159,1.977,0.097,3.336,0.839c1.035,0.566,1.34,0.797,1.582,1.262
	c0.188,0.168,0.355,0.367,0.395,0.555c0.125,0.566,0.441-0.598-0.312-1.289S8.892,55.804,8.2,55.679
	c-0.352-0.062-0.59-0.109-0.738-0.145c0,0-0.215-1.418-0.254-2.22c0.77-0.116,0.742-0.835,0.898-0.714
	c0.156,0.125,1.066,0.281,1.727,0.375s1.129,0.316,1.129,0.316s0.031-0.379-0.66-0.848c-0.453-0.309-1.137-0.375-1.551-0.383
	c0.266-0.031,0.66-0.12,1.145-0.37c0.91-0.47,1.066-1.38,0.723-1.415c-0.348-0.031-1.223,0.406-1.727,0.66
	c-0.008,0.005-0.012,0.008-0.016,0.008c-0.59,0.352-0.953,0.727-1.715,1.312c-0.844,0.648-1.879,0.422-1.879,0.422
	c1.164-0.16,2.039-0.973,2.039-0.973s0.07-0.055,0.188-0.148c-0.246,0.098-0.465,0.172-0.594,0.195
	c-0.375,0.062-0.598-0.344-0.973-0.469c-0.379-0.125-0.691,0.125-1.227,0.125s-1.129,0.282-1.477,0.5
	c-0.344,0.223-1.16,0.566-1.16,0.566c0.129,0.211,0.316,0.32,0.52,0.371l0.059-0.074c0,0,0.809-0.195,1.426-0.16
	c0.613,0.031,0.777,0.031,0.613,0.031c-0.16,0-0.582,0.066-1.102,0.617c-0.395,0.418-0.695,0.52-0.859,0.84
	c0.344-0.059,0.883,0.168,1.535,0.508c0.133,0.07,0.262,0.121,0.395,0.16c-0.543,0.156-1.074,0.418-1.555,0.438
	C2.36,55.237,2.36,55.237,2.36,55.237z"/>
<path fill="#17803F" d="M27.978,35.96c-0.566-0.094-1.82,0.156-2.605,0.281s-2.164-0.312-2.793-0.66s-2.105-0.504-2.73-0.125
	c-0.629,0.379-0.062,0.754-0.062,0.754s-0.012,0.004-0.031,0.016c0.246,0.172,0.785,0.527,1.199,0.555
	c0.551,0.031,0.84,0.422,1.199,0.844c0.312,0.367,1.438,0.711,2,0.641c0.117-0.25,0.5-0.355,0.5-0.355s0.031,0.188,0.723,0.566
	c0.609,0.332,1.297,0.125,1.445,0.074c-0.047-0.23-0.172-0.535-0.488-0.762c-0.582-0.422-1.199-0.582-1.199-0.582l0.195-0.195
	c0,0,1.199,0.258,1.488,0.973c0.098,0.242,0.164,0.422,0.207,0.555c0.109-0.031,0.25-0.133,0.395-0.406
	c0.281-0.535-0.031-1.445,0.504-1.285c0.535,0.156,0.879-0.094,0.879-0.094S28.544,36.054,27.978,35.96z"/>
<path fill="#17803F" d="M27.634,40.448c-0.598-0.473-1.035-0.723-1.789-0.691s-1.098,0.473-1.57,0.219c0,0-0.504-0.411-0.406-0.411
	c0.094,0,0.473-0.534,0.281-1.003c-0.008-0.02-0.012-0.039-0.016-0.059c-0.309,0-0.742-0.02-1.141-0.109
	c-0.711-0.16-1.035-0.746-1.488-1.07s-0.84-0.355-1.23-0.516c-0.219-0.094-0.469-0.316-0.648-0.496
	c-0.066,0.055-0.16,0.141-0.281,0.273c-0.312,0.344-0.219,0.629,0.504,1.098s1.445,0.031,1.445,0.031s0,0-0.062,0.406
	s0.25,0.973,0.25,0.973c-0.125-0.031-1.383,0.629-1.098,1.289c0.207,0.48,0.727,0.461,0.996,0.414
	c-0.023-0.008-0.035-0.008-0.035-0.008l0.293-0.227c0,0,0,0.391,1.035,0.516c1.035,0.129,2.039-0.973,2.785-0.906
	c0.742,0.066,2.008,1.652,1.586,2.394l-0.066,0.075c0.055,0.145,0.195,0.355,0.473-0.129c0.375-0.66-0.219-1.602-0.219-1.602
	s0.723,0.219,1.133-0.031C28.763,40.636,28.228,40.921,27.634,40.448z"/>
<path fill="#17803F" d="M24.587,42.991c0.441,0.156,0.25,0.816,0.879,0.629c0.508-0.152,1.152-0.75,1.387-0.977
	c0.059-0.223,0.074-0.579-0.172-1.008c-0.293-0.52-0.586-0.914-0.891-1.094c-0.098,0.211-0.609,1.25-1.535,1.742
	C24.31,42.526,24.329,42.897,24.587,42.991z"/>
<path fill="#17803F" d="M21.919,44.276c-0.535-0.062-1.508-0.406-2.324-0.438c-0.461-0.02-0.633,0.125-0.691,0.254
	c-0.027,0.227-0.086,1.039,0.492,1.43c0.68,0.453,1.621-0.066,1.621-0.066s0.258,0.645,0.711,0.875
	c0.453,0.227,0.844,0.098,0.844,0.098s0.582,0.551,1.133,0.227c0.148-0.086,0.516-0.453,0.516-0.453s0.391,0.129,0.711-0.355
	c0.324-0.484,0.355-0.941,0.355-0.941s1.477,0.27,2.277-0.266c-0.023-0.047-0.031-0.066,0-0.078
	c0.125-0.031,0.125-0.816-0.348-0.848c-0.469-0.031-1.852,0.562-2.387,0.691c-0.297,0.07-1.012,0.043-1.672-0.008
	c0.152-0.5,0.379-1.441,0.242-2.206c0.223,0.022,0.441,0.011,0.582-0.079c0.051-0.031,0.094-0.043,0.129-0.039
	c0.18-0.094,0.391-0.23,0.621-0.441c0.551-0.504,0.766-0.973,0.84-1.18c-0.062-0.016-0.125-0.023-0.191-0.02
	c-0.453,0.031-1.523,0.613-2.008,0.777c-0.484,0.16-1.199,0-1.52-0.195c-0.176-0.105-0.312-0.164-0.402-0.191
	c-0.395,0.293-2.016,1.516-1.77,1.57c0.285,0.062,0.941-0.816,1.066-0.473c0.125,0.348-0.188,1.977,0.441,1.695
	s1.352-1.633,1.352-1.633s0.348,0.125,0.719,0.184c0.008,0.277,0.004,1.309-0.312,2.211C22.513,44.343,22.122,44.304,21.919,44.276z
	"/>
<path fill="#17803F" d="M25.653,47.702c0.785-0.031,1.789-1.258,2.008-2.074c0.09-0.328,0.07-0.559,0.023-0.723
	c-0.086,0.047-0.203,0.094-0.359,0.125c-0.613,0.129-1.91,0.031-1.91,0.031s-0.227,0.906-0.68,1.199s-0.227,0.746-0.273,1.102
	C24.646,47.487,25.071,47.726,25.653,47.702z"/>
<path fill="#17803F" d="M20.505,46.632c-0.281,0.816,0.664,1.711,2.074,1.633c1.145-0.062,1.496-0.562,1.547-0.617
	c0.039-0.285,0.094-0.785,0-1c-0.164,0.148-0.406,0.312-0.715,0.328c-0.582,0.031-0.844-0.293-0.844-0.293s-0.551,0.16-0.938-0.098
	c-0.391-0.258-0.711-0.875-0.711-0.875s-0.293,0.129-0.973,0.098c-0.566-0.027-1.199-0.438-1.152-1.246
	c-0.129,0.684,0.168,1.227,0.609,1.503c0.504,0.313,1.227-0.378,1.508-0.187C21.196,46.069,20.79,45.819,20.505,46.632z"/>
<path fill="#17803F" d="M26.868,48.854c-0.867,0.188-1.109-0.488-1.867-0.488s-1.625,0.191-1.977,0.325
	c-0.352,0.136-1-0.056-1-0.056s-1.348,0.133-2.371,0.285c0.145,0.098,0.574,0.41,0.734,0.766c0.195,0.426,1.395,0.723,2.008,0.378
	c0.609-0.343,0.781-0.44,1.359-0.292c0.574,0.145,1.297,0.574,1.969,0.402c0.461-0.117,0.797-0.211,0.965-0.258
	c-0.066-0.039-0.152-0.078-0.246-0.117c-0.324-0.133-1.109-0.516-0.922-0.785s1.543,0.137,2.004,0.055s0.215-0.406,0.215-0.406
	S27.735,48.667,26.868,48.854z"/>
<path fill="#17803F" d="M29.798,22.616c-0.156,0.188-0.598-0.031-1.004-0.094c-0.41-0.062-0.691,0.25-0.941,0.188
	c-0.047-0.012-0.078-0.047-0.098-0.086c-0.57-0.062-1.75-0.148-2.41-0.234c-0.703-0.094-0.828,0.25-0.828,0.25
	s-0.031-0.434,0.336-0.465s1.777,0.121,1.777,0.121s-0.891-0.777-1.043-1.414c0,0,0.949,1.477,1.824,1.539
	c0.121,0.008,0.23,0.012,0.328,0.008c0.035-0.172,0.156-0.383,0.332-0.504c0.148-0.102,0.258-0.191,0.32-0.285
	c-0.547-0.023-2.023-0.23-2.52-1.715c0,0,1.012,1.195,1.809,1.348c0.367,0.07,0.59,0.078,0.723,0.062
	c-0.008-0.012-0.012-0.027-0.02-0.039c-0.156-0.25-0.125-0.441,0-0.473s0.316,0.188,0.941-0.062c0.629-0.25,0.094-1.539,0.094-1.539
	s-1.383-0.407-2.074-0.312c-0.559,0.078-1.035,0.277-1.215,0.398c0.125-0.184,0.363-0.68,0.273-1.402
	c-0.125-1.004-0.973-0.91-0.973-0.91l-0.031,2.262l-0.344-0.031l-0.125-2.324c0,0-0.66-0.188-1.289,0.188s-1.133,2.105-1.133,2.105
	c-1.414,0.062-2.105,0.598-2.105,0.598s0.973-0.379,0.816,0.25s-0.848,0.535-0.348,0.66c0.418,0.102,0.727-0.203,0.816-0.309
	l-0.055-0.223l0.121-0.059c0,0,0.305,0.551,1.379,0.398s2.391-0.918,2.391-0.918s-1.816,1.465-3.645,1.099
	c0.078,0.112,0.195,0.253,0.371,0.421c0.066,0.062,0.121,0.113,0.176,0.16c0.293,0.031,0.723,0.113,1.188,0.316
	c0.828,0.367,0.754,0.973,0.754,0.973c-0.59-0.504-1.082-0.832-1.555-0.953c0.004,0,0.004,0.004,0.004,0.004s-0.941,0-1.508,0.629
	s-0.629,1.098-0.629,1.098s0.348-0.312,0.629-0.031c0.27,0.27,0.988,0.48,1.465,0.637c0.367,0.078,0.516,0.031,0.516,0.031
	s0.645,1.102,2.113,1.133c1.473,0.031,2.91-0.734,3.34-1.133l0.199,0.254c0.094-0.09,0.199-0.207,0.312-0.352
	C29.798,23.179,29.958,22.425,29.798,22.616z"/>
<path fill="#17803F" d="M22.552,32.101c-0.363-0.062-1.051-0.199-1.605-0.129c-0.754,0.093-1.602,0.91-0.785,1.664
	s3.203,0.281,3.203,0.281s0.504,0.91,0.691,0.723c0.152-0.152,0.223-1.262,0.242-1.672c-0.129,0.008-0.258,0-0.391-0.02
	c-0.113,0.23-0.367,0.656-0.789,0.766c-0.586,0.152-1.504,0.168-1.812-0.399c-0.309-0.565-0.703-0.675-0.703-0.675
	s0.152-0.152,0.676,0.336c0.52,0.492,0.98,0.797,1.594,0.551c0.406-0.164,0.762-0.434,0.949-0.598
	C23.407,32.847,22.974,32.608,22.552,32.101z"/>
<path fill="#17803F" d="M28.36,28.323c-1.277-1.184-3.211-0.715-3.211-0.715c-1.117,0.109-1.445,0.164-1.445,0.164
	c-0.094-0.062-0.441-0.281-1.129-0.441c-0.691-0.156-0.973-0.441-1.383-0.566c-0.406-0.125-0.785-0.125-0.754,0.062
	s1.445,0.598,1.445,0.941s-0.629,0.629-0.629,1.539s0.598,0.941,1.191,1.634c0.598,0.69,0.598,0.69,0.598,0.69l0.086-1.062
	c-0.086-0.109-0.191-0.234-0.328-0.371c-0.547-0.551-1.234-0.719-0.609-1.715c0.055-0.121,0.121-0.184,0.121-0.184
	c-0.047,0.066-0.086,0.125-0.121,0.184c-0.082,0.184-0.137,0.496,0.121,0.918c0.16,0.266,0.289,0.426,0.402,0.551
	c0.188,0.207,0.34,0.32,0.551,0.645c0.141,0.215,0.195,0.345,0.211,0.422c0.152,0.219,0.316,0.423,0.418,0.423
	c0.195,0,0.441-1.431,0.648-1.599v-0.262c0,0,0.922,0.605,1.93,0.305c0,0,0.672-0.09,0.629,0.492l-0.906-0.215
	c0,0-0.922,0.125-1.504-0.203c0.16,0.352,0.203,1.246-0.207,1.543c-0.473,0.344,1.066,0.062,1.602-0.629
	c0.535-0.691,0.941-0.629,1.16-0.312c0.219,0.312,0.66,0.156,1.035-0.188s0.816-0.535,0.973-0.344
	c0.156,0.188-0.25-0.973-0.691-1.508C28.517,28.46,28.446,28.39,28.36,28.323z"/>
<path fill="#17803F" d="M29.298,25.229c-0.375,0.133-0.77-0.438-0.879-0.609c-0.422,0.242-1.051,0.531-1.785,0.645
	c0.117,0,0.234,0.016,0.348,0.047c0.797,0.23,1.625,0.691,1.625,0.691s0.094,0.07,0.145,0.09
	C29.243,25.804,29.688,25.089,29.298,25.229z"/>
<path fill="#17803F" d="M26.267,25.3c-0.18,0.012-0.359-0.004-0.547-0.004c-1.762,0-2.25-0.883-2.637-1.207
	c-0.109,0.059-0.465,0.152-0.691,0.168c-0.41,0.031-1.602,0.25-1.602,0.504c0,0.25,0.691,0.062,0.691,0.062s-0.312,0.156-0.406,0.66
	s0.691,1.414,1.695,1.664s1.289-0.441,1.289-0.441s-0.062,0.125,0.031,0.344s0.441,0.125,0.535,0.094s-0.031-1.727-0.031-1.727
	s0.348,0.062,0.41,0.062c0.047,0,0.023,1.074,0.012,1.664c0.605-0.152,2.152,0.102,2.793,0.375c0.371,0.156,0.641,0.484,0.801,0.746
	c0.723-0.227,0.445-0.68,0.445-0.68c0.027-0.68-0.723-1.309-0.723-1.309s-0.309-0.258-1.316-0.613
	c-1.012-0.355-1.809,0.309-1.809,0.309v-0.215C25.2,25.757,25.692,25.417,26.267,25.3z"/>
<path fill="#17803F" d="M22.669,66.667c0,0-0.223,0.621-0.812,0.918v0.004c0,0-0.52,0.312-1.086,0.309
	c-0.031,0.469,0.035,1.613,1.465,1.312c1.09-0.23,1.527-0.656,1.695-1.117c-0.211-0.039-0.543-0.219-0.809-0.484
	C22.731,67.218,22.669,66.667,22.669,66.667z"/>
<path fill="#17803F" d="M25.778,63.522c-0.504-0.25-1.16-1.633-1.852-2.137c-0.188-0.137-0.402-0.238-0.629-0.316
	c-0.137,0.035-0.266,0.102-0.371,0.219c-0.391,0.422-0.582,1.359-2.105,1.359s-1.977-0.583-2.105-0.941
	c-0.129-0.355-0.098-0.746-0.422-0.809c-0.242-0.047-0.93-0.059-1.387,0.07c-0.344,0.941,0.043,2.539,1.148,2.773
	c1.113,0.234,1.297-0.492,1.32-0.863c0.027,0.223,0.129,0.625,0.5,1.176c0.191,0.281,0.449,0.426,0.715,0.484
	c-0.027,0.137-0.051,0.266-0.074,0.383c-0.27-0.055-0.473-0.098-0.516-0.117c-0.156-0.062-1.602-0.156-1.695-0.219
	s-1.035-0.469-1.352-0.406c-0.312,0.062-0.344,0.219-0.312,0.375s-0.375-0.25-0.504,0.188c-0.09,0.309,0.137,0.605,0.41,0.773
	c0.129,0.016,0.254,0.043,0.254,0.043s1.262,0.195,1.684-0.098c0,0-0.289,1.84,1.566,2.16c2,0.348,2.676-1.285,2.676-1.285
	s0.293,1.258,1.242,1.633c0.094-0.285,0.074-0.547,0.016-0.711c0,0,1.285,0,1.191-0.565c-0.094-0.563-0.219-0.688-0.219-0.688
	s0.879-0.062,0.848-0.254c-0.031-0.188-1.039-0.25-1.129-0.281c-0.094-0.031-2.293-0.188-2.293-0.188s-0.809-0.148-1.488-0.281
	c0.047-0.141,0.09-0.285,0.137-0.435c0.414-0.034,0.785-0.226,0.914-0.382c0.25-0.312,1.57-0.41,2.008-0.473
	c0.441-0.062,0.312-0.941,0.312-0.941s0.344,0.441,0.785,0.754C25.497,63.839,26.282,63.776,25.778,63.522z"/>
<path fill="#17803F" d="M7.981,67.569c0.004-0.005,0.484-0.434,0.613-1.234c0.129-0.805,0.227-0.18,1.473-0.771
	c0.574-0.272,1.098-0.577,1.496-0.839c0.07-0.062,0.145-0.125,0.211-0.195c0.281-0.281,0.125-0.785,0-1.191s0.344-0.91,0.598-1.066
	c0.25-0.156,0.723-0.441,0.754-0.691c0.031-0.254-0.91-0.031-1.414-0.312s-0.723-0.848-1.191-0.848s0.348,0.379,0.062,0.879
	c-0.281,0.504-0.691,0.188-1.254,0.629c-0.566,0.441-1.035,0.848-1.066,1.695L8.2,63.749c0,0-0.438-0.441-1.035-0.473
	s-1.82,0.062-1.977,0.816s0.312,0.703,0.312,0.703s0.234-0.098,0.754-0.258c1.887-0.547,2.109,0.879,2.113,0.898
	c-0.004-0.008-0.035-0.09-0.574-0.566c-0.578-0.516-1.574-0.043-1.574-0.043c-0.039,0.039-0.09,0.07-0.156,0.086
	c-0.25,0.062-0.691,0.281-0.754,0.441c-0.062,0.156-0.598,1.254,0.281,2.008s1.758,0.723,2.102,0.438
	C7.81,67.702,7.903,67.628,7.981,67.569z"/>
<path fill="#17803F" d="M15.579,67.062c0.426,0.398,0.918,0.66,0.918,0.66s-0.078,0.093-0.172,0.227
	c-0.043-0.007-0.41-0.09-0.867-0.484c-0.484-0.422,0-1.133,0-1.133c0.012,0.004,0.02,0.004,0.031,0.008
	C15.454,66.378,15.181,66.687,15.579,67.062z M14.165,72.644c-0.191,0.387-0.297,0.641-0.355,0.812
	c0.172-0.52,0.648-1.637,1.133-2.855c0.68-1.715-0.492-2.977-0.422-2.909C16.271,69.343,14.653,71.675,14.165,72.644z
	 M13.747,73.776c0,0-0.004-0.012-0.004-0.043c0-0.035,0.012-0.102,0.039-0.184c-0.027,0.094-0.035,0.152-0.039,0.184
	C13.743,73.761,13.747,73.776,13.747,73.776z M13.177,68.8c-0.512,0.723-1,0.023-1,0.023s0.215,0.211,0.715-0.344
	c0.496-0.551,0.148-1.027,0.148-1.027s0.523-0.039,0.84-0.609c0.316-0.566,0.195-1.066,0.195-1.066s0.301,0.375,0.121,1.066
	s-1.02,0.602-1.02,0.602S13.688,68.077,13.177,68.8z M10.146,70.124c-1.309,0.477-1.797-0.414-1.797-0.414s0.262,0.383,1.16,0.266
	c0.16-0.02,0.344-0.059,0.551-0.117c1.344-0.387,1.383-0.82,1.383-0.82S11.458,69.647,10.146,70.124z M19.454,68.983
	c0,0,0.504-0.125,0.723-0.566c0.086-0.172,0.141-0.289,0.18-0.367c-0.43-0.078-1.48-0.328-1.785-0.941
	c-0.387-0.777-0.258-1.133-0.258-1.133s-0.621,0.164-1.203,0.098c0.062,0.316-0.031,0.875,0.004,1.125
	c-0.203-0.273-0.758-0.887-1.078-0.977c-0.441-0.125-0.754,0.031-0.754,0.031l-0.66,0.281c0,0,0.125-0.375-0.375-0.848
	c-0.27-0.25-0.625-0.312-0.922-0.32c-0.816,1.59-3.723,0.875-3.723,0.875s-0.633,1.266-1.406,1.918
	c-0.777,0.655-0.73,2.234-0.73,2.234s2.387,2.414,4.129,0.387c0.887-1.031-0.109-2.051,0.395-1.957s0.25,1.16,0.312,1.445
	c0.062,0.281,0.094,3.453,1.789,4.02c0,0-0.156-0.91,0.438-1.289c0.598-0.375,1.352-1.066,1.508-1.789s0.156-1.195,0.156-1.195
	s0.473,0.473,0.566,1.32c0.09,0.809,1.469,1.047,2.137,0.93c0.344-0.695,0.227-1.312,0.164-1.434
	c-0.066-0.129-0.258-0.098-0.875-0.293s-0.906-0.974-0.906-0.974s-0.875,0.13-1.359-0.323c-0.438-0.406,0.246-1.125,0.395-1.266
	c-0.176,0.262-0.383,0.66-0.188,0.871c0.309,0.328,1.145,0.289,1.145,0.289s0.48,0.77,0.977,0.973
	c0.492,0.206,0.66,0.152,0.66,0.152s-0.262-0.492-0.207-0.824c0.055-0.328,0.207-0.535,0.207-0.535s-0.742-0.152-1.344-0.852
	c-0.605-0.699-0.98-1.18-0.98-1.18c-0.008-0.016-0.336-0.289-0.707-0.41c-0.148-0.051-0.234-0.078-0.289-0.098
	c1.773,0.484,1.395,1.188,2.473,2.043c0.691,0.551,1.102,0.512,1.043,0.539c-0.051,0.09-0.125,0.27-0.203,0.594
	c-0.129,0.551,0.422,0.582,0.617,1.653c0.113,0.632-0.133,1.151-0.355,1.472c0.152,0.211,0.438,0.395,0.961,0.25
	c1.004-0.281,0.848-0.816,0.848-0.816s0.566,0.848,1.16,0.188c0.598-0.66,0.219-1.285-0.312-1.852
	C21.274,69.862,19.454,68.983,19.454,68.983z"/>
<path fill="#17803F" d="M23.981,52.132c-0.438,0.367-0.926,0.379-1.148,0.234s-0.379-0.328-0.195-0.465
	c0.188-0.137,0.086-0.242,0.039-0.359s0.164-0.125,0.164-0.125s0.672-0.109,1.047,0.105C24.271,51.733,24.415,51.761,23.981,52.132z
	 M22.474,56.593c0.711,0.066,0.16,0.258-0.422,0.258s-1.035-0.195-1.035-0.195S21.759,56.53,22.474,56.593z M26.622,50.249
	c-0.016,0.008-0.035,0.016-0.043,0.02C26.587,50.265,26.599,50.257,26.622,50.249z M27.22,54.081
	c-0.215-0.484-1.301-0.484-1.301-0.484s0-0.137,0.434-0.352s0.648-0.594,0.543-1c-0.109-0.406-1.055-0.27-1.219-0.434
	s0.27-0.109,0.676-0.406c0.406-0.301,0.352-1.191,0.352-1.191s-0.008,0.004-0.02,0.008c0.008-0.004,0.012-0.008,0.02-0.008
	c0.051-0.022,0.086-0.047,0.105-0.066c-0.242,0.09-0.727,0.254-1.156,0.281c-0.602,0.039-1.262-0.109-1.785-0.293
	c-0.527-0.184-0.844-0.074-1.504,0.184s-1.566,0.332-2.066-0.195c-0.328-0.344-0.523-0.59-0.875-0.629
	c-0.121,0.055-0.645,0.297-0.598,0.586c0.055,0.324,2.062,1.887,2.344,1.93c0.664,0.098,1.16-0.027,1.086,0
	c-0.07,0.023-0.422,0.371-1.828,0.125c-2.246-0.496-2.062,1.52-2.062,1.52l2.223,0.082c0,0,0,0-0.477,0.527
	c-1.227,0.539-0.91,2.512-0.676,2.707c0.051,0.043,0.133,0.082,0.227,0.113c-0.809,0.164-1.984-0.051-1.984-0.051
	s-1.039,0.188-1.004,0.312c0.031,0.125,0.879,0.312,0.879,0.312s-0.91,0.312-0.973,0.691c-0.062,0.375,0.629,0.125,0.629,0.125
	c0.312-0.441,1.066-0.348,1.066-0.348s-0.219,0.66,0.879,1.004s1.414-0.879,1.414-0.879s0.082,0.367,0.762,0.926
	c-0.09,0.77-0.309,1.523-0.352,1.668c-0.57-0.113-1.258-0.387-1.914-0.613c-0.91-0.312-1.57,0.094-1.57,0.094
	c-0.203,0.07-0.359,0.219-0.477,0.418l0.375-0.066c0,0,0.973-0.227,1.297,0.098s0,1.199,0.809,1.488
	c0.809,0.293,2.203,0.227,2.621-0.355c0.34-0.468,0.551-0.875,1.027-0.879c-0.555-0.16-1.156-0.18-1.574-0.137
	c-0.102,0.008-0.215,0.008-0.332-0.004c0.188-0.383,0.348-0.945,0.461-1.426c0.066,0.047,0.141,0.094,0.215,0.145
	c1.227,0.785,1.633-0.441,2.262-0.312c0.629,0.125,0.691,0.848,0.691,0.848c0.379-1.82-2.07-3.391-2.07-3.391s0.848,0,1.508-0.344
	c0.66-0.345,1.695-0.406,1.004-0.406s-1.289-0.879-2.043-1.004s-1.258,0.598-1.258,0.598s-0.215,0.102-0.496,0.266
	c-0.332-0.309-0.875-0.762-1.102-1.176c-0.023-0.043-0.043-0.078-0.066-0.113c0.652-0.418,1.102-0.824,1.406-0.777
	c0.516,0.082,0.566,0.461,1.027,0.488s0.73,0.137,1.137,0.324s0.891,0.27,1.109,0.109c0.215-0.16,0.164-0.242,0.594-0.16
	c0.434,0.082,1.109,0.73,1.109,0.73c0.055-0.648-1.055-1.297-1.055-1.297s0,0,0.516-0.027C26.704,53.917,27.22,54.081,27.22,54.081z
	"/>
<path fill="#17803F" d="M7.888,10.413c0,0,1.266,0.215,1.785,0.129c0.516-0.086,0.73-0.129,1.051,0.105
	c0.145,0.105,0.137,0.414,0.043,0.43c-0.344,0.066-0.301,0.41-0.688,0.344s-0.773-0.238-0.773-0.238s-0.75-0.191-0.688,0.086
	c0.066,0.277,0.066,0.277,0.066,0.277s-0.645-0.234-0.797-0.664V10.413z M8.79,4.655C8.919,4.589,9.177,4.12,9.735,4.12
	s0.73,0.453,1.141,0.965c0.406,0.516,1.098,0.902,1.098,0.902s0,0-0.301,0.086s-0.707-0.578-1.031-0.859s-0.473-0.066-0.559,0.453
	c-0.086,0.516,0.578,0.926,0.258,1.828c-0.035,0.098-0.078,0.176-0.125,0.238c0,0,0.527-0.082,0.32,0.23
	c-0.02,0.031-1.332,0.887-1.332,0.887s-0.59,0.293-0.379-0.336l1.004-0.566C9.497,7.964,9.161,7.683,9.161,7.683
	S8.989,7.874,9.204,7.511c0.215-0.367,0.301-1.781,0.301-1.781s0,0-0.473-0.148C8.56,5.429,8.536,4.979,8.536,4.979
	S8.661,4.718,8.79,4.655z M12.271,6.651c0.281,0.066,0.754,1.012,0.602,1.91c-0.152,0.902-0.84,1.012-0.84,1.012
	s0.086,0.066,0.105,0.43c0.02,0.367-0.086,0.902-0.086,0.902s0,0-0.148-0.496s-1.652-1.145-1.652-1.145L9.97,8.624
	c0,0,0.496,0.449,1.375,0.602c0.883,0.152,1.008-0.172,1.18-0.453s0.066-0.578-0.105-1.031S12.271,6.651,12.271,6.651z
	 M13.466,5.694l0.164,0.23c0,0-0.441-0.004-0.824,0.297l-0.242,0.16l-0.086-0.258C12.478,6.12,12.872,5.761,13.466,5.694z
	 M7.329,10.003c0,0-0.602-0.43-0.707-1.055C6.517,8.327,6.517,8.327,6.517,8.327S5.978,8.069,6.021,7.53s0.344-0.688,0.344-0.688
	S5.978,7.335,6.622,8.046c0.645,0.707,0.453,0.797,0.707,1.18c0.062,0.098,0.121,0.16,0.172,0.199
	c0.117,0.004-0.258,0.031-0.234,0.188C7.31,9.917,7.329,10.003,7.329,10.003z M18.603,4.827c0,0,0.457-0.43,1.082-0.516
	s1.074-0.043,1.398-0.367s0.453-0.387,0.453-0.387s-0.066,0.797-0.773,0.988c-0.707,0.195-0.902,0.195-0.902,0.195
	s-0.109,0.625-0.516,0.645C18.931,5.405,18.509,5.405,18.603,4.827z M15.665,9.144c0.059,0.289-0.082,0.535-0.254,0.723
	c-0.121,0.297-0.477,0.371-0.477,0.371s0.262-0.141,0.477-0.371c0.043-0.102,0.055-0.23,0.016-0.395
	c-0.152-0.629-0.645-1.145-0.645-1.145C14.872,8.327,15.536,8.499,15.665,9.144z M8.825,15.05c0.219-0.973,0.062-2.98,0.062-2.98
	s0.375,1.445,1.82,0.566s1.289-1.383,1.414-1.758s0.25-0.566,0.504-0.473c0.25,0.094,0.441,0.344,0.848,0.281
	c0.41-0.062,0.91-0.25,0.973-0.344s0.406-0.375,0.25,0.219c-0.156,0.598,0.281,0.441,0.723-0.219s0.375-1.852-0.219-2.199
	c0,0,0.691,0.094,1.066-0.5c0,0,0.301-0.344,0.605-0.793c0.059-0.09,0.133-0.195,0.215-0.309c-0.039-0.18-0.062-0.508-0.062-0.508
	s-0.73,0.105-1.098-0.238c-0.363-0.344-0.234-1.055-0.234-1.055s-0.172,0.02-0.387-0.066s-0.668-0.902-0.73-1.227
	s0.043-0.453,0.109-0.496s-0.086,0.152,0.234,0.801c0.324,0.652,0.883,0.715,0.883,0.715s-0.066,0.266,0.215,0.918
	c0.277,0.648,0.945,0.316,1.012,0.316l0.25,0.582c0.301-0.402,0.621-0.797,0.633-0.754c0.129,0.516-0.363,1.246-0.621,1.59
	s-0.234,0.582,0.199,0.215c0.438-0.367,1.023-1.461,1.023-1.461s-0.043,0.19,0.086,0.578c0.129,0.387-0.621,1.227-0.859,1.633
	c-0.234,0.402-0.59,1.031-0.602,1.051c0.078,0.199,0.25,0.395,0.613,0.477c0.383,0.086,0.656,0.105,0.844,0.102
	c-0.016-0.309,0.016-0.746,0.016-0.746s-0.102,0-0.402-0.195c-0.301-0.191-0.363-0.535-0.363-0.535l0.086-0.215c0,0,0,0,0.234,0.398
	s0.559,0.355,0.559,0.355s0.363-0.945,0.824-1.266c0.246-0.172,0.559-0.359,0.617-0.391c-0.121,0.086-0.359,0.297-0.836,0.828
	c-0.598,0.664-0.371,2.734-0.129,3.116c0.109-0.046,0.215-0.081,0.215-0.081s0.41-0.16,0.656-1.129c0.246-0.965,0.48-1.738,0.977-2
	c0.156-0.082,0.332-0.109,0.504-0.113L20.13,5.823c0,0-0.379-0.293,0-0.336l2.141,2.367c0,0,0.086,0-0.73,0.367
	s-0.688,0.688-0.988,1.398c-0.301,0.707-0.066,1.246-1.137,1.504c-0.055,0.012-0.105,0.023-0.152,0.035
	c0.129,0.172,0.297,0.316,0.531,0.405c0,0,0.375-0.312,0.785,0c0.367,0.282,0.48,0.794,0.797,0.938
	c0.059-0.109,0.199-0.312,0.523-0.434c0.418-0.156,1.273-0.148,1.633-0.039c0.266,0.145,0.207-0.578,1.113-0.473
	c1.184,0.137,2.242,1.48,2.242,1.48s0.125-0.535,0.66-0.441c0.535,0.095,1.035,0.375,1.035,0.375s-0.41-1.035-1.129-1.383
	c0,0,0.598-0.406,1.477,0s1.066,0.566,1.066,0.566s-1.16-1.352-2.262-1.602c-1.098-0.25-1.285-0.062-1.285-0.062
	s-0.848-0.375-0.941-0.973s0.094-2.105-0.031-2.199s-1.004-0.062-1.004-0.062s1.477-1.695,2.262-1.758c0,0-0.598-0.156-1.066-0.031
	c-0.062,0.016-0.113,0.031-0.148,0.043c0.008-0.023-1.609,1.426-1.609,0.871c0-0.094,0.066-0.43,0.027-0.766
	c-0.109,0.082-0.223,0.18-0.348,0.297c-0.535,0.508-0.324,1.254-0.816,1.422c-0.496,0.172-0.797-0.945-0.797-0.945
	s0.516-0.195,0.676-1.004s-0.227-0.824-0.227-0.824l0.746-0.082c0.047-0.074,0.102-0.16,0.148-0.242
	c-0.199-0.242-0.551-0.609-0.961-0.789c-0.645-0.281-1.051-0.277-1.051-0.277s0.793-0.258,1.504-0.047
	c0.43,0.129,0.734,0.094,0.934,0.051c0.141-0.18,0.246-0.483,0.164-1.004c-0.188-1.191-0.816-1.883-1.316-1.945
	c-0.504-0.062-0.785,0.188-0.785,0.188s0.125-0.344-0.406-0.406c-0.535-0.062-0.816,0.312-1.383,0.375s-1.508,0.062-1.539,1.16
	c0,0-1.004-0.473-1.477,0.723c-0.469,1.191-0.629,1.664-0.629,1.664l-0.484-0.152c0,0-1.035-1.477-1.32-2.262
	c-0.27-0.75-0.711-1.323-1.406-1.375c0.145,0.199,0.383,0.598,0.336,1c0,0-0.66-0.566-1.098-0.473
	c-0.051,0.012-0.035,0.57-0.062,0.816c-0.031,0.281-0.566-0.125-0.754,0.879s-0.062,2.605-0.062,2.637s-0.723-0.406-1.004-0.754
	C10.239,3.901,9.044,3.679,8.606,4.37c0,0-1.508-0.25-1.945,0.5C6.489,5.167,6.442,5.314,6.45,5.39
	C6.196,5.327,5.677,5.28,5.376,5.812C4.97,6.534,5.188,7.851,5.188,7.851S4.06,8.007,3.493,7.976
	C3.38,7.968,3.228,7.983,3.063,8.015c0.012,0.016,0.016,0.039-0.008,0.07c0,0-0.754,0.945,0,1.504c0.75,0.559,1.719,0,1.719,0
	s-0.195,0.902,0.75,1.387s1.246,0.375,1.246,0.375l0.859-0.148c0,0-0.453,0.277-0.965,0.344c-0.516,0.066-1.16-0.043-1.676-0.57
	s-0.473-0.934-0.535-0.977S3.38,10.253,2.907,9.823C2.435,9.397,2.243,8.495,2.521,8.214c0.027-0.027,0.051-0.047,0.078-0.066
	c-0.527,0.199-1.004,0.574-0.77,1.117c0.379,0.879,0.785,0.973,0.504,1.352s-0.594,0.441-0.312,1.004
	c0.281,0.566,0.691,0.473,0.629,0.973c-0.062,0.504-0.598,0.312-0.441,0.91c0.09,0.336,0.309,0.484,0.508,0.656
	c0.273-0.082,0.891-0.281,1.645-0.637c1.02-0.484,1.41,0.34,1.41,0.34s0.195,0.922,0.727,1.359c0.535,0.438,1.047,0.355,1.047,0.355
	C7.38,15.487,8.606,16.022,8.825,15.05z"/>
</svg>
