<?xml version="1.0" encoding="utf-8"?>
<!-- Generator: Adobe Illustrator 16.0.4, SVG Export Plug-In . SVG Version: 6.00 Build 0)  -->
<!DOCTYPE svg PUBLIC "-//W3C//DTD SVG 1.0//EN" "http://www.w3.org/TR/2001/REC-SVG-20010904/DTD/svg10.dtd">
<svg version="1.0" id="Layer_1" xmlns="http://www.w3.org/2000/svg" xmlns:xlink="http://www.w3.org/1999/xlink" x="0px" y="0px"
	 width="65.139px" height="79.654px" viewBox="0 0 65.139 79.654" enable-background="new 0 0 65.139 79.654" xml:space="preserve">
<path fill="#29A529" d="M30.778,19.359c0-0.293-0.09-0.828-0.184-1.105l-3.328-9.688H5.688L2.36,18.254
	c-0.094,0.277-0.185,0.812-0.185,1.105v44.082h9.999l0.253-16.705l18.354-5.083V19.359H30.778z M5.868,2.176v4.966h21.215V2.176
	H5.868z M32.954,19.359v22.21l-3.942,0.667c0,1.012-15.488,4.333-16.5,4.333l-0.333,19.047H1.837c-1.012,0-1.836-0.824-1.836-1.836
	V19.359c0-0.531,0.129-1.312,0.306-1.812l3.391-9.875V1.086C3.696,0.484,4.185,0,4.782,0h23.391c0.603,0,1.086,0.488,1.086,1.086
	v6.582l3.392,9.875C32.825,18.047,32.954,18.828,32.954,19.359z M28.888,18.609c0,0.395-0.32,0.711-0.711,0.711H4.782
	c-0.395,0-0.711-0.32-0.711-0.711c0-0.396,0.32-0.711,0.711-0.711h23.391C28.567,17.895,28.888,18.215,28.888,18.609z"/>
<path fill="#29A529" d="M13.172,78.112h50.426V47.469H13.172V78.112z M64.364,79.654H12.401c-0.425,0-0.771-0.347-0.771-0.771
	V46.699c0-0.424,0.348-0.771,0.771-0.771h51.966c0.424,0,0.771,0.348,0.771,0.771v32.184C65.135,79.307,64.791,79.654,64.364,79.654
	z"/>
<path fill="#29A529" d="M12.397,47.469c-0.348,0-0.661-0.233-0.748-0.587c-0.104-0.415,0.149-0.832,0.564-0.932l41.93-10.333
	c0.264-0.063,0.546,0.016,0.734,0.212l10.037,10.333c0.296,0.305,0.29,0.793-0.016,1.089c-0.305,0.295-0.793,0.289-1.089-0.016
	l-9.729-10.015L12.584,47.447C12.523,47.463,12.459,47.469,12.397,47.469z"/>
<path fill="#29A529" d="M18.699,70.696c-0.661,0-1.197,0.536-1.197,1.198s0.536,1.197,1.197,1.197c0.662,0,1.198-0.536,1.198-1.197
	C19.897,71.235,19.361,70.696,18.699,70.696z M18.699,74.633c-1.509,0-2.739-1.229-2.739-2.739s1.23-2.74,2.739-2.74
	c1.51,0,2.74,1.229,2.74,2.74C21.439,73.403,20.212,74.633,18.699,74.633z"/>
<path fill="#29A529" d="M30.484,51.186c-2.833,0-5.136,2.303-5.136,5.133s2.303,5.133,5.136,5.133c2.83,0,5.133-2.303,5.133-5.133
	S33.314,51.186,30.484,51.186z M30.484,62.997c-3.681,0-6.678-2.994-6.678-6.674c0-3.681,2.997-6.675,6.678-6.675
	s6.675,2.994,6.675,6.675C37.159,60.003,34.165,62.997,30.484,62.997z"/>
<path fill="#29A529" d="M46.624,68.004c-1.603,0-2.906,1.304-2.906,2.907c0,1.6,1.305,2.904,2.906,2.904
	c1.604,0,2.907-1.305,2.907-2.904C49.528,69.307,48.224,68.004,46.624,68.004z M46.624,75.356c-2.453,0-4.448-1.995-4.448-4.446
	c0-2.454,1.995-4.448,4.448-4.448c2.454,0,4.449,1.995,4.449,4.448C51.069,73.361,49.075,75.356,46.624,75.356z"/>
<path fill="#29A529" d="M54.108,55.144c-0.822,0-1.49,0.668-1.49,1.489c0,0.822,0.668,1.494,1.49,1.494s1.493-0.668,1.493-1.494
	C55.599,55.812,54.931,55.144,54.108,55.144z M54.108,59.669c-1.674,0-3.032-1.361-3.032-3.035c0-1.673,1.362-3.031,3.032-3.031
	c1.673,0,3.035,1.361,3.035,3.031C57.141,58.307,55.781,59.669,54.108,59.669z"/>
</svg>
