<?xml version="1.0" encoding="utf-8"?>
<!-- Generator: Adobe Illustrator 16.0.4, SVG Export Plug-In . SVG Version: 6.00 Build 0)  -->
<!DOCTYPE svg PUBLIC "-//W3C//DTD SVG 1.0//EN" "http://www.w3.org/TR/2001/REC-SVG-20010904/DTD/svg10.dtd">
<svg version="1.0" id="Layer_1" xmlns="http://www.w3.org/2000/svg" xmlns:xlink="http://www.w3.org/1999/xlink" x="0px" y="0px"
	 width="62.157px" height="54.374px" viewBox="0 0 62.157 54.374" enable-background="new 0 0 62.157 54.374" xml:space="preserve">
<path fill="#17803F" d="M27.992,30.295c-0.051-0.277-0.191-0.855-0.191-0.855l-0.359-0.695l-0.465-0.469
	c0,0-0.324-0.238-0.508-0.344c-0.082-0.047-0.5-0.297-0.824,0.047c-0.305,0.312-0.137,0.672-0.102,0.746
	c0.078,0.156,0.406,0.926,0.406,0.926l0.258,0.496c0,0,0.152,0.461,0.219,0.609c0.039,0.172,0.129,0.368,0.211,0.535
	c0,0,0,0,0,0.004c-0.234,0.152-0.469,0.305-0.715,0.441c-0.012-0.074-0.285-0.684-0.285-0.684l-0.371-0.359
	c0,0-0.266-0.18-0.418-0.254c-0.066-0.031-0.41-0.215-0.746,0.113c-0.316,0.301-0.234,0.582-0.215,0.641
	c0.047,0.121,0.223,0.703,0.223,0.703s0.203,0.48,0.238,0.601c-0.598,0.25-1.211,0.466-1.84,0.646
	c0.031-0.195,0.082-0.613,0.082-0.613l-0.098-0.543l-0.25-0.395c0,0-0.199-0.215-0.32-0.309c-0.051-0.043-0.32-0.277-0.73-0.047
	c-0.383,0.207-0.395,0.469-0.391,0.52c0.004,0.113,0,0.645,0,0.645s0.059,0.625,0.074,0.719c0.004,0.121,0.047,0.285,0.082,0.398
	c-0.406,0.078-0.816,0.145-1.23,0.199l-0.082-0.441c0,0-0.102-0.238-0.184-0.355c-0.035-0.051-0.191-0.328-0.656-0.27
	c-0.434,0.047-0.543,0.238-0.562,0.281l-0.109,0.227l-0.125,0.262l-0.133,0.469c-1.102,0.051-2.203,0.031-3.281-0.062
	c-1.539-0.133-2.898-0.105-4.434,0.094c-0.613,0.094-1.211,0.242-1.789,0.449c-2.035,0.691-0.844-0.262-0.918-1.559
	c-0.258-4.477-3.746-7.883-4.32-12.406c-0.77-6.062,1.953-11.57,6.68-15.258c5.441-4.246,11.875-2.793,17.645-0.41
	c0.699,0.289,1.582,0.199,2.508-0.043c0.004,0.008,0.004,0.027,0.004,0.031c0.051,0.242,0.145,0.664,0.145,0.664
	s0.051,0.203,0.102,0.406c0.094,0.238,0.188,0.48,0.188,0.48s0.117,0.254,0.266,0.472c0.164,0.208,0.328,0.411,0.328,0.411
	c0.008-0.008,0.129,0.199,0.34,0.383c0.211,0.188,0.457,0.395,0.586,0.492c0.328,0.176,0.887,0.414,1.117,0.406
	c0.277,0.031,0.5,0.058,0.5,0.058s0.023,0,0.055,0c-0.586,0.993-1.023,2.021-0.809,3.106c0.977,5.021,0.852,8.879-1.086,13.344
	l-0.668-0.336c0,0-0.332-0.07-0.512-0.082c-0.078-0.008-0.488-0.047-0.664,0.391c-0.168,0.402,0.047,0.641,0.09,0.684
	c0.098,0.098,0.543,0.59,0.543,0.59s0.375,0.344,0.434,0.414c-0.223,0.43-0.473,0.836-0.73,1.223c-0.09-0.219-0.176-0.41-0.176-0.41
	l-0.508-0.684l-0.57-0.43c0,0-0.383-0.207-0.598-0.297c-0.094-0.039-0.578-0.242-0.844,0.145c-0.25,0.355,0.008,0.715,0.059,0.785
	c0.113,0.156,0.629,0.93,0.629,0.93l0.371,0.505c0,0,0.438,0.815,0.488,0.905C28.707,29.635,28.359,29.982,27.992,30.295z
	 M35.379,3.166c0.773,1.48-0.234,2.926-1.23,4.441c-0.055-0.043-0.562-0.383-0.762-0.512c-0.242-0.129-0.297-0.289-0.5-0.391
	c-0.164-0.152-0.578-0.652-0.551-0.68l-0.801-1.172c0,0-0.23-0.332-0.395-0.547C32.898,3.678,34.605,2.83,35.379,3.166z
	 M36.676,16.057c-0.027-3.898-1.781-5.641,1.188-9.176c1.422-1.691,1.375-3,0.363-4.766c-0.016-0.184-0.133-0.371-0.352-0.539
	c-0.102-0.105-0.223-0.18-0.359-0.238c-1.316-0.816-2.375-0.91-3.969-0.508c-0.633,0.16-1.18,0.633-1.703,0.984
	c-2.305,1.551-5-0.074-7.16-0.828c-5.293-1.855-10.965-1.023-15.734,1.91c-4.695,2.887-7.664,7.422-8.703,12.793
	c-0.465,2.398-0.223,5.191,0.32,7.551c0.922,4.016,4.406,7.062,3.656,11.367c-0.23,1.316,0.281,2.285,1.672,2.559
	c0.648,0.129,1.516-0.164,2.082-0.277c2.426-0.488,4.328-0.922,6.852-0.703c5.617,0.488,10.371-0.832,14.961-4.258
	C34.461,28.443,36.719,21.646,36.676,16.057z"/>
<path fill="#17803F" d="M59.242,43.17c-0.363,3.621-3.438,5.961-6.621,7.309l-0.25-0.758c0,0-0.184-0.277-0.316-0.402
	c-0.047-0.055-0.332-0.367-0.75-0.145c-0.391,0.195-0.398,0.48-0.402,0.547c0.012,0.125-0.027,0.754-0.027,0.754
	s0.035,0.52,0.035,0.633c-0.152,0.047-0.301,0.098-0.449,0.14c-0.305,0.091-0.621,0.169-0.938,0.247
	c0.031-0.16,0.07-0.473,0.078-0.656c0.012-0.184-0.008-0.379-0.008-0.379l-0.18-0.625c0,0-0.16-0.363-0.301-0.543
	c-0.043-0.078-0.344-0.5-0.77-0.273c-0.387,0.184-0.402,0.52-0.406,0.594c0.016,0.145-0.078,0.93-0.078,0.93l-0.02,0.547
	c0,0-0.008,0.125-0.02,0.27c-0.023,0.145-0.062,0.453-0.062,0.48c-0.484,0.074-0.973,0.129-1.465,0.168
	c0-0.009,0.004-0.016,0.008-0.023c0.039-0.215,0.055-0.402,0.055-0.402l-0.004-0.848l-0.152-0.707c0,0-0.172-0.426-0.285-0.641
	c-0.027-0.086-0.309-0.617-0.75-0.434c-0.402,0.16-0.434,0.559-0.445,0.673c-0.008,0.19-0.027,0.522-0.027,0.522l-0.078,0.668v0.703
	c0,0-0.023,0.492-0.031,0.566c-0.57,0-1.141-0.027-1.715-0.078c0.016-0.035,0.207-0.449,0.285-0.656
	c0.074-0.211,0.188-0.598,0.234-0.809c0.035-0.215,0.066-0.43,0.066-0.43l-0.051-0.737c0,0-0.078-0.446-0.172-0.681
	c-0.027-0.102-0.211-0.645-0.68-0.555c-0.422,0.066-0.516,0.504-0.539,0.594c-0.02,0.191-0.121,0.515-0.121,0.515l-0.168,0.638
	l-0.133,0.68c0,0-0.148,0.609-0.219,0.81c-0.027,0.132-0.059,0.28-0.086,0.429c-0.555-0.094-1.109-0.203-1.648-0.348
	c0.027-0.062,0.398-0.93,0.398-0.93l0.219-0.625c0,0,0.129-0.906,0.141-1.113c-0.004-0.105,0.07-0.48-0.285-0.781
	c-0.344-0.281-0.754,0.133-0.789,0.203c-0.125,0.168-0.348,0.465-0.348,0.465l-0.352,0.613l-0.246,0.691c0,0-0.25,0.926-0.254,0.977
	c-0.602-0.23-1.188-0.496-1.746-0.801c0.098-0.121,0.191-0.254,0.281-0.414c0.051-0.102,0.531-0.734,0.531-0.734l0.434-0.613
	c0,0,0.363-0.66,0.422-0.777c0.062-0.109,0.141-0.241,0.199-0.348c0.043-0.102,0.32-0.48,0.086-0.879
	c-0.234-0.379-0.82-0.098-0.898-0.027c-0.105,0.07-0.723,0.535-0.887,0.672c-0.16,0.141-0.305,0.301-0.305,0.301
	s-0.137,0.18-0.273,0.355c-0.145,0.172-0.352,0.547-0.477,0.746c-0.133,0.199-0.25,0.438-0.289,0.57
	c-0.039,0.102-0.074,0.219-0.113,0.336c-0.406-0.297-0.789-0.629-1.156-0.977c0.141-0.172,0.328-0.324,0.453-0.547
	c0.086-0.121,0.395-0.434,0.395-0.434l0.551-0.777c0,0,0.137-0.254,0.207-0.418c0.031-0.07,0.219-0.367,0.004-0.777
	c-0.211-0.391-0.668-0.238-0.734-0.199c-0.164,0.086-0.453,0.234-0.453,0.234l-0.523,0.367l-0.445,0.52c0,0-0.477,0.824-0.488,0.875
	c-0.07-0.09-0.148-0.172-0.219-0.266c-0.34-0.469-0.617-0.961-0.844-1.461c0.008,0,0.02-0.004,0.027-0.004
	c0.152-0.027,0.32,0.035,0.48-0.016l0.324-0.062l0.266-0.125l0.199-0.219c0,0,0.109-0.156,0.188-0.266
	c0.027-0.047,0.184-0.238,0.086-0.691c-0.098-0.43-0.391-0.473-0.441-0.473c-0.109,0-0.316-0.003-0.316-0.003l-0.391,0.046
	l-0.383,0.176c0,0-0.355,0.18-0.469,0.285c-0.012,0.008-0.02,0.023-0.031,0.035c-0.766-2.953,0.125-6.169,2.047-8.625
	c1.859-2.383,5.879-7.371,8.773-8.066c1.938,0.508,3.672,2.012,5.68,2.52c2.828,0.715,5.23,1.285,7.559,3.168
	C58.336,35.518,59.605,39.537,59.242,43.17z M55.441,29.624c-1.777-0.903-3.594-1.403-5.527-1.853
	c-2.281-0.531-4.078-1.977-6.238-2.645c-0.156-0.152-0.41-0.227-0.773-0.195c-0.25-0.02-0.492,0.031-0.719,0.141
	c-4.242,1.008-6.246,4.438-9.234,7.477c-2.773,2.825-5.164,6.289-4.707,10.484c1.043,9.578,10.586,11.934,18.789,11.223
	c7.746-0.672,15.656-5.789,15.098-14.309C61.863,35.795,59.164,31.514,55.441,29.624z"/>
<path fill="#17803F" d="M55.316,38.936c-0.105-0.617-0.285-1.285-0.367-1.492c-0.078-0.211-0.184-0.488-0.289-0.77
	c-0.258-0.55-0.609-1.211-0.73-1.383c-0.121-0.164-1.191-1.266-1.191-1.266c0.027-0.028-0.953-0.758-1.492-1.098
	c-0.234-0.16-1.422-0.816-1.695-0.445c-0.27,0.359,0.867,1.293,1.023,1.473c0.414,0.395,1.066,1.066,1.047,1.09
	c0,0,0.297,0.363,0.598,0.723c0.277,0.363,0.418,0.729,0.438,0.727c0,0,0.203,0.441,0.406,0.883c0.086,0.23,0.34,0.93,0.34,0.93
	s0.109,0.422,0.238,0.914c0.082,0.5,0.172,1.078,0.18,1.387c0.078,0.672,0.141,1.512,0.148,2.148
	c0.016,0.625-0.016,1.145-0.016,1.145s-0.066,1.852,0.309,1.914c0.293,0.047,0.516-0.645,0.73-1.496
	c0.277-1.008,0.527-2.148,0.465-3.711c-0.008-0.176-0.02-0.434-0.031-0.727C55.391,39.576,55.355,39.244,55.316,38.936z"/>
<path fill="#17803F" d="M29.203,10.881c0.086-0.27,0.184-0.531,0.098-0.789c-0.086-0.461-0.531-0.797-0.793-0.852
	c-0.266-0.078-0.434-0.059-0.434-0.059s-0.18-0.016-0.547,0.105c-0.18,0.047-0.414,0.168-0.672,0.32
	c-0.266,0.156-0.539,0.371-0.746,0.52c-0.617,0.414-1.438,0.965-2.262,1.516c-0.867,0.488-1.77,0.93-2.43,1.285
	c-0.328,0.172-1.578,0.785-2.164,1.117c-0.574,0.352-1.355,0.793-2.082,1.324c-0.371,0.246-0.738,0.512-1.074,0.801
	c-0.332,0.277-0.656,0.523-0.887,0.785c-0.242,0.25-0.781,0.848-0.781,0.848s-0.172,0.215-0.453,0.571
	c-0.145,0.167-0.625,0.937-0.715,1.077c-0.078,0.173-0.16,0.352-0.242,0.539c0,0-0.32,0.816-0.383,0.973
	c-0.129,0.309-0.211,0.637-0.375,0.941c-0.316,0.609-0.578,1.215-0.863,1.699c-0.246,0.43-0.977,1.711-1.672,2.93
	c-0.684,1.203-1.266,2.328-1.07,2.457c0.18,0.125,1.047-0.906,1.93-2.07c0.871-1.18,1.738-2.52,2.008-2.93
	c0.285-0.508,0.613-1.102,0.953-1.707c0.141-0.328,0.281-0.656,0.422-0.98c0.137-0.32,0.281-0.679,0.383-0.84
	c0.051-0.102,0.621-0.977,0.742-1.113c0.238-0.273,0.383-0.441,0.383-0.441s0.277-0.344,0.758-0.784
	c0.223-0.243,0.531-0.47,0.855-0.716c0.309-0.254,0.688-0.5,1.07-0.742c0.742-0.508,1.555-0.919,2.141-1.25
	c0.602-0.285,1.445-0.703,2.109-1.042c0.668-0.364,1.586-0.79,2.453-1.317c0.848-0.57,1.695-1.137,2.332-1.566l0.125-0.09
	l0.004,0.004c-0.121,0.352-0.289,0.832-0.469,1.352c-0.695,1.887-1.75,3.961-2.258,5.004c-0.281,0.59-0.582,1.215-0.887,1.852
	c-0.168,0.289-0.34,0.578-0.512,0.871l-0.582,0.852c-0.203,0.277-0.422,0.535-0.629,0.801c-0.219,0.246-0.418,0.445-0.652,0.676
	c-0.531,0.449-1.047,0.887-1.527,1.293c-0.484,0.406-0.93,0.801-1.34,1.129c-0.414,0.305-2.438,1.715-2.965,2.055
	c-0.516,0.348-1.281,0.77-2,1.223c-1.465,0.895-2.898,1.848-2.824,2.023c0.109,0.266,2.5-0.863,5.375-2.348
	c1.77-0.918,3.426-2.082,5.098-3.398c0.426-0.34,0.859-0.641,1.316-1.035c0.488-0.422,0.883-0.891,1.293-1.375
	c0.793-0.98,1.496-2.184,2.086-3.445c0.543-1.129,1.734-3.297,2.516-5.352C28.41,13.451,29.121,11.154,29.203,10.881z"/>
<path fill="#17803F" d="M10.805,10.85c0.367-0.32,1.066-0.859,1.449-1.137c0.418-0.246,1.352-0.816,1.527-0.918
	c0.355-0.207,1.543-0.793,2.125-0.973c0.234-0.09,1.434-0.496,1.336-0.953c-0.094-0.43-1.422-0.258-1.668-0.223
	c-0.523,0.047-1.566,0.328-1.566,0.328L12.164,7.74c0,0-0.453,0.254-0.898,0.531C10.836,8.584,10.402,8.9,10.402,8.9
	c-0.035-0.043-1.422,1.328-1.754,1.852c-0.234,0.27-0.414,0.629-0.613,0.961c-0.094,0.168-0.422,0.867-0.488,1.034
	c-0.129,0.337-0.352,1.118-0.352,1.118s-0.391,1.672-0.031,1.805c0.277,0.105,0.617-0.48,0.973-1.211
	c0.418-0.953,0.914-1.57,1.734-2.633C10.078,11.631,10.426,11.154,10.805,10.85z"/>
</svg>
