<?xml version="1.0" encoding="utf-8"?>
<!-- Generator: Adobe Illustrator 16.0.4, SVG Export Plug-In . SVG Version: 6.00 Build 0)  -->
<!DOCTYPE svg PUBLIC "-//W3C//DTD SVG 1.0//EN" "http://www.w3.org/TR/2001/REC-SVG-20010904/DTD/svg10.dtd">
<svg version="1.0" id="Layer_1" xmlns="http://www.w3.org/2000/svg" xmlns:xlink="http://www.w3.org/1999/xlink" x="0px" y="0px"
	 width="52.121px" height="72.223px" viewBox="0 0 52.121 72.223" enable-background="new 0 0 52.121 72.223" xml:space="preserve">
<path fill="#17803F" d="M5.398,2.25c-1.726,0-3.148,1.426-3.148,3.148V66.75c0,1.727,1.426,3.148,3.148,3.148h41.324
	c1.727,0,3.149-1.426,3.149-3.148V5.398c0-1.727-1.426-3.148-3.149-3.148H5.398z M46.722,72.223H5.398
	C2.472,72.223,0,69.824,0,66.824V5.398C0,2.398,2.398,0,5.398,0h41.324c2.926,0,5.399,2.398,5.399,5.398V66.75
	C52.051,69.75,49.648,72.223,46.722,72.223z"/>
<rect x="12.523" y="60.223" fill="#17803F" width="2.25" height="0.75"/>
<rect x="15.676" y="60.223" fill="#17803F" width="1.125" height="0.75"/>
<rect x="17.625" y="60.223" fill="#17803F" width="2.25" height="0.823"/>
<rect x="20.847" y="60.223" fill="#17803F" width="2.25" height="0.75"/>
<rect x="24.75" y="60.223" fill="#17803F" width="1.125" height="0.75"/>
<rect x="26.023" y="60.223" fill="#17803F" width="2.25" height="0.75"/>
<rect x="29.176" y="60.223" fill="#17803F" width="2.25" height="0.75"/>
<rect x="32.324" y="60.223" fill="#17803F" width="1.125" height="0.75"/>
<rect x="34.426" y="60.223" fill="#17803F" width="2.25" height="0.75"/>
<rect x="37.574" y="60.223" fill="#17803F" width="2.25" height="0.75"/>
<rect x="40.722" y="60.223" fill="#17803F" width="1.125" height="0.75"/>
<rect x="42.75" y="62.473" fill="#17803F" width="2.25" height="0.75"/>
<rect x="18.222" y="62.551" fill="#17803F" width="1.574" height="0.824"/>
<rect x="14.699" y="62.551" fill="#17803F" width="1.574" height="0.824"/>
<rect x="11.176" y="62.551" fill="#17803F" width="3" height="0.824"/>
<rect x="26.551" y="62.551" fill="#17803F" width="1.574" height="0.824"/>
<rect x="23.023" y="62.551" fill="#17803F" width="1.574" height="0.824"/>
<rect x="21" y="62.551" fill="#17803F" width="1.574" height="0.824"/>
<rect x="34.949" y="62.551" fill="#17803F" width="1.574" height="0.824"/>
<rect x="31.426" y="62.551" fill="#17803F" width="1.574" height="0.824"/>
<rect x="29.398" y="62.551" fill="#17803F" width="1.574" height="0.824"/>
<rect x="43.426" y="60.301" fill="#17803F" width="1.574" height="0.824"/>
<rect x="39.75" y="62.551" fill="#17803F" width="1.574" height="0.824"/>
<rect x="37.722" y="62.551" fill="#17803F" width="1.574" height="0.824"/>
<rect x="11.398" y="43.801" fill="#17803F" width="33.602" height="0.75"/>
<rect x="11.398" y="37.574" fill="#17803F" width="33.602" height="0.75"/>
<rect x="18.523" y="7.051" fill="#17803F" width="1.199" height="1.125"/>
<rect x="22.273" y="7.051" fill="#17803F" width="1.199" height="1.125"/>
<polygon fill="#17803F" points="40.949,8.625 40.949,7.051 39.375,7.051 39.375,8.625 34.801,8.625 34.801,6.375 30.824,6.375 
	30.824,8.625 29.926,8.625 29.926,9.973 30.824,9.973 30.824,12.598 45,12.598 45,8.625 "/>
<polygon fill="#17803F" points="21.75,8.625 21.75,7.051 20.25,7.051 20.25,8.625 15.597,8.625 15.597,7.051 13.051,7.051 
	13.051,8.625 12,8.625 12,12.598 27.898,12.598 27.898,8.625 "/>
<rect x="38.097" y="34.051" fill="#17803F" width="2.102" height="1.5"/>
<rect x="41.023" y="34.051" fill="#17803F" width="1.051" height="1.5"/>
<rect x="42.972" y="34.051" fill="#17803F" width="2.102" height="1.5"/>
<rect x="38.097" y="40.574" fill="#17803F" width="2.102" height="1.5"/>
<rect x="41.023" y="40.574" fill="#17803F" width="1.051" height="1.5"/>
<rect x="42.972" y="40.574" fill="#17803F" width="2.102" height="1.5"/>
<rect x="11.324" y="46.949" fill="#17803F" width="2.773" height="1.125"/>
<rect x="15.222" y="46.949" fill="#17803F" width="1.426" height="1.125"/>
<rect x="17.773" y="46.949" fill="#17803F" width="2.773" height="1.125"/>
<rect x="30.824" y="22.723" fill="#17803F" width="4.273" height="0.823"/>
<rect x="29.324" y="22.723" fill="#17803F" width="0.824" height="0.823"/>
<rect x="35.699" y="22.723" fill="#17803F" width="0.824" height="0.823"/>
<rect x="39.222" y="22.723" fill="#17803F" width="4.273" height="0.823"/>
<rect x="37.722" y="22.723" fill="#17803F" width="0.824" height="0.823"/>
<rect x="44.176" y="22.723" fill="#17803F" width="0.824" height="0.823"/>
<rect x="12.074" y="14.324" fill="#17803F" width="15.824" height="2.25"/>
<rect x="31.051" y="14.324" fill="#17803F" width="3.074" height="2.25"/>
<rect x="39.824" y="46.723" fill="#17803F" width="5.176" height="1.5"/>
<rect x="11.176" y="41.023" fill="#17803F" width="5.176" height="0.602"/>
<rect x="18.75" y="41.023" fill="#17803F" width="7.574" height="0.602"/>
<rect x="31.426" y="27.824" fill="#17803F" width="7.5" height="2.25"/>
<rect x="27.449" y="27.824" fill="#17803F" width="2.477" height="2.25"/>
<rect x="6.676" y="17.926" fill="#17803F" width="38.477" height="1.574"/>
<rect x="6.676" y="52.051" fill="#17803F" width="38.477" height="1.574"/>
<rect x="6.676" y="64.648" fill="#17803F" width="2.102" height="0.75"/>
<rect x="10.875" y="64.648" fill="#17803F" width="0.676" height="0.75"/>
<rect x="12.449" y="64.648" fill="#17803F" width="2.102" height="0.75"/>
<rect x="14.625" y="64.648" fill="#17803F" width="2.102" height="0.75"/>
<rect x="17.625" y="64.648" fill="#17803F" width="1.051" height="0.75"/>
<rect x="19.5" y="64.648" fill="#17803F" width="2.102" height="0.75"/>
<rect x="22.426" y="64.648" fill="#17803F" width="2.102" height="0.75"/>
<rect x="25.426" y="64.648" fill="#17803F" width="1.051" height="0.75"/>
<rect x="27.301" y="64.648" fill="#17803F" width="2.102" height="0.75"/>
<rect x="31.051" y="64.648" fill="#17803F" width="2.102" height="0.75"/>
<rect x="33.222" y="64.648" fill="#17803F" width="1.051" height="0.75"/>
<rect x="35.097" y="64.648" fill="#17803F" width="2.102" height="0.75"/>
<rect x="38.097" y="64.648" fill="#17803F" width="2.102" height="0.75"/>
<rect x="41.023" y="64.648" fill="#17803F" width="1.051" height="0.75"/>
<rect x="42.898" y="64.648" fill="#17803F" width="2.102" height="0.75"/>
<rect x="6.676" y="24.898" fill="#17803F" width="38.477" height="1.574"/>
<rect x="6.676" y="31.125" fill="#17803F" width="38.477" height="0.75"/>
<rect x="6.676" y="57.824" fill="#17803F" width="38.477" height="0.75"/>
<polygon fill="#17803F" points="44.25,28.426 43.722,27.449 42.898,27.898 42.898,27.148 41.773,27.148 41.773,27.898 
	41.023,27.449 40.426,28.426 41.25,28.875 40.426,29.324 41.023,30.301 41.773,29.848 41.773,30.598 42.898,30.598 42.898,29.848 
	43.722,30.301 44.25,29.324 43.426,28.875 "/>
<polygon fill="#17803F" points="9.75,60 8.847,60.598 8.847,59.699 7.648,59.699 7.722,60.598 6.75,60 6.148,61.051 7.125,61.574 
	6.148,62.098 6.75,63.074 7.722,62.551 7.648,63.449 8.847,63.449 8.847,62.551 9.75,63.074 10.347,62.098 9.375,61.574 
	10.347,61.051 "/>
<rect x="6.676" y="6.375" fill="#17803F" width="4.648" height="6.301"/>
<rect x="6.676" y="54.824" fill="#17803F" width="3.227" height="1.5"/>
<rect x="11.25" y="54.824" fill="#17803F" width="1.574" height="1.5"/>
<rect x="14.176" y="54.824" fill="#17803F" width="3.227" height="1.5"/>
<rect x="6.676" y="22.574" fill="#17803F" width="3.227" height="1.125"/>
<rect x="11.25" y="22.574" fill="#17803F" width="1.574" height="1.125"/>
<rect x="14.176" y="22.574" fill="#17803F" width="3.227" height="1.125"/>
<rect x="6.676" y="34.051" fill="#17803F" width="3.227" height="1.5"/>
<rect x="11.25" y="34.051" fill="#17803F" width="1.574" height="1.5"/>
<rect x="14.176" y="34.051" fill="#17803F" width="3.227" height="1.5"/>
<rect x="6.676" y="14.324" fill="#17803F" width="3.074" height="2.25"/>
<rect x="6.676" y="20.551" fill="#17803F" width="4.199" height="1.125"/>
<rect x="12.75" y="20.551" fill="#17803F" width="2.102" height="1.125"/>
<rect x="16.574" y="20.551" fill="#17803F" width="4.199" height="1.125"/>
</svg>
