<?xml version="1.0" encoding="utf-8"?>
<!-- Generator: Adobe Illustrator 16.0.4, SVG Export Plug-In . SVG Version: 6.00 Build 0)  -->
<!DOCTYPE svg PUBLIC "-//W3C//DTD SVG 1.0//EN" "http://www.w3.org/TR/2001/REC-SVG-20010904/DTD/svg10.dtd">
<svg version="1.0" id="Layer_1" xmlns="http://www.w3.org/2000/svg" xmlns:xlink="http://www.w3.org/1999/xlink" x="0px" y="0px"
	 width="63.123px" height="58.426px" viewBox="0 0 63.123 58.426" enable-background="new 0 0 63.123 58.426" xml:space="preserve">
<path fill="#17803F" d="M17.225,44.176l1.199-3.301H22.1c0.602,0,1.125-0.523,1.125-1.125s-0.449-1.125-1.051-1.125h-4.5
	c-0.449,0-0.898,0.301-1.051,0.75l-0.301,0.824l-1.875-6.074c-0.148-0.375-0.449-0.676-0.824-0.75s-0.824,0.074-1.051,0.375
	l-0.523,0.602c-1.051,1.273-1.727,2.852-1.801,4.574H9.799l-1.125-2.25c-0.148-0.375-0.523-0.602-0.977-0.602
	c-0.449,0-0.75,0.148-0.977,0.523l-1.5,2.324H3.271c-0.602,0-1.125,0.523-1.125,1.125s0.523,1.125,1.125,1.125h2.551
	c0.375,0,0.75-0.227,0.977-0.523l0.75-1.199l0.602,1.125c0.227,0.375,0.602,0.602,0.977,0.602h2.25c0.301,0,0.602-0.148,0.824-0.375
	c0.227-0.227,0.301-0.523,0.301-0.824c-0.074-0.977,0.074-2.023,0.523-2.926l2.176,7.125c0.148,0.449,0.523,0.75,1.051,0.824l0,0
	C16.697,44.926,17.072,44.625,17.225,44.176z M24.197,46.875l7.352,7.352l23.773-23.852c3-3,4.727-7.051,4.727-11.398
	c0-4.273-1.648-8.324-4.727-11.398c-3-3-7.051-4.727-11.398-4.727c-4.352,0-8.324,1.648-11.398,4.727l-0.977,1.121l-1.051-1.051
	c-3-3-7.051-4.727-11.324-4.727l0,0C14.9,2.922,10.85,4.57,7.85,7.648C2.076,13.422,1.549,22.5,6.498,28.875
	c2.25-1.727,4.949-2.625,7.727-2.625c7.051,0,12.75,5.699,12.75,12.75C26.9,41.852,25.998,44.625,24.197,46.875z M31.549,58.426
	L19.998,46.875l1.051-1.051c1.801-1.875,2.852-4.273,2.852-6.898c0-5.398-4.352-9.75-9.75-9.75c-2.551,0-5.023,0.977-6.824,2.852
	l-1.125,1.125L5.15,32.027C-1.9,24.453-1.674,12.828,5.6,5.551C9.201,1.949,13.998,0,19.1,0l0,0c4.574,0,8.926,1.648,12.449,4.574
	C34.998,1.574,39.35,0,43.998,0c5.102,0,9.898,1.949,13.5,5.625c3.602,3.602,5.625,8.398,5.625,13.5s-1.949,9.898-5.551,13.5
	L31.549,58.426z"/>
<path fill="#17803F" d="M17.225,44.176l1.199-3.301H22.1c0.602,0,1.125-0.523,1.125-1.125s-0.449-1.125-1.051-1.125h-4.5
	c-0.449,0-0.898,0.301-1.051,0.75l-0.301,0.824l-1.875-6.074c-0.148-0.375-0.449-0.676-0.824-0.75s-0.824,0.074-1.051,0.375
	l-0.523,0.602c-1.051,1.273-1.727,2.852-1.801,4.574H9.799l-1.125-2.25c-0.148-0.375-0.523-0.602-0.977-0.602
	c-0.449,0-0.75,0.148-0.977,0.523l-1.5,2.324H3.271c-0.602,0-1.125,0.523-1.125,1.125s0.523,1.125,1.125,1.125h2.551
	c0.375,0,0.75-0.227,0.977-0.523l0.75-1.199l0.602,1.125c0.227,0.375,0.602,0.602,0.977,0.602h2.25c0.301,0,0.602-0.148,0.824-0.375
	c0.227-0.227,0.301-0.523,0.301-0.824c-0.074-0.977,0.074-2.023,0.523-2.926l2.176,7.125c0.148,0.449,0.523,0.75,1.051,0.824l0,0
	C16.697,44.926,17.072,44.625,17.225,44.176z M24.197,46.875l7.352,7.352l23.773-23.852c3-3,4.727-7.051,4.727-11.398
	c0-4.273-1.648-8.324-4.727-11.398c-3-3-7.051-4.727-11.398-4.727c-4.352,0-8.324,1.648-11.398,4.727l-0.977,1.121l-1.051-1.051
	c-3-3-7.051-4.727-11.324-4.727l0,0C14.9,2.922,10.85,4.57,7.85,7.648C2.076,13.422,1.549,22.5,6.498,28.875
	c2.25-1.727,4.949-2.625,7.727-2.625c7.051,0,12.75,5.699,12.75,12.75C26.9,41.852,25.998,44.625,24.197,46.875z M31.549,58.426
	L19.998,46.875l1.051-1.051c1.801-1.875,2.852-4.273,2.852-6.898c0-5.398-4.352-9.75-9.75-9.75c-2.551,0-5.023,0.977-6.824,2.852
	l-1.125,1.125L5.15,32.027C-1.9,24.453-1.674,12.828,5.6,5.551C9.201,1.949,13.998,0,19.1,0l0,0c4.574,0,8.926,1.648,12.449,4.574
	C34.998,1.574,39.35,0,43.998,0c5.102,0,9.898,1.949,13.5,5.625c3.602,3.602,5.625,8.398,5.625,13.5s-1.949,9.898-5.551,13.5
	L31.549,58.426z"/>
</svg>
