<?xml version="1.0" encoding="utf-8"?>
<!-- Generator: Adobe Illustrator 16.0.4, SVG Export Plug-In . SVG Version: 6.00 Build 0)  -->
<!DOCTYPE svg PUBLIC "-//W3C//DTD SVG 1.0//EN" "http://www.w3.org/TR/2001/REC-SVG-20010904/DTD/svg10.dtd">
<svg version="1.0" id="Layer_1" xmlns="http://www.w3.org/2000/svg" xmlns:xlink="http://www.w3.org/1999/xlink" x="0px" y="0px"
	 width="90.441px" height="82.395px" viewBox="0 0 90.441 82.395" enable-background="new 0 0 90.441 82.395" xml:space="preserve">
<g>
	<path fill-rule="evenodd" clip-rule="evenodd" fill="#17803F" d="M51.931,70.055c-1.809,3.966-3.51,7.697-5.627,12.34
		c-2.065-4.479-3.81-8.264-5.838-12.662C25.761,74.984,12.799,69.176,0,61.978c30.113,8.427,60.248,9.272,90.441,0.241
		C81.718,70.159,68.05,72.732,51.931,70.055z"/>
	<path fill-rule="evenodd" clip-rule="evenodd" fill="#17803F" d="M54.475,59.834c3.973-2.635,7.947-5.271,11.92-7.906
		c0.511,0.362,1.022,0.725,1.533,1.086c-1.113,1.957-1.768,4.515-3.415,5.771c-10.344,7.89-26.479,7.841-36.835-0.06
		c-1.558-1.188-2.25-3.512-3.342-5.311c0.537-0.432,1.073-0.862,1.61-1.293c4.024,2.768,8.048,5.535,12.376,8.512
		c1.616-2.953,3.198-5.966,4.894-8.912c1.698-2.953,3.798-3.529,6.26-0.801c0.781,0.904,1.568,1.815,2.354,2.727
		C52.711,55.709,53.593,57.771,54.475,59.834z"/>
	<path fill-rule="evenodd" clip-rule="evenodd" fill="#17803F" d="M70.092,7.499c5.38,9.029-3.256,14.657-5.083,22.072
		c-2.662-4.257-5.31-8.199-7.593-12.342c-0.592-1.074-0.463-2.961,0.059-4.157c1.752-4.014,3.833-7.884,6.274-12.785
		c2.751,3.118,4.63,5.248,6.509,7.378L70.092,7.499z"/>
	<path fill-rule="evenodd" clip-rule="evenodd" fill="#17803F" d="M40.54,7.693c1.755-2.081,3.509-4.162,6.459-7.66
		c2.542,5.56,4.688,10.024,6.577,14.596c0.345,0.835-0.103,2.246-0.615,3.146c-2.183,3.834-4.527,7.575-6.744,11.238
		c-2.289-3.716-5.492-7.405-6.867-11.684c-0.908-2.826,0.813-6.496,1.357-9.789L40.54,7.693z"/>
	<path fill-rule="evenodd" clip-rule="evenodd" fill="#17803F" d="M74.967,17.361c2.094,4.348,4.284,8.654,6.196,13.08
		c0.352,0.813-0.177,2.256-0.715,3.162c-2.253,3.791-4.664,7.487-6.965,11.137c-2.167-3.539-4.725-7.156-6.62-11.093
		c-0.714-1.482-0.39-3.921,0.325-5.544c1.621-3.679,3.778-7.121,5.718-10.66C73.593,17.416,74.28,17.389,74.967,17.361z"/>
	<path fill-rule="evenodd" clip-rule="evenodd" fill="#17803F" d="M27.881,29.254c-2.225-3.584-4.65-7.309-6.852-11.16
		c-0.582-1.02-1.008-2.665-0.59-3.623c1.883-4.313,4.095-8.482,6.188-12.703c0.735-0.053,1.471-0.105,2.207-0.158
		c2.135,4.271,4.392,8.486,6.305,12.854c0.405,0.925-0.196,2.541-0.773,3.599C32.239,21.96,29.927,25.756,27.881,29.254z"/>
	<path fill-rule="evenodd" clip-rule="evenodd" fill="#17803F" d="M61.314,35.872c-2.011,2.845-4.023,5.688-5.979,8.455
		c-2.272-3.53-4.868-7.255-7.075-11.196c-0.583-1.042-0.37-2.938,0.171-4.127c1.794-3.942,3.903-7.742,5.972-11.75
		c7.24,5.52,9.609,12.909,6.729,18.79L61.314,35.872z"/>
	<path fill-rule="evenodd" clip-rule="evenodd" fill="#17803F" d="M19.904,18.011c2.055,4.228,4.229,8.404,6.074,12.722
		c0.417,0.975-0.004,2.604-0.568,3.646c-1.943,3.584-4.12,7.043-6.101,10.368c-2.349-3.63-4.964-7.34-7.172-11.277
		c-0.684-1.219-0.806-3.299-0.243-4.566c1.639-3.692,3.755-7.173,5.684-10.737C18.354,18.114,19.129,18.062,19.904,18.011z"/>
	<path fill-rule="evenodd" clip-rule="evenodd" fill="#17803F" d="M31.693,36.088c-3.243-6.021-1.278-12.693,6.427-19.032
		c2.251,4.789,4.455,9.247,6.393,13.818c0.345,0.813-0.186,2.229-0.709,3.14c-2.043,3.549-4.246,7.006-6.38,10.482
		c-1.853-2.686-3.877-5.619-5.906-8.559C31.513,35.934,31.693,36.088,31.693,36.088z"/>
	<path fill-rule="evenodd" clip-rule="evenodd" fill="#17803F" d="M34.466,51.682c-3.778,4.316-6.21-1.066-9.882-1.296
		c-0.55,1.163-1.198,2.53-1.845,3.896c-4.002-4.409-1.718-13.256,5.388-20.395c1.155,0.713,2.355,1.454,3.561,2.198
		c0.005,0.003-0.175-0.151-0.17-0.147c1.014,2.398,1.94,4.83,3.052,7.173c1.423,3,1.605,5.888-0.28,8.746L34.466,51.682z"/>
	<path fill-rule="evenodd" clip-rule="evenodd" fill="#17803F" d="M61.133,36.044c1.077-0.687,2.153-1.373,3.21-2.047
		c7.301,6.284,9.731,15.788,4.973,20.629c-0.532-1.466-1.013-2.789-1.656-4.558c-2.279,1.08-4.323,2.049-6.16,2.92
		c-5.51-2.826-4.994-6.859-2.779-11.32c0.942-1.896,1.738-3.865,2.597-5.799C61.314,35.872,61.133,36.044,61.133,36.044z"/>
	<path fill-rule="evenodd" clip-rule="evenodd" fill="#17803F" d="M51.829,53.646c-0.787-0.911-1.573-1.822-2.354-2.727
		c-1.027-1.225-2.06-2.457-3.449-4.115c-1.755,1.652-3.266,3.072-4.772,4.497c-3.939-3.255-1.91-10.568,4.779-17.202
		c5.814,3.774,8.838,12.074,6.841,18.773C52.525,53.131,52.177,53.389,51.829,53.646z"/>
	<path fill-rule="evenodd" clip-rule="evenodd" fill="#17803F" d="M70.258,7.665c0.675-2.329,1.35-4.658,2.103-7.258
		c8.05,4.81,11.112,15.637,5.886,20.945c-2.802-4.762-5.472-9.301-8.149-13.847C70.092,7.499,70.258,7.665,70.258,7.665z"/>
	<path fill-rule="evenodd" clip-rule="evenodd" fill="#17803F" d="M18.685,1.191c4.669,4.619,2.614,12.369-4.992,19.567
		C9.11,16.32,11.053,8.315,18.685,1.191z"/>
	<path fill-rule="evenodd" clip-rule="evenodd" fill="#17803F" d="M36.381,66.035c-11.215,1.13-19.246-4.242-26.798-10.82
		C18.342,58.752,27.101,62.287,36.381,66.035z"/>
	<path fill-rule="evenodd" clip-rule="evenodd" fill="#17803F" d="M55.54,66.128c8.964-3.572,17.496-6.973,26.027-10.372
		C74.409,62.664,66.26,67.043,55.54,66.128z"/>
	<path fill-rule="evenodd" clip-rule="evenodd" fill="#17803F" d="M55.512,12.825c-1.744-3.976-6.631-8.017-0.288-12.056
		C62.399,4.706,56.351,8.84,55.512,12.825z"/>
	<path fill-rule="evenodd" clip-rule="evenodd" fill="#17803F" d="M40.707,7.541c-1.285,1.814-2.569,3.629-3.801,5.369
		C32.438,4.662,32.438,4.662,37.986,0c0.948,2.878,1.744,5.293,2.547,7.701C40.54,7.693,40.707,7.541,40.707,7.541z"/>
	<path fill-rule="evenodd" clip-rule="evenodd" fill="#17803F" d="M51.829,53.646c0.348-0.258,0.696-0.516,1.044-0.773
		c1.001-0.826,2.002-1.654,3.409-2.817c1.155,1.384,2.246,2.69,3.232,3.872c-1.883,2.214-3.454,4.061-5.032,5.906
		C53.593,57.771,52.711,55.709,51.829,53.646z"/>
	<path fill-rule="evenodd" clip-rule="evenodd" fill="#17803F" d="M34.29,51.856c1.504-0.097,3.008-0.192,4.513-0.288
		c0,2.152,0,4.305,0,7.073c-3.799-1.812-6.26-3.205-4.337-6.958C34.466,51.682,34.29,51.856,34.29,51.856z"/>
</g>
</svg>
