<?xml version="1.0" encoding="utf-8"?>
<!-- Generator: Adobe Illustrator 16.0.4, SVG Export Plug-In . SVG Version: 6.00 Build 0)  -->
<!DOCTYPE svg PUBLIC "-//W3C//DTD SVG 1.0//EN" "http://www.w3.org/TR/2001/REC-SVG-20010904/DTD/svg10.dtd">
<svg version="1.0" id="Layer_1" xmlns="http://www.w3.org/2000/svg" xmlns:xlink="http://www.w3.org/1999/xlink" x="0px" y="0px"
	 width="66.562px" height="62.953px" viewBox="0 0 66.562 62.953" enable-background="new 0 0 66.562 62.953" xml:space="preserve">
<path fill-rule="evenodd" clip-rule="evenodd" fill="#17803F" d="M38.965,57.754c-0.41,0-0.41-0.637,0-0.637
	C39.375,57.122,39.375,57.754,38.965,57.754z M64.805,55.731c-0.047-0.133-0.078-0.27-0.098-0.41
	c-0.059-0.238-0.113-0.477-0.172-0.715c-0.004-0.004-0.004-0.008-0.004-0.008c-0.012-0.023-0.027-0.043-0.039-0.066
	c-0.004-0.008,0.004-0.012,0-0.016c-0.012-0.023-0.023-0.043-0.035-0.066c-0.027-0.035-0.047-0.066-0.082-0.098
	c-0.102-0.078-0.238-0.129-0.426-0.164c-0.297-0.051-0.578,0.008-0.867,0.074c-0.418,0.09-0.816,0.234-1.215,0.383
	c-0.012,0.008-0.027,0.012-0.039,0.016c-0.047,0.023-0.094,0.043-0.145,0.062c-0.09,0.043-0.18,0.09-0.273,0.117
	c-0.289,0.156-0.602,0.246-0.926,0.363c-0.203,0.074-0.422,0.137-0.637,0.191c-0.008,0.004-0.012,0.012-0.023,0.016
	c-0.023,0.004-0.047,0.012-0.066,0.016c-0.156,0.059-0.316,0.109-0.48,0.148c-0.059,0.023-0.121,0.043-0.188,0.047
	c-0.023,0.008-0.043,0.016-0.066,0.02c-0.664,0.121-1.332,0.141-2,0.059c-0.324-0.039-0.648-0.086-0.977-0.129
	c0.367-0.109,0.734-0.168,1.094-0.238c0.309-0.059,0.555-0.223,0.734-0.48c0.059-0.086,0.094-0.168,0.035-0.27
	c-0.129-0.23-0.25-0.465-0.398-0.688c-0.215-0.32-0.508-0.559-0.758-0.84c-0.301-0.336-0.652-0.594-1.066-0.75
	c-0.59-0.219-1.152-0.117-1.645,0.281c-0.66,0.527-1.484,0.777-2.141,1.309c-0.078,0.062-0.223,0.102-0.254-0.008
	c-0.102-0.367-0.328-0.234-0.539-0.16c-0.152,0.055-0.277,0.051-0.367-0.094c-0.027-0.043-0.047-0.089-0.07-0.133
	c-0.023-0.031-0.039-0.066-0.059-0.121c-0.004-0.008,0.004-0.012,0-0.016c-0.004-0.02,0-0.039,0.004-0.059
	c0.004-0.023,0.008-0.043,0.023-0.059c0.004-0.004,0.004-0.012,0.008-0.02c0.008-0.016,0.012-0.039,0.016-0.055
	c-0.18,0.031-0.238-0.066-0.277-0.195c-0.047-0.156-0.055-0.312-0.047-0.473c0.008-0.082,0.008-0.195-0.113-0.141
	c-0.047,0.023-0.098,0.031-0.145,0.035c-0.215,0.051-0.426,0.062-0.664-0.043c-0.098-0.043-0.098-0.137-0.047-0.207
	c0.004-0.008,0-0.012,0.004-0.02c0.047-0.164,0.133-0.312,0.227-0.477c-0.16-0.016-0.23,0.094-0.316,0.16
	c-0.332,0.246-0.664,0.121-0.746-0.293c-0.016-0.078,0.027-0.203-0.094-0.219c-0.105-0.016-0.176,0.078-0.238,0.148
	c-0.453,0.543-0.895,1.095-1.188,1.746c-0.035,0.078-0.055,0.172-0.152,0.222c-0.086-0.077-0.141-0.183-0.18-0.304
	c-0.004,0-0.004,0-0.004,0c-0.039,0.07-0.09,0.121-0.152,0.164c-0.086,0.098-0.191,0.172-0.301,0.254
	c-0.062,0.059-0.117,0.117-0.156,0.195c-0.047,0.102-0.176,0.105-0.281,0.121c-0.516,0.078-1.027,0.16-1.539,0.266
	c-1.312,0.27-2.5,0.809-3.594,1.574c-0.848,0.59-1.754,1.062-2.762,1.312c-0.293,0.074-0.582,0.164-0.832,0.336
	c-0.074,0.051-0.141,0.117-0.207,0.18c-0.004,0.004,0,0.008-0.004,0.012c-0.297,0.328,0.184,0.82,0.398,1.09
	c0.031,0.027,0.059,0.059,0.09,0.086c0.008,0.004,0.012,0.012,0.02,0.016c0.18,0.125,0.367,0.25,0.566,0.344
	c0.262,0.121,0.52,0.258,0.785,0.375c0.031,0.016,0.066,0.031,0.098,0.047c0.004,0,0.004,0,0.008,0
	c0.047,0.023,0.098,0.043,0.148,0.06c0.039,0.015,0.082,0.03,0.121,0.046c0.066,0.016,0.133,0.035,0.195,0.055
	c0.57,0.141,1.129,0.32,1.695,0.473c0.004,0,0.004,0.004,0.008,0.004c0.027,0.008,0.059,0.02,0.086,0.031
	c0.027,0.008,0.055,0.012,0.078,0.02c0.824,0.266,1.656,0.504,2.523,0.586c0.27,0.027,0.523,0.062,0.723,0.312
	c0.113,0.145,0.27,0.277,0.398,0.418c0.453,0.488,1.059,0.766,1.582,1.148c0.215,0.152,0.457,0.301,0.727,0.312
	c0.535,0.023,0.691-0.07,0.633-0.512c-0.051-0.387,0.031-0.766,0.027-1.148c-0.008-0.328-0.055-0.422-0.363-0.52
	c-0.082-0.027-0.168-0.043-0.254-0.062c0.309-0.066,0.605,0.051,0.914,0.051c1.086-0.004,2.172-0.07,3.258-0.091
	c1.176-0.019,2.375-0.218,3.527,0.274c-0.02-0.281,0.031-0.324,0.309-0.281c0.68,0.105,1.363,0.203,2.043,0.316
	c0.238,0.039,0.473,0.043,0.711,0c0.516-0.09,0.754-0.301,0.762-0.82c0.004-0.277-0.105-0.555-0.188-0.828
	c-0.031-0.102-0.148-0.148-0.25-0.18c-0.328-0.104-0.641-0.281-1.004-0.289c0.809-0.281,1.613-0.547,2.473-0.262
	c0.789,0.262,1.57,0.539,2.359,0.801c0.629,0.207,1.262,0.402,1.945,0.352c0.309-0.023,0.535-0.145,0.684-0.344
	c0.008-0.023,0.02-0.047,0.039-0.074c0.039-0.102,0.078-0.203,0.121-0.305c0.004-0.012,0.004-0.023,0.008-0.035
	c0-0.004,0.004-0.008,0.004-0.008v-0.004c0-0.004,0.004-0.004,0.004-0.004v-0.004c0.008-0.07,0.031-0.137,0.047-0.207
	c0.02-0.109,0.047-0.215,0.078-0.32c0.008-0.051,0.016-0.105,0.027-0.16C65.148,57.422,65.004,56.579,64.805,55.731z"/>
<path fill-rule="evenodd" clip-rule="evenodd" fill="#17803F" d="M26.504,38.403c-0.629,0-0.629-0.977,0-0.977
	C27.137,37.426,27.137,38.403,26.504,38.403z M66.145,35.297c-0.07-0.203-0.117-0.414-0.152-0.63
	c-0.086-0.362-0.176-0.726-0.262-1.093c-0.004-0.004-0.004-0.008-0.004-0.012c-0.02-0.035-0.043-0.066-0.059-0.102
	c-0.004-0.008,0.004-0.02-0.004-0.027c-0.016-0.035-0.035-0.066-0.051-0.102c-0.039-0.051-0.074-0.105-0.121-0.152
	c-0.16-0.117-0.367-0.199-0.652-0.254c-0.453-0.082-0.891,0.016-1.328,0.109c-0.641,0.141-1.25,0.363-1.863,0.586
	c-0.02,0.012-0.039,0.016-0.059,0.027c-0.07,0.035-0.145,0.066-0.219,0.094c-0.137,0.062-0.273,0.137-0.418,0.18
	c-0.445,0.238-0.926,0.379-1.422,0.555c-0.312,0.113-0.645,0.207-0.977,0.293c-0.016,0.004-0.016,0.02-0.035,0.02
	c-0.035,0.008-0.066,0.016-0.105,0.023c-0.234,0.094-0.48,0.164-0.738,0.227c-0.09,0.035-0.188,0.062-0.285,0.078
	c-0.031,0.012-0.066,0.023-0.102,0.027c-1.016,0.184-2.043,0.211-3.066,0.09c-0.496-0.059-0.996-0.133-1.496-0.199
	c0.562-0.168,1.125-0.258,1.68-0.368c0.473-0.089,0.852-0.339,1.129-0.737c0.09-0.129,0.145-0.258,0.055-0.414
	c-0.199-0.352-0.383-0.711-0.609-1.051c-0.328-0.492-0.781-0.859-1.164-1.293c-0.461-0.516-1-0.914-1.637-1.152
	c-0.91-0.336-1.77-0.18-2.523,0.43c-1.008,0.809-2.277,1.191-3.281,2.012c-0.117,0.098-0.344,0.152-0.391-0.012
	c-0.156-0.559-0.5-0.359-0.824-0.242c-0.234,0.082-0.426,0.078-0.566-0.148c-0.043-0.066-0.074-0.137-0.109-0.207
	c-0.035-0.047-0.059-0.102-0.094-0.188c-0.004-0.012,0.004-0.016,0-0.027c-0.004-0.031,0-0.059,0.004-0.086
	c0.008-0.035,0.012-0.066,0.035-0.09c0.008-0.008,0.004-0.02,0.012-0.027c0.012-0.027,0.016-0.059,0.027-0.082
	c-0.273,0.047-0.367-0.098-0.426-0.297c-0.074-0.238-0.086-0.477-0.07-0.723c0.008-0.125,0.012-0.301-0.172-0.215
	c-0.074,0.035-0.148,0.047-0.223,0.055c-0.328,0.078-0.652,0.098-1.016-0.066c-0.152-0.066-0.148-0.211-0.074-0.316
	c0.004-0.012,0.004-0.02,0.004-0.031c0.078-0.254,0.203-0.48,0.348-0.727c-0.246-0.02-0.355,0.145-0.484,0.242
	c-0.512,0.379-1.02,0.184-1.145-0.449c-0.023-0.125,0.043-0.309-0.141-0.34c-0.16-0.027-0.266,0.117-0.363,0.23
	c-0.699,0.832-1.375,1.676-1.82,2.68c-0.051,0.117-0.086,0.262-0.234,0.34c-0.137-0.121-0.215-0.281-0.273-0.465
	c-0.004,0-0.004,0.004-0.008,0.004c-0.062,0.105-0.141,0.188-0.23,0.254c-0.133,0.148-0.293,0.262-0.461,0.387
	c-0.094,0.086-0.184,0.18-0.238,0.297c-0.074,0.152-0.27,0.16-0.434,0.188c-0.789,0.121-1.578,0.246-2.363,0.41
	c-2.012,0.414-3.832,1.242-5.512,2.414c-1.297,0.906-2.688,1.629-4.234,2.016c-0.449,0.113-0.891,0.25-1.277,0.516
	c-0.113,0.078-0.215,0.18-0.32,0.273c-0.004,0.004,0,0.012-0.008,0.02c-0.453,0.504,0.281,1.254,0.609,1.668
	c0.047,0.043,0.09,0.09,0.137,0.137c0.008,0.008,0.02,0.016,0.027,0.02c0.277,0.195,0.562,0.383,0.871,0.527
	c0.402,0.188,0.797,0.396,1.207,0.578c0.051,0.023,0.102,0.047,0.148,0.07c0.004,0,0.008,0,0.008,0
	c0.074,0.035,0.148,0.062,0.227,0.094c0.062,0.023,0.125,0.047,0.188,0.07c0.102,0.027,0.203,0.051,0.305,0.086
	c0.871,0.219,1.73,0.492,2.602,0.727c0.004,0,0.004,0.004,0.008,0.008c0.043,0.013,0.09,0.031,0.133,0.047
	c0.043,0.012,0.082,0.02,0.121,0.031c1.266,0.41,2.543,0.77,3.871,0.898c0.414,0.039,0.801,0.094,1.105,0.48
	c0.172,0.223,0.414,0.426,0.613,0.641c0.695,0.746,1.621,1.172,2.43,1.758c0.328,0.234,0.699,0.461,1.113,0.477
	c0.824,0.035,1.062-0.109,0.973-0.785c-0.078-0.59,0.047-1.172,0.039-1.762c-0.008-0.508-0.082-0.649-0.559-0.797
	c-0.129-0.043-0.258-0.066-0.387-0.098c0.477-0.105,0.926,0.082,1.402,0.078c1.668-0.008,3.332-0.109,4.996-0.141
	c1.801-0.031,3.645-0.336,5.41,0.422c-0.031-0.43,0.051-0.496,0.473-0.43c1.043,0.16,2.09,0.312,3.133,0.484
	c0.367,0.062,0.723,0.062,1.09,0c0.797-0.141,1.152-0.461,1.168-1.258c0.004-0.422-0.164-0.852-0.285-1.27
	c-0.047-0.156-0.227-0.227-0.383-0.277c-0.508-0.16-0.98-0.434-1.539-0.445c1.238-0.43,2.473-0.84,3.793-0.402
	c1.211,0.398,2.41,0.828,3.617,1.23c0.965,0.32,1.938,0.621,2.984,0.539c0.477-0.039,0.82-0.227,1.047-0.531
	c0.012-0.035,0.031-0.07,0.062-0.117c0.062-0.156,0.121-0.312,0.188-0.469c0.004-0.016,0.008-0.035,0.012-0.051
	c0-0.008,0.004-0.012,0.008-0.016c0-0.004,0-0.004,0-0.004c0-0.004,0.004-0.004,0.004-0.008s0.004-0.004,0.004-0.004
	c0.016-0.105,0.051-0.21,0.07-0.32c0.031-0.168,0.074-0.328,0.121-0.492v-0.004c0.012-0.078,0.023-0.16,0.043-0.242
	C66.676,37.891,66.453,36.598,66.145,35.297z"/>
<path fill-rule="evenodd" clip-rule="evenodd" fill="#17803F" d="M3.129,52.672c-0.535,0-0.535-0.832,0-0.832
	S3.664,52.672,3.129,52.672z M36.848,50.028c-0.059-0.172-0.102-0.352-0.129-0.535c-0.074-0.309-0.148-0.617-0.223-0.93
	c-0.004-0.004-0.004-0.008-0.004-0.012c-0.016-0.027-0.035-0.055-0.047-0.086c-0.004-0.008,0.004-0.016,0-0.023
	c-0.016-0.027-0.031-0.055-0.043-0.086c-0.035-0.043-0.062-0.086-0.105-0.129c-0.137-0.098-0.309-0.168-0.555-0.215
	c-0.387-0.07-0.758,0.012-1.129,0.094c-0.543,0.121-1.062,0.309-1.586,0.5c-0.016,0.008-0.035,0.012-0.051,0.023
	c-0.059,0.027-0.121,0.059-0.188,0.082c-0.117,0.055-0.234,0.117-0.355,0.152c-0.379,0.203-0.785,0.32-1.207,0.473
	c-0.266,0.098-0.547,0.18-0.828,0.25c-0.012,0.004-0.012,0.016-0.027,0.02c-0.027,0.008-0.059,0.012-0.09,0.02
	c-0.203,0.078-0.41,0.141-0.629,0.191c-0.078,0.027-0.16,0.055-0.242,0.066c-0.027,0.008-0.059,0.02-0.086,0.023
	c-0.867,0.156-1.734,0.18-2.609,0.078c-0.422-0.051-0.848-0.109-1.27-0.168c0.48-0.141,0.957-0.223,1.43-0.312
	c0.402-0.078,0.727-0.289,0.961-0.625c0.078-0.109,0.121-0.219,0.047-0.352c-0.172-0.301-0.328-0.605-0.52-0.895
	c-0.277-0.422-0.664-0.73-0.988-1.098c-0.391-0.441-0.852-0.777-1.391-0.98c-0.773-0.285-1.504-0.152-2.148,0.362
	c-0.859,0.688-1.938,1.017-2.793,1.712c-0.102,0.082-0.293,0.129-0.332-0.008c-0.133-0.477-0.426-0.305-0.703-0.207
	c-0.199,0.07-0.363,0.066-0.48-0.125c-0.035-0.055-0.062-0.117-0.09-0.176c-0.027-0.043-0.051-0.086-0.078-0.16
	c-0.004-0.008,0.004-0.012,0-0.023c-0.004-0.027,0-0.047,0.004-0.074c0.008-0.031,0.012-0.055,0.031-0.078
	c0.004-0.008,0.004-0.016,0.008-0.023c0.008-0.023,0.012-0.047,0.023-0.07c-0.234,0.039-0.309-0.086-0.363-0.254
	c-0.062-0.203-0.074-0.406-0.059-0.617c0.008-0.105,0.008-0.254-0.148-0.184c-0.062,0.027-0.125,0.038-0.188,0.047
	c-0.277,0.066-0.555,0.082-0.863-0.055c-0.129-0.055-0.125-0.18-0.062-0.27c0.004-0.012,0-0.016,0.004-0.027
	c0.066-0.215,0.172-0.41,0.293-0.621c-0.211-0.02-0.301,0.121-0.414,0.207c-0.438,0.324-0.867,0.156-0.973-0.383
	c-0.02-0.105,0.035-0.266-0.121-0.289c-0.137-0.023-0.227,0.098-0.309,0.195c-0.594,0.707-1.168,1.426-1.547,2.277
	c-0.047,0.102-0.07,0.223-0.199,0.289c-0.113-0.105-0.184-0.238-0.234-0.395c-0.004,0-0.004,0.004-0.008,0.004
	c-0.051,0.09-0.117,0.16-0.195,0.215c-0.109,0.129-0.25,0.223-0.391,0.328c-0.078,0.074-0.156,0.152-0.203,0.254
	c-0.062,0.129-0.23,0.138-0.367,0.16c-0.672,0.101-1.344,0.211-2.008,0.348c-1.711,0.352-3.262,1.059-4.691,2.051
	c-1.105,0.77-2.285,1.383-3.602,1.715c-0.395,0.098-0.77,0.211-1.098,0.441c-0.098,0.066-0.184,0.152-0.273,0.234
	c-0.004,0.004,0,0.012-0.008,0.016c-0.387,0.426,0.238,1.066,0.52,1.423c0.043,0.034,0.078,0.077,0.117,0.112
	c0.008,0.008,0.016,0.011,0.023,0.02c0.234,0.164,0.477,0.328,0.742,0.449c0.344,0.16,0.68,0.336,1.023,0.492
	c0.043,0.02,0.086,0.039,0.129,0.059c0.004,0,0.004,0,0.008,0c0.062,0.027,0.125,0.055,0.191,0.078
	c0.051,0.02,0.105,0.04,0.16,0.059c0.086,0.023,0.172,0.043,0.258,0.074c0.742,0.188,1.473,0.422,2.215,0.617
	c0.004,0,0.004,0.004,0.008,0.008c0.039,0.008,0.078,0.027,0.113,0.043c0.035,0.008,0.07,0.016,0.105,0.027
	c1.074,0.348,2.164,0.656,3.293,0.762c0.352,0.035,0.684,0.082,0.941,0.41c0.148,0.191,0.352,0.363,0.52,0.547
	c0.59,0.637,1.379,0.996,2.066,1.496c0.277,0.199,0.594,0.391,0.945,0.406c0.703,0.031,0.902-0.09,0.828-0.668
	c-0.066-0.504,0.043-1,0.035-1.5c-0.008-0.43-0.07-0.551-0.477-0.68c-0.109-0.035-0.219-0.055-0.328-0.082
	c0.406-0.086,0.789,0.07,1.195,0.066c1.418-0.008,2.836-0.094,4.25-0.117c1.535-0.027,3.102-0.285,4.602,0.359
	c-0.027-0.367,0.043-0.422,0.402-0.367c0.891,0.137,1.777,0.266,2.664,0.414c0.312,0.051,0.617,0.055,0.926,0
	c0.676-0.117,0.984-0.391,0.992-1.07c0.004-0.359-0.141-0.723-0.242-1.078c-0.039-0.133-0.191-0.191-0.328-0.234
	c-0.43-0.137-0.832-0.367-1.309-0.379c1.055-0.363,2.105-0.711,3.227-0.344c1.027,0.34,2.051,0.703,3.078,1.047
	c0.82,0.273,1.645,0.527,2.539,0.461c0.402-0.031,0.695-0.191,0.891-0.449c0.008-0.031,0.027-0.059,0.055-0.098
	c0.051-0.133,0.102-0.266,0.16-0.398c0.004-0.016,0.008-0.027,0.012-0.042c0-0.005,0.004-0.009,0.008-0.013v-0.004
	c0-0.004,0.004-0.004,0.004-0.008l0.004-0.004c0.012-0.09,0.043-0.18,0.059-0.27c0.027-0.141,0.062-0.281,0.102-0.422
	c0.008-0.066,0.02-0.137,0.035-0.207C37.297,52.239,37.109,51.137,36.848,50.028z"/>
<path fill="#17803F" d="M0.023,18.188c0,0,0.246,0.086,0.703,0.25c0.461,0.152,1.125,0.41,2,0.606
	c0.875,0.198,1.949,0.37,3.195,0.401c0.633-0.004,1.273,0.012,1.984-0.039c0.355-0.02,0.719-0.039,1.09-0.059
	c0.363-0.039,0.734-0.082,1.117-0.125c1.516-0.191,3.164-0.492,4.836-1.027c0.836-0.266,1.723-0.59,2.688-0.711
	c0.957-0.137,1.961-0.074,2.918,0.102c1.965,0.355,3.793,1.23,5.77,1.676c1.988,0.422,4.062,0.609,6.102,0.328
	c2.035-0.266,4.027-0.84,6.02-1.285c1.977-0.477,3.984-0.895,5.965-0.98c1.988-0.082,3.906,0.215,5.652,0.68
	c0.875,0.227,1.707,0.5,2.504,0.754c0.797,0.258,1.555,0.543,2.281,0.641c1.457,0.242,2.863-0.047,4.086-0.285
	c1.227-0.258,2.309-0.516,3.215-0.641c0.906-0.133,1.625-0.148,2.113-0.152c0.488,0.02,0.75,0.027,0.75,0.027l-0.004,0.074
	c0,0-0.258,0.012-0.742,0.035c-0.48,0.043-1.188,0.117-2.062,0.32c-0.883,0.188-1.93,0.492-3.156,0.828
	c-1.223,0.324-2.668,0.66-4.309,0.461c-0.82-0.094-1.602-0.352-2.398-0.594c-0.801-0.25-1.617-0.516-2.469-0.727
	c-1.695-0.445-3.535-0.684-5.43-0.66c-1.906,0.043-3.855,0.43-5.855,0.844c-1.996,0.395-4.027,0.871-6.117,1.043
	c-2.09,0.18-4.191-0.047-6.188-0.488c-1.012-0.195-1.977-0.527-2.93-0.817c-0.949-0.288-1.914-0.538-2.848-0.659
	c-0.953-0.125-1.887-0.133-2.777,0.036c-0.887,0.167-1.727,0.479-2.582,0.765c-1.707,0.602-3.402,0.858-4.969,1.027
	c-0.395,0.035-0.777,0.07-1.152,0.105c-0.371,0.012-0.734,0.023-1.09,0.035c-0.703,0.047-1.406-0.016-2.035-0.043
	c-1.277-0.098-2.379-0.312-3.254-0.59c-0.879-0.27-1.527-0.578-1.973-0.773C0.23,18.364,0,18.25,0,18.25L0.023,18.188z"/>
<path fill="#17803F" d="M31.168,10.204c-0.059,0-0.117-0.012-0.172-0.043c-0.184-0.094-0.254-0.32-0.16-0.504
	c0.043-0.082,1.008-1.996-0.137-4.047c-1.043-1.863-4.121-4.219-12.875-4.859c-0.207-0.016-0.363-0.195-0.348-0.402
	S17.664-0.011,17.879,0c7.305,0.535,11.84,2.301,13.48,5.254C32.699,7.661,31.547,9.907,31.5,10
	C31.43,10.129,31.301,10.204,31.168,10.204z"/>
<path fill="#17803F" d="M27.719,11.723c-0.289,0-0.59-0.023-0.906-0.082c-3.316-0.594-6.457-4.324-9.332-11.082
	c-0.082-0.191,0.008-0.41,0.199-0.492s0.41,0.008,0.492,0.199c3.445,8.098,6.668,10.254,8.762,10.637
	c2.281,0.414,3.758-1.098,3.816-1.164c0.145-0.148,0.379-0.156,0.531-0.012c0.148,0.141,0.156,0.379,0.016,0.531
	C31.23,10.317,29.879,11.723,27.719,11.723z"/>
<path fill="#17803F" d="M33.723,12.403c-0.137,0-0.266-0.074-0.332-0.199c-0.051-0.094-1.199-2.34,0.141-4.746
	c1.641-2.953,6.176-4.719,13.48-5.254c0.188-0.016,0.387,0.141,0.402,0.348s-0.141,0.387-0.348,0.402
	c-8.75,0.641-11.832,2.996-12.875,4.859c-1.145,2.047-0.18,3.965-0.137,4.047c0.094,0.185,0.023,0.41-0.16,0.504
	C33.84,12.387,33.781,12.403,33.723,12.403z"/>
<path fill="#17803F" d="M37.164,13.917c-2.156,0-3.508-1.397-3.57-1.468c-0.141-0.148-0.137-0.387,0.016-0.527
	c0.148-0.141,0.387-0.137,0.531,0.012c0.062,0.062,1.531,1.574,3.816,1.16c2.094-0.383,5.316-2.539,8.766-10.641
	c0.082-0.191,0.305-0.281,0.492-0.199c0.191,0.082,0.281,0.301,0.199,0.492c-2.875,6.762-6.016,10.492-9.332,11.086
	C37.758,13.891,37.453,13.917,37.164,13.917z"/>
<path fill="#17803F" d="M31.523,9.868c0,0,0.309,1.3,0.656,3.281c0.355,1.977,0.695,4.641,0.777,7.32
	c0.004,0.668,0.031,1.34,0,1.996c-0.008,0.66-0.047,1.305-0.098,1.93c-0.031,0.625-0.129,1.227-0.188,1.797
	c-0.07,0.57-0.184,1.103-0.262,1.598c-0.09,0.492-0.211,0.938-0.301,1.332c-0.082,0.398-0.199,0.734-0.281,1.016
	c-0.172,0.559-0.266,0.875-0.266,0.875s0.086-0.324,0.234-0.887c0.074-0.281,0.176-0.621,0.242-1.023
	c0.074-0.398,0.18-0.844,0.254-1.34c0.062-0.496,0.156-1.027,0.203-1.598c0.039-0.57,0.117-1.168,0.125-1.789
	c0.031-0.621,0.043-1.266,0.027-1.918c0.008-0.652-0.047-1.316-0.07-1.977c-0.172-2.648-0.602-5.273-1.023-7.215
	c-0.414-1.945-0.766-3.23-0.766-3.23c-0.055-0.199,0.062-0.406,0.262-0.461s0.406,0.062,0.461,0.262
	c0,0.004,0.004,0.008,0.004,0.012L31.523,9.868z"/>
<path fill="#17803F" d="M30.418,9.25c0,0-0.16-0.164-0.438-0.449c-0.277-0.289-0.684-0.688-1.176-1.16
	c-0.242-0.242-0.52-0.484-0.809-0.75c-0.293-0.258-0.59-0.547-0.922-0.816c-0.328-0.273-0.668-0.555-1.016-0.84
	c-0.34-0.293-0.719-0.547-1.082-0.824c-0.371-0.266-0.723-0.559-1.105-0.789c-0.375-0.242-0.746-0.48-1.105-0.715
	c-0.352-0.246-0.727-0.418-1.07-0.609c-0.344-0.184-0.672-0.359-0.973-0.523c-0.301-0.16-0.602-0.258-0.855-0.371
	c-0.258-0.105-0.48-0.199-0.664-0.277c-0.367-0.152-0.578-0.242-0.578-0.242s0.211,0.082,0.586,0.23
	c0.188,0.074,0.41,0.16,0.672,0.262c0.254,0.109,0.559,0.199,0.863,0.355s0.637,0.324,0.984,0.504
	c0.348,0.183,0.73,0.352,1.086,0.59c0.367,0.227,0.742,0.457,1.125,0.695c0.391,0.223,0.75,0.512,1.129,0.77
	c0.367,0.27,0.758,0.516,1.102,0.805c0.352,0.281,0.699,0.555,1.039,0.82c0.336,0.266,0.641,0.547,0.941,0.801
	c0.297,0.258,0.582,0.496,0.828,0.734c0.504,0.468,0.926,0.855,1.203,1.141c0.285,0.281,0.449,0.441,0.449,0.441
	c0.059,0.059,0.059,0.152,0,0.211s-0.152,0.059-0.211,0C30.418,9.25,30.418,9.25,30.418,9.25z"/>
<path fill="#17803F" d="M34.09,12.313c0,0-0.031,0.055-0.09,0.152c-0.055,0.09-0.129,0.23-0.215,0.406
	c-0.09,0.173-0.172,0.383-0.273,0.605c-0.078,0.23-0.18,0.473-0.254,0.723c-0.062,0.254-0.156,0.504-0.188,0.746
	c-0.035,0.242-0.098,0.469-0.102,0.668c-0.023,0.398-0.039,0.664-0.039,0.664s-0.031-0.266-0.078-0.664
	c-0.027-0.203-0.008-0.438-0.016-0.691c-0.012-0.258,0.039-0.523,0.059-0.797c0.027-0.273,0.086-0.539,0.129-0.793
	c0.062-0.25,0.109-0.484,0.172-0.684c0.059-0.199,0.109-0.367,0.156-0.484c0.043-0.113,0.066-0.18,0.066-0.18
	c0.074-0.195,0.289-0.293,0.484-0.223s0.297,0.289,0.223,0.484c-0.008,0.02-0.016,0.039-0.027,0.059L34.09,12.313z"/>
<path fill="#17803F" d="M34.242,11.215c0,0,0.637-0.641,1.637-1.562c0.246-0.235,0.523-0.477,0.816-0.735
	c0.297-0.253,0.594-0.534,0.926-0.8c0.328-0.266,0.672-0.543,1.02-0.82c0.34-0.289,0.723-0.535,1.086-0.805
	c0.371-0.258,0.727-0.543,1.113-0.766c0.379-0.234,0.75-0.465,1.113-0.688c0.352-0.238,0.734-0.398,1.078-0.582
	c0.348-0.176,0.676-0.344,0.977-0.496c0.305-0.148,0.605-0.238,0.859-0.344c0.258-0.098,0.48-0.184,0.668-0.254
	c0.371-0.141,0.582-0.219,0.582-0.219s-0.211,0.086-0.578,0.234c-0.184,0.074-0.406,0.165-0.66,0.266
	c-0.254,0.109-0.551,0.203-0.852,0.359c-0.297,0.16-0.621,0.332-0.965,0.516c-0.34,0.188-0.715,0.355-1.059,0.602
	c-0.355,0.23-0.723,0.469-1.094,0.711c-0.383,0.23-0.727,0.523-1.09,0.785c-0.355,0.277-0.73,0.527-1.066,0.82
	c-0.34,0.285-0.672,0.566-0.996,0.84c-0.324,0.27-0.617,0.559-0.906,0.816c-0.285,0.262-0.559,0.508-0.797,0.746
	c-0.973,0.938-1.598,1.594-1.598,1.594c-0.059,0.059-0.152,0.062-0.211,0.004s-0.062-0.152-0.004-0.211l0,0V11.215z"/>
</svg>
