<?xml version="1.0" encoding="utf-8"?>
<!-- Generator: Adobe Illustrator 16.0.4, SVG Export Plug-In . SVG Version: 6.00 Build 0)  -->
<!DOCTYPE svg PUBLIC "-//W3C//DTD SVG 1.0//EN" "http://www.w3.org/TR/2001/REC-SVG-20010904/DTD/svg10.dtd">
<svg version="1.0" id="Layer_1" xmlns="http://www.w3.org/2000/svg" xmlns:xlink="http://www.w3.org/1999/xlink" x="0px" y="0px"
	 width="40.75px" height="70.289px" viewBox="0 0 40.75 70.289" enable-background="new 0 0 40.75 70.289" xml:space="preserve">
<path fill="#17803F" d="M14.039,41.84c-0.656,0-1.219,0.515-1.219,1.172v10.242c0,0.101,0.016,0.207,0.023,0.305
	c-0.008,0.094-0.023,0.188-0.023,0.281v15.258c0,0.656,0.562,1.172,1.219,1.172h3.938c0.656,0,1.172-0.516,1.172-1.172V53.84
	c0-0.117-0.012-0.238-0.023-0.352c0.008-0.078,0.023-0.156,0.023-0.234c0-0.008,0-0.016,0-0.022v-10.22
	c0-0.657-0.516-1.172-1.172-1.172H14.039z M21.844,41.699c-0.656,0-1.195,0.516-1.195,1.172v10.242c0,0.102,0.016,0.207,0.023,0.305
	c-0.008,0.094-0.023,0.187-0.023,0.281v15.395c0,0.656,0.539,1.195,1.195,1.195h3.961c0.656,0,1.172-0.539,1.172-1.195V53.699
	c0-0.095-0.016-0.188-0.023-0.281c0.012-0.098,0.023-0.203,0.023-0.305V42.871c0-0.656-0.516-1.172-1.172-1.172H21.844z
	 M1.57,15.449c-0.023,0.008-0.047,0.016-0.07,0.023c-0.324,0.105-0.555,0.457-0.516,0.797l3.328,38.977L3.984,55.27l0.188,2.156
	c0.059,0.679-0.648,0.738-1.312,0.797L0,58.481c0.82,9.565,4.086,10.354,6.211,10.171s5.227-1.52,4.406-11.086l-2.859,0.234
	c-0.684,0.059-1.395,0.109-1.453-0.586l-0.188-2.133l-0.305,0.022L2.461,16.152C2.441,15.723,1.992,15.367,1.57,15.449z"/>
<path fill="#17803F" d="M29.508,15.52c-0.656-0.004-1.168,0.539-1.172,1.195c-0.09,6.727-0.031,13.43,0,20.156
	c0.004,0.656,0.516,1.199,1.172,1.195l1.594-0.023c0.656-0.004,1.176-0.516,1.172-1.172c-0.086-6.723-0.031-13.434,0-20.156
	c0.004-0.656-0.516-1.191-1.172-1.195H29.508z M16.055,15.354c0.754,0.825,1.793,1.685,3.234,2.603c0.004-0.004,0.02,0.004,0.023,0
	c1.445-1.004,2.555-1.853,3.445-2.603H16.055z M13.617,15.354c-0.461,0-0.887,0.181-1.172,0.493
	c-0.109,0.09-0.207,0.199-0.281,0.328C8.73,21.984,5.449,27.781,2.086,33.637c-0.324,0.57-0.125,1.289,0.445,1.617l1.359,0.797
	c0.57,0.328,1.289,0.125,1.617-0.446c2.184-3.808,4.344-7.623,6.539-11.413v17.25c0,0.875,0.695,1.57,1.57,1.57h12.656
	c0.875,0,1.57-0.695,1.57-1.57V16.926c0-0.875-0.695-1.571-1.57-1.571h-2.977c-0.969,0.841-2.223,1.821-3.891,2.978
	c-0.289,1.555-0.414,3.008,0.656,4.383l-0.281,0.234c-0.938-1.203-1.027-2.512-0.867-3.797c-0.164,0.309-0.332,0.617-0.445,0.914
	c-0.227,0.598-0.281,1.113,0.211,1.758l-0.281,0.234c-0.562-0.738-0.508-1.477-0.258-2.133c0.238-0.625,0.625-1.191,0.844-1.758
	c-1.512-0.98-2.613-1.906-3.398-2.813H13.617z"/>
<path fill="#17803F" d="M40.75,53.742c-1.355-1.48-1.969-3.074-2.504-3.906c-0.043-0.273-0.145-0.539-0.273-0.801
	c-0.004-0.004-0.008-0.008-0.008-0.012c-0.008-0.039-0.02-0.074-0.031-0.109c-0.078-0.148-0.168-0.301-0.262-0.457l-5.66-10.219
	c0.066-0.102,0.062-0.242,0-0.355l-2.238-4.066c-0.094-0.168-0.305-0.23-0.473-0.141l-0.215,0.121l-0.16,0.094L28.723,34
	c-0.164,0.094-0.219,0.297-0.129,0.465l2.262,4.07c0.062,0.113,0.184,0.18,0.309,0.18l5.375,9.684l-0.422,0.352
	c-0.117,0.098-0.133,0.27-0.035,0.387l0.176,0.211c0.098,0.117,0.27,0.134,0.387,0.035l0.293-0.242
	c0.059,0.109,0.121,0.219,0.164,0.316c-0.27,0.238-0.477,0.703-0.566,1.266c-0.023-0.008-0.035-0.02-0.062-0.027
	c-0.184-0.066-0.457-0.277-0.75-0.543l0.387-0.32c0.117-0.098,0.145-0.277,0.047-0.395l-0.184-0.219
	c-0.098-0.117-0.281-0.121-0.398-0.023l-0.465,0.391L26.957,42c0.031-0.117,0.008-0.254-0.086-0.344l-3.41-3.172
	c-0.141-0.13-0.355-0.13-0.484,0.008l-0.145,0.16l-0.133,0.148l-0.168,0.181c-0.129,0.14-0.109,0.358,0.031,0.487l3.391,3.168
	c0.098,0.09,0.234,0.105,0.352,0.062l8.547,7.965c0.125,0.125,0.25,0.246,0.379,0.359c0.031,0.027,0.062,0.055,0.102,0.074
	c0.004,0.004,0.004,0.007,0.008,0.012c0.25,0.207,0.512,0.379,0.797,0.484c0.113,0.043,0.234,0.066,0.359,0.074
	c0.145,1.516,1.234,3.035,4.254,2.07V53.742z"/>
<path fill="#17803F" d="M13.758,3.895C10.82,4.848,9.445,6.262,9.445,6.262c1.484,0.883,2.957,1.539,4.406,2.016
	c0,0.062,0,0.125,0,0.188v0.023c-0.004,0-0.02,0-0.023,0c-0.059,1.941-0.176,3.254-0.352,4.523
	c-0.164,0.539-1.078-0.035-1.898-0.445c0.383,1.898,1.074,2.48,2.039,2.484c0.43-0.016,0.895-0.238,1.219-0.703
	c0.004-0.004-0.004-0.02,0-0.023c-0.32-0.508-0.57-1.012-0.727-1.5c-0.516-1.621-0.281-3.168-0.188-4.523
	c0.062,0.02,0.125,0.051,0.188,0.07s0.125,0.027,0.188,0.047c-0.098,1.371-0.32,2.789,0.164,4.313
	c0.129,0.401,0.32,0.796,0.562,1.218c0.156-0.363,0.262-0.812,0.234-1.383c0-0.055,0-0.133,0-0.188
	c1.129,1.371,2.844,2.25,4.758,2.25c1.902,0,3.605-0.852,4.734-2.203c0,0.047,0,0.094,0,0.141c-0.016,0.301,0.027,0.555,0.07,0.797
	c0.422-0.52,0.684-1,0.844-1.406c0.254-0.656,0.242-1.211,0.188-1.828c-0.051-0.57-0.184-1.281-0.164-2.039
	C25.82,8.043,25.953,8,26.086,7.949c-0.012,0.734,0.066,1.59,0.117,2.155c0.059,0.638,0.07,1.271-0.211,1.993
	c-0.191,0.496-0.551,1.051-1.078,1.664c0.289,0.859,0.922,1.27,1.5,1.289c0.965-0.004,1.633-0.586,2.016-2.484
	c-0.82,0.41-1.734,0.984-1.898,0.445c-0.168-1.234-0.316-2.53-0.375-4.383c0-0.055,0.023-0.109,0.023-0.164
	c0-0.18-0.008-0.363-0.023-0.539c1.293-0.48,2.586-1.086,3.867-1.805c0,0-1.637-1.316-4.664-2.227v0.023
	C21.223,4.977,17.32,5.055,13.758,3.895z M15.984,0.004c-0.77,0.027-1.512,0.895-1.312,1.664c0.086,0.336,0.129,0.66,0.141,0.961
	c3.055,0.859,6.41,0.785,10.078-0.141c0.023-0.273,0.062-0.547,0.117-0.82c0.176-0.891-0.75-1.809-1.641-1.641
	c-2.195,0.414-4.383,0.827-7.055,0C16.203-0.008,16.094,0,15.984,0.004z"/>
<path fill="#17803F" d="M15.023,13.949c-0.059,0.141-0.109,0.285-0.188,0.398c0.207,0.328,0.457,0.668,0.75,1.007h0.445
	C15.602,14.879,15.285,14.402,15.023,13.949z M24.82,13.34c-0.469,0.578-1.117,1.238-2.039,2.015h0.539
	c0.676-0.589,1.184-1.112,1.594-1.593C24.871,13.633,24.848,13.488,24.82,13.34z"/>
</svg>
