<?xml version="1.0" encoding="utf-8"?>
<!-- Generator: Adobe Illustrator 16.0.4, SVG Export Plug-In . SVG Version: 6.00 Build 0)  -->
<!DOCTYPE svg PUBLIC "-//W3C//DTD SVG 1.0//EN" "http://www.w3.org/TR/2001/REC-SVG-20010904/DTD/svg10.dtd">
<svg version="1.0" id="Layer_1" xmlns="http://www.w3.org/2000/svg" xmlns:xlink="http://www.w3.org/1999/xlink" x="0px" y="0px"
	 width="59.004px" height="51.676px" viewBox="0 0 59.004 51.676" enable-background="new 0 0 59.004 51.676" xml:space="preserve">
<path fill="#107F12" d="M4.61,20.477c-0.602,0-1.051,0.148-1.2,0.375c-0.3,0.449,0.149,1.875,2.024,3.523
	c0.226,0.227,0.375,0.602,0.226,0.898c-0.074,0.301-0.375,0.523-0.75,0.602c-2.023,0.227-3.074,0.898-3.148,1.352
	c-0.149,0.676,1.5,2.25,5.398,3.375c0.375,0.074,0.602,0.449,0.602,0.824v0.227c0,10.052,8.176,18.228,18.227,18.228h2.926
	c10.051,0,18.228-8.176,18.228-18.228v-11.25c0-1.949,0.676-3.824,2.022-5.25c0.147-0.148,0.375-0.301,0.676-0.301h2.772
	c0.677,0,1.353-0.375,1.728-0.977c0.147-0.227,0.302-0.301,0.522-0.375l1.125-0.227c-1.272-0.824-1.272-0.977-1.352-1.199V12
	c-0.602-3.074-3.375-5.324-6.523-5.324h-0.75c-6.823,0-12.75,6.75-14.397,16.426c-0.073,0.375-0.301,0.602-0.676,0.676h-0.074
	c-0.073,0-0.147,0-0.228,0H11.957c-0.226,0-0.449-0.074-0.601-0.227c-0.524-0.523-1.2-0.977-1.801-1.352
	C7.758,21.152,5.957,20.477,4.61,20.477z M28.906,51.676H25.98c-10.875,0-19.727-8.699-19.95-19.574
	c-3.226-1.051-6.375-2.852-6-5.102c0.227-1.125,1.274-2.023,3-2.477c-1.425-1.727-1.875-3.375-1.199-4.574
	c0.375-0.523,1.051-1.199,2.625-1.199c1.727,0,3.824,0.75,5.926,2.023c0.676,0.375,1.273,0.824,1.801,1.352H31.16
	C33.258,12,39.707,4.949,47.281,4.949h0.75c3.898,0,7.273,2.699,8.102,6.449c0.449,0.301,1.5,1.051,2.477,1.648
	c0.302,0.227,0.449,0.523,0.375,0.898c-0.073,0.375-0.301,0.602-0.676,0.676l-2.852,0.602c-0.75,0.898-1.801,1.426-2.926,1.426
	h-2.324c-0.824,1.125-1.352,2.477-1.352,3.824v11.25C48.859,42.676,39.859,51.676,28.906,51.676z"/>
<path fill="#107F12" d="M53.133,8.324c-0.449,0-0.824-0.375-0.824-0.824c0-3.148-2.25-5.773-5.022-5.773S42.262,4.352,42.262,7.5
	c0,0.449-0.375,0.824-0.824,0.824S40.613,7.949,40.613,7.5c0-4.125,3-7.5,6.75-7.5s6.75,3.375,6.75,7.5
	C53.957,7.949,53.582,8.324,53.133,8.324z"/>
<path fill="#107F12" d="M24.031,43.652c-4.574,0-8.324-3.75-8.324-8.324c0-0.602,0.074-1.125,0.149-1.648
	c-1.649-0.824-2.774-2.551-2.774-4.5c0-1.5,0.676-2.852,1.801-3.824c0.375-0.301,0.898-0.301,1.199,0.074
	c0.301,0.375,0.301,0.898-0.074,1.199c-0.75,0.602-1.125,1.574-1.125,2.477c0,1.427,0.898,2.699,2.324,3.148
	c0.449,0.148,0.676,0.602,0.602,1.051c-0.227,0.603-0.301,1.273-0.301,1.949c0,3.602,2.926,6.602,6.602,6.602
	c3.602,0,6.602-2.926,6.602-6.602c0-0.449,0.375-0.824,0.824-0.824c0.448,0,0.823,0.375,0.823,0.824
	C32.359,39.902,28.609,43.652,24.031,43.652z"/>
</svg>
