<?xml version="1.0" encoding="utf-8"?>
<!-- Generator: Adobe Illustrator 16.0.4, SVG Export Plug-In . SVG Version: 6.00 Build 0)  -->
<!DOCTYPE svg PUBLIC "-//W3C//DTD SVG 1.0//EN" "http://www.w3.org/TR/2001/REC-SVG-20010904/DTD/svg10.dtd">
<svg version="1.0" id="Layer_1" xmlns="http://www.w3.org/2000/svg" xmlns:xlink="http://www.w3.org/1999/xlink" x="0px" y="0px"
	 width="74.415px" height="116.343px" viewBox="0 0 74.415 116.343" enable-background="new 0 0 74.415 116.343"
	 xml:space="preserve">
<path fill="#1B803F" d="M55.292,94.749c0,0.625-0.414,1.141-0.922,1.145l-1.156,0.012l-2.699,16.19l-0.02,0.227
	c0,0.688-0.476,1.268-1.043,1.268h-22.5c-0.566,0-1.043-0.578-1.043-1.268l-2.531-15.271h24.186c0.314,0,0.568-0.254,0.568-0.57
	c0-0.315-0.254-0.57-0.568-0.57H23.192v-0.004l-1.156-0.012c-0.508-0.004-0.922-0.52-0.922-1.145v-3.936
	c0-0.621,0.425-1.145,0.929-1.145H54.36c0.504,0,0.929,0.521,0.929,1.145v3.936L55.292,94.749L55.292,94.749z M54.364,86.917H22.042
	c-2.031,0-3.687,1.75-3.687,3.896v3.936c0,1.689,1.029,3.137,2.461,3.676l2.34,14.021c0.062,2.16,1.742,3.896,3.793,3.896h22.5
	c2.054,0,3.729-1.734,3.793-3.896l2.339-14.021c1.43-0.535,2.461-1.984,2.461-3.676v-3.936
	C58.046,88.667,56.395,86.917,54.364,86.917z"/>
<path fill="#17803F" d="M70.883,37.383c-3.793,3.793-8.789,6.078-14.148,6.488c-0.059-0.059-2.652-2.914-6.605-5.023
	c0.074-0.555,0.102-1.113,0.102-1.656c0-2.051-0.484-4.059-1.391-5.875c2.711-1.113,6.402-0.863,7.031-0.836
	c5.684,0.203,10.984,2.492,15.016,6.531l0.176,0.176L70.883,37.383z M61.145,60.896v0.25h-0.25c-5.359,0-10.516-1.919-14.59-5.407
	c0-0.086,0.059-4.262-1.129-8.234c2.066-1.598,3.602-3.766,4.41-6.254C56.661,45.207,61.145,52.762,61.145,60.896z M37.208,47.871
	c-5.892,0-10.664-4.773-10.664-10.664s4.772-10.664,10.664-10.664c5.891,0,10.664,4.773,10.664,10.664S43.098,47.871,37.208,47.871z
	 M43.918,55.898c-0.234,5.551-2.492,10.957-6.531,14.984l-0.176,0.176l-0.176-0.176c-3.793-3.793-6.078-8.789-6.488-14.148
	c2.312-2.008,4.965-6.488,5.022-6.605c2.653,0.352,5.231-0.133,7.517-1.289C44.208,51.664,43.93,55.34,43.918,55.898z
	 M28.727,55.168c-4.086,3.766-9.508,5.978-15.204,5.978h-0.25v-0.25c0-5.36,1.918-10.517,5.407-14.591
	c4.703,0,8.043-1.07,8.234-1.129c1.598,2.066,3.75,3.59,6.227,4.41C32.066,52.074,29.137,54.801,28.727,55.168z M3.531,37.383
	l-0.176-0.176l0.176-0.176c3.793-3.793,8.789-6.078,14.149-6.488c2.609,2.988,6.488,4.965,6.605,5.023
	c-0.074,0.555-0.101,1.113-0.101,1.656c0,2.051,0.484,4.059,1.391,5.859c-2.27,0.805-6.403,0.863-7.032,0.836
	C12.875,43.695,7.559,41.426,3.531,37.383z M13.269,13.519v-0.25h0.25c5.36,0,10.516,1.919,14.59,5.407
	c0,0.086-0.086,4.176,1.129,8.234c-2.065,1.598-3.59,3.75-4.41,6.227c-2.769-1.141-5.215-4-5.594-4.41
	C15.484,24.637,13.269,19.219,13.269,13.519z M30.497,18.516c0.233-5.551,2.491-10.957,6.53-14.984l0.177-0.176l0.176,0.176
	c3.793,3.793,6.078,8.789,6.488,14.148c-0.059,0.059-2.738,2.461-5.023,6.605c-2.653-0.352-5.231,0.133-7.516,1.289
	C30.454,22.324,30.484,19.074,30.497,18.516z M45.676,19.246c4.086-3.766,9.508-5.992,15.219-5.992h0.25v0.25
	c0,5.359-1.918,10.515-5.406,14.59c-0.074,0-5.434-0.176-8.234,1.129c-1.598-2.066-3.75-3.59-6.227-4.41
	C42.95,21.461,45.278,19.629,45.676,19.246z M74.415,37.207l-1.859-1.859c-3.836-3.836-8.715-6.227-14.004-6.988
	c3.207-4.277,4.953-9.477,4.953-14.852v-2.609h-2.621c-5.422,0-10.605,1.816-14.84,4.965c-0.762-5.305-3.195-10.211-7-14.004
	L37.208,0l-1.859,1.859c-3.836,3.836-6.227,8.789-6.989,14.004c-4.261-3.223-9.464-4.965-14.84-4.965h-2.621v2.62
	c0,5.423,1.817,10.606,4.965,14.841c-5.304,0.762-10.211,3.195-14.004,7L0,37.207l1.859,1.859c3.836,3.836,8.715,6.227,14.004,6.988
	c-3.222,4.262-4.965,9.464-4.965,14.841v2.62h2.621c5.422,0,10.606-1.816,14.84-4.965c0.763,5.305,3.196,10.211,7,14.004
	l1.849,1.859l1.859-1.859c3.836-3.836,6.227-8.789,6.988-14.004c4.277,3.207,9.477,4.953,14.852,4.953h2.621v-2.621
	c0-5.434-1.816-10.633-4.98-14.867c5.305-0.747,10.227-3.164,14.031-6.973L74.415,37.207z"/>
<path fill="#1B803F" d="M34.779,87.69l6.685-0.494c0,0-10.601-22.399-10.601-27.589c0-3.667-2.417-0.917-2.417-0.917"/>
</svg>
