<?xml version="1.0" encoding="utf-8"?>
<!-- Generator: Adobe Illustrator 16.0.4, SVG Export Plug-In . SVG Version: 6.00 Build 0)  -->
<!DOCTYPE svg PUBLIC "-//W3C//DTD SVG 1.0//EN" "http://www.w3.org/TR/2001/REC-SVG-20010904/DTD/svg10.dtd">
<svg version="1.0" id="Layer_1" xmlns="http://www.w3.org/2000/svg" xmlns:xlink="http://www.w3.org/1999/xlink" x="0px" y="0px"
	 width="65.506px" height="105.688px" viewBox="0 0 65.506 105.688" enable-background="new 0 0 65.506 105.688"
	 xml:space="preserve">
<path fill="#17803F" stroke="#17803F" stroke-miterlimit="10" d="M34.098,40.334 M32.446,33.584c-2.25,0.602-4.051,2.25-4.875,4.426
	c-0.75,2.176-0.375,4.648,0.977,6.449c2.25-0.602,4.051-2.25,4.875-4.426C34.172,37.857,33.797,35.459,32.446,33.584z
	 M28.024,46.107l-0.301-0.301c-1.949-2.324-2.551-5.477-1.574-8.324c0.977-2.852,3.449-4.949,6.449-5.477l0.449-0.074l0.301,0.301
	c1.949,2.25,2.551,5.477,1.574,8.324c-0.977,2.852-3.449,4.949-6.449,5.477L28.024,46.107z"/>
<path fill="#17803F" stroke="#17803F" stroke-miterlimit="10" d="M31.997,40.033c0.75,2.176,2.625,3.824,4.875,4.426
	c1.352-1.875,1.801-4.273,0.977-6.449c-0.75-2.176-2.625-3.824-4.875-4.426C31.622,35.459,31.247,37.857,31.997,40.033z
	 M37.473,46.107l-0.449-0.074c-2.926-0.523-5.398-2.625-6.449-5.477c-0.977-2.852-0.375-6,1.574-8.324l0.301-0.301l0.449,0.074
	c2.926,0.523,5.398,2.625,6.449,5.477c0.977,2.852,0.375,6-1.574,8.324L37.473,46.107z"/>
<path fill="#17803F" stroke="#17803F" stroke-miterlimit="10" d="M2.297,34.635c3.148,5.102,8.773,8.25,14.773,8.25
	s11.625-3.148,14.773-8.25c-3.148-5.102-8.773-8.25-14.773-8.25S5.446,29.533,2.297,34.635z M17.071,44.459
	c-6.676,0-12.898-3.602-16.273-9.375l-0.227-0.375l0.227-0.449c3.375-5.773,9.602-9.375,16.273-9.375
	c6.676,0,12.898,3.602,16.273,9.375l0.227,0.375l-0.227,0.375C29.973,40.857,23.747,44.459,17.071,44.459z"/>
<path fill="#17803F" stroke="#17803F" stroke-miterlimit="10" d="M33.649,34.635c3.148,5.102,8.773,8.25,14.773,8.25
	s11.625-3.148,14.773-8.25c-3.148-5.102-8.773-8.25-14.773-8.25S36.797,29.533,33.649,34.635z M48.422,44.459
	c-6.676,0-12.898-3.602-16.273-9.375l-0.227-0.375l0.227-0.375c3.375-5.773,9.602-9.375,16.273-9.375
	c6.676,0,12.898,3.602,16.273,9.375l0.227,0.375l-0.227,0.375C61.321,40.857,55.098,44.459,48.422,44.459z"/>
<path fill="#17803F" stroke="#17803F" stroke-miterlimit="10" d="M32.747,2.307c-5.102,3.148-8.25,8.773-8.25,14.773
	s3.148,11.625,8.25,14.773c5.102-3.148,8.25-8.773,8.25-14.773C40.997,11.01,37.848,5.459,32.747,2.307z M32.747,33.584
	l-0.375-0.227c-5.773-3.375-9.375-9.602-9.375-16.273c0-6.676,3.602-12.898,9.375-16.273l0.375-0.227l0.375,0.227
	c5.773,3.375,9.375,9.602,9.375,16.273c0,6.676-3.602,12.898-9.375,16.273L32.747,33.584z"/>
<path fill="#1B803F" d="M51.197,84.095c0,0.625-0.414,1.141-0.922,1.145l-1.156,0.012l-2.699,16.19l-0.02,0.227
	c0,0.688-0.476,1.268-1.043,1.268h-22.5c-0.566,0-1.043-0.578-1.043-1.268l-2.531-15.271h24.186c0.314,0,0.568-0.254,0.568-0.57
	c0-0.315-0.254-0.57-0.568-0.57H19.096v-0.004L17.94,85.24c-0.508-0.004-0.922-0.52-0.922-1.145V80.16
	c0-0.621,0.425-1.145,0.929-1.145h32.317c0.504,0,0.929,0.521,0.929,1.145v3.936L51.197,84.095L51.197,84.095z M50.268,76.263
	H17.947c-2.031,0-3.687,1.75-3.687,3.896v3.936c0,1.689,1.029,3.137,2.461,3.676l2.34,14.021c0.062,2.16,1.742,3.896,3.793,3.896
	h22.5c2.054,0,3.729-1.734,3.793-3.896l2.339-14.021c1.43-0.535,2.461-1.984,2.461-3.676v-3.936
	C53.951,78.013,52.299,76.263,50.268,76.263z"/>
<path fill="#1B803F" d="M31.312,76.224l6.123,0.68c0,0-8.163-29.251-3.401-32.652s-5.561,1.782-5.561,1.782"/>
</svg>
