<?xml version="1.0" encoding="utf-8"?>
<!-- Generator: Adobe Illustrator 16.0.4, SVG Export Plug-In . SVG Version: 6.00 Build 0)  -->
<!DOCTYPE svg PUBLIC "-//W3C//DTD SVG 1.0//EN" "http://www.w3.org/TR/2001/REC-SVG-20010904/DTD/svg10.dtd">
<svg version="1.0" id="Layer_1" xmlns="http://www.w3.org/2000/svg" xmlns:xlink="http://www.w3.org/1999/xlink" x="0px" y="0px"
	 width="54.309px" height="70.484px" viewBox="0 0 54.309 70.484" enable-background="new 0 0 54.309 70.484" xml:space="preserve">
<path fill="#107F12" d="M48.347,48.891c0,0.625-0.414,1.141-0.922,1.145l-1.156,0.012l-2.699,16.19l-0.02,0.227
	c0,0.688-0.476,1.267-1.043,1.267h-22.5c-0.566,0-1.043-0.578-1.043-1.267l-2.531-15.272h24.185c0.315,0,0.569-0.254,0.569-0.57
	s-0.254-0.57-0.569-0.57H16.246v-0.004l-1.156-0.012c-0.508-0.004-0.922-0.52-0.922-1.145v-3.935c0-0.621,0.425-1.145,0.929-1.145
	h32.317c0.504,0,0.929,0.522,0.929,1.145v3.935H48.347z M47.418,41.059H15.097c-2.031,0-3.687,1.75-3.687,3.897v3.935
	c0,1.69,1.03,3.137,2.461,3.676l2.34,14.022c0.062,2.16,1.742,3.896,3.793,3.896h22.5c2.054,0,3.729-1.734,3.793-3.896l2.339-14.022
	c1.43-0.535,2.461-1.984,2.461-3.676v-3.935C51.101,42.809,49.449,41.059,47.418,41.059z"/>
<path fill="#107F12" d="M22.98,31.383c2.035-0.473,4.06-1.211,6.36-2.323c0.363-0.177,0.738-0.384,1.109-0.595
	c0.258-0.145,0.515-0.289,0.765-0.418c0.676-0.348,0.946-1.176,0.598-1.852c-0.348-0.676-1.176-0.945-1.851-0.598
	c-0.282,0.145-0.571,0.305-0.86,0.469c-0.32,0.18-0.644,0.364-0.961,0.516c-2.113,1.023-3.953,1.695-5.781,2.121
	c-2.766,0.641-5.508,0.31-8.151-0.992c-3.403-1.672-6.153-4.184-8.578-6.836c2.375-0.414,4.582-1.151,6.738-1.867
	c1.327-0.44,2.586-0.858,3.879-1.207c2.84-0.766,5.633-1.409,8.522-0.983c1.754,0.262,3.231,0.883,4.508,1.901
	c1.238,0.988,2.336,2.224,3.438,3.509c0.79,0.914,1.411,1.891,1.797,2.827c0.473,1.134,0.485,2.228,0.504,3.613v0.133
	c0.028,2.087-0.187,4.316-0.633,6.638c-0.125,0.637-0.296,1.27-0.402,1.905c-0.098,0.588-0.03,1.484,0.547,1.81
	c0.211,0.117,0.441,0.172,0.668,0.172c0.978,0,1.306-0.836,1.509-1.637c0.144-0.57,0.265-1.148,0.383-1.728
	c0.483-2.5,0.711-4.922,0.683-7.19l-0.004-0.133c-0.019-1.548-0.035-3.009-0.711-4.634c-0.507-1.223-1.265-2.422-2.254-3.569
	c-1.195-1.388-2.386-2.728-3.808-3.863c-1.668-1.328-3.57-2.14-5.82-2.473c-3.415-0.509-6.637,0.237-9.646,1.047
	c-1.366,0.367-2.723,0.815-4.03,1.254c-2.906,0.965-5.649,1.879-8.711,2.043L0,18.59l1.808,2.117c3.043,3.56,6.5,7.168,11.185,9.475
	C16.222,31.766,19.582,32.172,22.98,31.383z"/>
<path fill="#107F12" d="M53.14,2.931L52.402,0l-1.727,2.48c-1.011,1.453-2.347,2.469-3.761,3.547
	c-0.442,0.336-0.884,0.672-1.313,1.02c-2.09,1.688-3.953,3.23-5.679,4.984c-2.008,2.047-2.922,4.598-2.563,7.188
	c0.195,1.414,0.617,2.763,1.021,4.066c0.144,0.469,0.289,0.934,0.421,1.402c0.168,0.59,0.395,1.133,0.614,1.66
	c0.133,0.323,0.269,0.651,0.386,0.977c0.2,0.566,0.73,0.922,1.301,0.922c0.153,0,0.305-0.027,0.453-0.078
	c0.719-0.25,1.094-1.035,0.844-1.754c-0.133-0.375-0.285-0.75-0.437-1.121c-0.196-0.477-0.383-0.926-0.508-1.361
	c-0.138-0.489-0.289-0.979-0.438-1.463c-0.39-1.254-0.758-2.44-0.922-3.633c-0.308-2.211,0.809-3.875,1.797-4.879
	c1.625-1.652,3.43-3.141,5.45-4.772c0.41-0.332,0.828-0.652,1.25-0.97c0.828-0.629,1.671-1.272,2.472-2.02
	c0.453,2.354,0.582,4.293,0.438,6.184c-0.224,2.884-1.392,5.109-3.578,6.806c-1.125,0.875-2.415,1.672-4.06,2.516
	c-0.676,0.348-0.944,1.176-0.598,1.852c0.344,0.677,1.176,0.945,1.853,0.599c1.801-0.922,3.229-1.81,4.491-2.789
	c2.793-2.168,4.355-5.117,4.638-8.771C54.461,9.734,54.129,6.844,53.14,2.931z"/>
</svg>
