<?xml version="1.0" encoding="utf-8"?>
<!-- Generator: Adobe Illustrator 16.0.4, SVG Export Plug-In . SVG Version: 6.00 Build 0)  -->
<!DOCTYPE svg PUBLIC "-//W3C//DTD SVG 1.0//EN" "http://www.w3.org/TR/2001/REC-SVG-20010904/DTD/svg10.dtd">
<svg version="1.0" id="Layer_1" xmlns="http://www.w3.org/2000/svg" xmlns:xlink="http://www.w3.org/1999/xlink" x="0px" y="0px"
	 width="59.779px" height="54.23px" viewBox="0 0 59.779 54.23" enable-background="new 0 0 59.779 54.23" xml:space="preserve">
<path fill="#17803F" d="M18.069,52.027H8.511L2.269,50.75l2.105-30.289c0.008-0.121-0.004-0.246-0.035-0.363
	c0.059-0.164,0.352-0.75,1.711-1.746c0.266-0.156,0.809-0.564,1.039-1.359c0.121-0.418,0.129-0.867,0.031-1.34h12.344
	c-0.098,0.473-0.09,0.922,0.027,1.34c0.227,0.801,0.773,1.211,1.039,1.367c1.387,1.012,1.664,1.609,1.715,1.77
	c-0.031,0.121-0.047,0.246-0.039,0.371l2.105,30.262L18.069,52.027z M21.772,16.535c-0.055-0.039-0.113-0.074-0.176-0.105
	c-0.012-0.008,0.02-0.027,0.016-0.039c-0.02-0.062-0.082-0.422,0.449-1.238c0.219-0.34,0.234-0.77,0.043-1.125
	s-0.566-0.574-0.969-0.574H5.444c-0.402,0-0.777,0.219-0.969,0.574S4.3,14.812,4.519,15.152c0.488,0.754,0.5,1.172,0.426,1.281
	c-0.07,0.023-0.047,0.027-0.137,0.094c-0.777,0.562-3.109,2.414-2.652,4.031l-2.152,31c-0.039,0.551,0.336,1.047,0.879,1.156
	l7.297,1.492c0.074,0.016,0.148,0.023,0.223,0.023h9.777c0.074,0,0.148-0.008,0.219-0.023l7.301-1.48
	c0.543-0.109,0.918-0.605,0.879-1.156l-2.152-30.977C24.89,18.957,22.55,17.098,21.772,16.535z"/>
<path fill="#17803F" d="M5.292,10.582c-0.609,0-1.102,0.492-1.102,1.102s0.492,1.102,1.102,1.102h16.094
	c0.609,0,1.102-0.498,1.102-1.102c0-0.609-0.492-1.102-1.102-1.102H5.292z"/>
<path fill="#17803F" d="M4.354,4.547C4.608,3.969,5.659,2.738,9.96,2.336c0.234,0.102,0.609,0.168,1.035,0.168
	c0.578,0,1.062-0.121,1.23-0.289c0.254-0.004,0.512-0.008,0.781-0.008l0,0c0.266,0,0.52,0.004,0.77,0.008
	c0.164,0.168,0.652,0.289,1.23,0.289c0.426,0,0.805-0.066,1.039-0.168c4.293,0.398,5.344,1.621,5.598,2.199
	c0.48,1.09-0.426,2.527-0.918,3.184H5.249C4.694,6.977,3.905,5.574,4.354,4.547z M4.729,9.922h16.52
	c0.309,0,0.602-0.129,0.812-0.355c0.117-0.125,2.824-3.117,1.602-5.914C22.604,1.234,19.175,0.037,13.171,0
	c-0.016,0-0.027,0-0.043,0h-0.234c-0.016,0-0.027,0-0.043,0C6.843,0.035,3.405,1.23,2.339,3.656C1.112,6.449,3.8,9.434,3.917,9.562
	C4.124,9.793,4.417,9.922,4.729,9.922z"/>
<path fill="#17803F" d="M21.343,19.742c-2.062,0.988-3.773,0.059-3.844,0.02c-0.18-0.102-0.406-0.098-0.578,0.02
	c-3.605,2.402-7,0.105-7.141,0.006c-0.164-0.111-0.375-0.131-0.555-0.045c-2.062,0.988-3.773,0.059-3.844,0.02
	c-0.266-0.152-0.602-0.059-0.754,0.203c-0.152,0.266-0.059,0.602,0.207,0.754c0.082,0.047,1.844,1.027,4.078,0.328L8.03,49.465
	c-0.008,0.305,0.23,0.578,0.535,0.578c0.008,0,0.012,0,0.016,0c0.297,0,0.543-0.242,0.551-0.543l0.879-28.34
	c0.773,0.359,2.004,0.793,3.461,0.793c0.992,0,2.086-0.203,3.211-0.766l1.133,28.301c0.012,0.297,0.254,0.527,0.551,0.527
	c0.008,0,0.016,0,0.023,0c0.305-0.012,0.539-0.27,0.527-0.574l-1.133-28.395c0.879,0.27,2.375,0.48,4.039-0.316
	c0.273-0.133,0.391-0.461,0.258-0.734C21.948,19.727,21.62,19.609,21.343,19.742z"/>
<path fill="#17803F" d="M10.378,3.234c0,0.551-2.578,0.551-2.578,0S10.378,2.684,10.378,3.234"/>
<path fill="#17803F" d="M14.382,3.234c0,0.551-2.574,0.551-2.574,0S14.382,2.684,14.382,3.234"/>
<path fill="#17803F" d="M18.39,3.234c0,0.551-2.574,0.551-2.574,0S18.39,2.684,18.39,3.234"/>
<path fill="#17803F" d="M51.272,52.027h-9.559l-6.242-1.277l2.105-30.289c0.008-0.125-0.004-0.246-0.035-0.363
	c0.059-0.164,0.352-0.75,1.711-1.746c0.266-0.156,0.809-0.559,1.039-1.355c0.117-0.418,0.129-0.867,0.031-1.34h12.344
	c-0.098,0.477-0.086,0.922,0.031,1.34c0.227,0.801,0.773,1.211,1.039,1.367c1.387,1.012,1.664,1.605,1.715,1.77
	c-0.035,0.121-0.047,0.246-0.039,0.371l2.105,30.262L51.272,52.027z M57.628,20.594c0.461-1.637-1.875-3.496-2.652-4.059
	c-0.055-0.039-0.113-0.074-0.172-0.105c-0.016-0.008,0.02-0.027,0.016-0.043c-0.016-0.062-0.082-0.422,0.449-1.238
	c0.223-0.336,0.238-0.77,0.047-1.125s-0.562-0.574-0.969-0.574H38.644c-0.406,0-0.777,0.219-0.969,0.574
	c-0.195,0.355-0.176,0.789,0.043,1.125c0.488,0.754,0.504,1.172,0.426,1.281c-0.074,0.023-0.047,0.027-0.137,0.094
	c-0.777,0.562-3.109,2.414-2.652,4.031l-2.152,31.004c-0.039,0.551,0.336,1.047,0.879,1.156l7.297,1.492
	c0.074,0.016,0.148,0.023,0.223,0.023h9.777c0.074,0,0.145-0.008,0.219-0.023l7.301-1.48c0.543-0.109,0.918-0.605,0.879-1.156
	L57.628,20.594z"/>
<path fill="#17803F" d="M42.979,19.787c0.141,0.1,3.539,2.396,7.141-0.006c0.176-0.117,0.395-0.125,0.578-0.02
	c0.047,0.025,0.855,0.465,2.012,0.434c-0.133-0.109-0.277-0.223-0.441-0.34c0,0-0.922-0.453-0.797-2.215h-9.586
	c0.098,1.766-1.082,2.215-1.082,2.215c-0.164,0.121-0.312,0.234-0.441,0.34c0.598,0.016,1.309-0.09,2.066-0.453
	C42.604,19.656,42.819,19.672,42.979,19.787z"/>
<path fill="#17803F" d="M53.659,21.195c-1.098,0.215-2.043,0.055-2.676-0.141l1.137,28.391c0.012,0.305-0.227,0.559-0.531,0.574
	h-0.023c-0.297,0-0.539-0.232-0.551-0.527l-1.129-28.301c-1.125,0.566-2.223,0.766-3.211,0.766c-1.453,0-2.684-0.434-3.457-0.793
	l-0.883,28.34c-0.008,0.297-0.254,0.539-0.551,0.539h-0.016c-0.305,0-0.543-0.273-0.535-0.578l0.883-28.414
	c-1.039,0.32-1.977,0.285-2.688,0.145c-0.391,0.613-0.219,0.941-0.219,0.941l-1.59,27.457l5.34,1.113h7.156l5.34-1.133l-1.59-27.477
	C53.87,22.098,54.038,21.787,53.659,21.195z"/>
<path fill="#17803F" d="M54.452,10.582H38.577c-0.609,0-1.102,0.492-1.102,1.102s0.492,1.102,1.102,1.102h15.871
	c0.609,0,1.102-0.498,1.102-1.102C55.55,11.074,55.062,10.582,54.452,10.582z"/>
<path fill="#17803F" d="M37.558,4.547c0.254-0.578,1.305-1.809,5.605-2.211c0.234,0.102,0.609,0.168,1.035,0.168
	c0.578,0,1.062-0.121,1.23-0.289c0.254-0.004,0.512-0.008,0.777-0.008l0,0c0.266,0,0.52,0.004,0.766,0.008
	c0.164,0.168,0.652,0.289,1.23,0.289c0.426,0,0.801-0.066,1.039-0.168c4.293,0.398,5.344,1.621,5.598,2.199
	c0.48,1.09-0.426,2.527-0.918,3.184H38.452C37.897,6.977,37.104,5.574,37.558,4.547z M37.929,9.922h16.516
	c0.309,0,0.605-0.129,0.812-0.355c0.117-0.125,2.824-3.117,1.602-5.914C55.8,1.234,52.37,0.037,46.366,0c-0.016,0-0.027,0-0.043,0
	h-0.234c-0.016,0-0.027,0-0.043,0c-6.008,0.035-9.449,1.23-10.512,3.656c-1.227,2.793,1.461,5.777,1.578,5.906
	C37.323,9.793,37.62,9.922,37.929,9.922z"/>
<path fill="#17803F" d="M43.577,3.234c0,0.551-2.574,0.551-2.574,0S43.577,2.684,43.577,3.234"/>
<path fill="#17803F" d="M47.585,3.234c0,0.551-2.578,0.551-2.578,0S47.585,2.684,47.585,3.234"/>
<path fill="#17803F" d="M51.593,3.234c0,0.551-2.578,0.551-2.578,0S51.593,2.684,51.593,3.234"/>
</svg>
