<?xml version="1.0" encoding="utf-8"?>
<!-- Generator: Adobe Illustrator 16.0.4, SVG Export Plug-In . SVG Version: 6.00 Build 0)  -->
<!DOCTYPE svg PUBLIC "-//W3C//DTD SVG 1.0//EN" "http://www.w3.org/TR/2001/REC-SVG-20010904/DTD/svg10.dtd">
<svg version="1.0" id="Layer_1" xmlns="http://www.w3.org/2000/svg" xmlns:xlink="http://www.w3.org/1999/xlink" x="0px" y="0px"
	 width="59.007px" height="74.174px" viewBox="0 0 59.007 74.174" enable-background="new 0 0 59.007 74.174" xml:space="preserve">
<path fill-rule="evenodd" clip-rule="evenodd" fill="#17803F" d="M20.335,6.66c4.911,13.539,6.372,25.668,6.774,36.23
	c0,0,3.082-3.617,7.66-8.555C33.566,24.621,31,14.484,25.766,4.582C21.941-2.656,17.782-0.387,20.335,6.66z M30.973,71.559
	C-1.984,45.586,71.546,31.027,37.641,0C71.546,23.902,61.925,87.816,30.973,71.559z M19.262,10.059
	C-2.48,27.473-3.523,53.926,4.875,65.523c6.16,8.512,15.707,6.562,21.124,4.484c-4.304-4.359-6.195-8.766-5.851-13.359
	c0.273-3.688,1.875-7.184,4.871-11.199C24.695,31.578,23.238,21.777,19.262,10.059z M27.997,4.227
	c2.351-1.305,4.867-2.516,7.562-3.621c0.106,0.344,0.309,0.676,0.637,0.973c7.347,6.727,9.57,12.625,7.98,18.566
	c-1.004,3.758-3.07,7.039-7.441,12.047c-0.836-6.07-2.203-11.633-4.281-17.59C31.21,11.035,29.73,7.578,27.997,4.227z"/>
</svg>
