<?xml version="1.0" encoding="utf-8"?>
<!-- Generator: Adobe Illustrator 16.0.4, SVG Export Plug-In . SVG Version: 6.00 Build 0)  -->
<!DOCTYPE svg PUBLIC "-//W3C//DTD SVG 1.0//EN" "http://www.w3.org/TR/2001/REC-SVG-20010904/DTD/svg10.dtd">
<svg version="1.0" id="Layer_1" xmlns="http://www.w3.org/2000/svg" xmlns:xlink="http://www.w3.org/1999/xlink" x="0px" y="0px"
	 width="64.352px" height="45.523px" viewBox="0 0 64.352 45.523" enable-background="new 0 0 64.352 45.523" xml:space="preserve">
<path fill="#17803F" d="M33.527,39.75 M31.875,33c-2.25,0.602-4.051,2.25-4.875,4.426c-0.75,2.176-0.375,4.648,0.977,6.449
	c2.25-0.602,4.051-2.25,4.875-4.426C33.602,37.273,33.227,34.875,31.875,33z M27.453,45.523l-0.301-0.301
	c-1.949-2.324-2.551-5.477-1.574-8.324c0.977-2.852,3.449-4.949,6.449-5.477l0.449-0.074l0.301,0.301
	c1.949,2.25,2.551,5.477,1.574,8.324c-0.977,2.852-3.449,4.949-6.449,5.477L27.453,45.523z"/>
<path fill="#17803F" d="M31.426,39.449c0.75,2.176,2.625,3.824,4.875,4.426c1.352-1.875,1.801-4.273,0.977-6.449
	c-0.75-2.176-2.625-3.824-4.875-4.426C31.051,34.875,30.676,37.273,31.426,39.449z M36.902,45.523l-0.449-0.074
	c-2.926-0.523-5.398-2.625-6.449-5.477c-0.977-2.852-0.375-6,1.574-8.324l0.301-0.301l0.449,0.074
	c2.926,0.523,5.398,2.625,6.449,5.477c0.977,2.852,0.375,6-1.574,8.324L36.902,45.523z"/>
<path fill="#17803F" d="M1.727,34.051c3.148,5.102,8.773,8.25,14.773,8.25s11.625-3.148,14.773-8.25
	c-3.148-5.102-8.773-8.25-14.773-8.25S4.875,28.949,1.727,34.051z M16.5,43.875c-6.676,0-12.898-3.602-16.273-9.375L0,34.125
	l0.227-0.449c3.375-5.773,9.602-9.375,16.273-9.375c6.676,0,12.898,3.602,16.273,9.375L33,34.051l-0.227,0.375
	C29.402,40.273,23.176,43.875,16.5,43.875z"/>
<path fill="#17803F" d="M33.078,34.051c3.148,5.102,8.773,8.25,14.773,8.25s11.625-3.148,14.773-8.25
	c-3.148-5.102-8.773-8.25-14.773-8.25S36.227,28.949,33.078,34.051z M47.852,43.875c-6.676,0-12.898-3.602-16.273-9.375
	l-0.227-0.375l0.227-0.375c3.375-5.773,9.602-9.375,16.273-9.375c6.676,0,12.898,3.602,16.273,9.375l0.227,0.375L64.125,34.5
	C60.75,40.273,54.527,43.875,47.852,43.875z"/>
<path fill="#17803F" d="M32.176,1.723c-5.102,3.148-8.25,8.773-8.25,14.773s3.148,11.625,8.25,14.773
	c5.102-3.148,8.25-8.773,8.25-14.773C40.426,10.426,37.277,4.875,32.176,1.723z M32.176,33l-0.375-0.227
	c-5.773-3.375-9.375-9.602-9.375-16.273c0-6.676,3.602-12.898,9.375-16.273L32.176,0l0.375,0.227
	c5.773,3.375,9.375,9.602,9.375,16.273c0,6.676-3.602,12.898-9.375,16.273L32.176,33z"/>
</svg>
