<?xml version="1.0" encoding="utf-8"?>
<!-- Generator: Adobe Illustrator 16.0.4, SVG Export Plug-In . SVG Version: 6.00 Build 0)  -->
<!DOCTYPE svg PUBLIC "-//W3C//DTD SVG 1.0//EN" "http://www.w3.org/TR/2001/REC-SVG-20010904/DTD/svg10.dtd">
<svg version="1.0" id="Layer_1" xmlns="http://www.w3.org/2000/svg" xmlns:xlink="http://www.w3.org/1999/xlink" x="0px" y="0px"
	 width="74.996px" height="73.64px" viewBox="0 0 74.996 73.64" enable-background="new 0 0 74.996 73.64" xml:space="preserve">
<path fill="#17803F" d="M35.639,46.98h4.438c0,0,0.191-7.043-2.508-13.406c-2.699-6.367-4.438-12.156-4.438-17.746
	c0-5.594,1.641-11.574,8.488-12.828s5.691,8.391,5.691,8.391S34.818,27.355,46.057,38.59c0,0,12.926-9.164,3.859-26.141
	c0,0-0.289-12.055-8.395-12.441C33.42-0.379,25.607,12.836,31.104,28.461C36.604,44.086,35.639,43.125,35.639,46.98z"/>
<path fill="#17803F" d="M33.299,72.285c0,0,0.785,0,2.949,0s3.543,3.047,8.066,0c4.523-3.051,2.754-3.051,7.672-3.051
	s7.277,3.051,10.035,0c2.754-3.047,5.215-0.543,6.887-2.395s3.441-1.199,4.918-2.832s1.867-1.199-0.688-4.031
	c-2.559-2.832-0.688-4.574-4.133-4.574c-3.441,0-3.738,1.523-4.574-1.254s-2.113-1.145-4.574-3.867s-3.789-0.383-5.902-2.723
	c-2.113-2.344-4.918-4.246-7.672-4.246s-2.559,1.742-4.328,1.742c-1.773,0-2.754,0-4.918,0s3.148,0-2.164,0s-1.477-4.246-5.312,0
	s-2.754-1.742-7.672,0.219s-6.098,5.445-8.066,5.445s-3.445-0.328-5.312,1.742s-1.082,1.199-3.539,3.92
	c-2.457,2.725-2.457-3.045-2.457,2.725c0,5.773-1.281,2.07-1.281,5.773s-3.539,3.703,1.379,3.703s3.738-3.27,6.688,0
	c2.953,3.27,4.133,4.355,8.656,3.27c4.523-1.09,5.211-4.684,8.461-1.09C29.662,74.355,31.924,72.285,33.299,72.285z"/>
</svg>
