<?xml version="1.0" encoding="utf-8"?>
<!-- Generator: Adobe Illustrator 16.0.4, SVG Export Plug-In . SVG Version: 6.00 Build 0)  -->
<!DOCTYPE svg PUBLIC "-//W3C//DTD SVG 1.0//EN" "http://www.w3.org/TR/2001/REC-SVG-20010904/DTD/svg10.dtd">
<svg version="1.0" id="Layer_1" xmlns="http://www.w3.org/2000/svg" xmlns:xlink="http://www.w3.org/1999/xlink" x="0px" y="0px"
	 width="51.747px" height="64.434px" viewBox="0 0 51.747 64.434" enable-background="new 0 0 51.747 64.434" xml:space="preserve">
<path fill="#17803F" d="M35.301,46.039c2.961-1.703,5.945-3.363,8.863-5.137c3.086-1.871,5.297-4.559,6.797-7.828
	c0.309-0.668,0.527-1.379,0.785-2.074c-0.344,0.164-0.535,0.392-0.723,0.621c-1.684,2.023-3.23,4.188-5.586,5.539
	c-1.742,0.996-3.426,2.102-5.195,3.039c-1.891,1-3.496,2.305-4.828,3.965c-0.84,1.051-1.656,2.117-2.539,3.254
	c-0.414-1.043-0.773-2.055-1.219-3.023c-0.262-0.57-0.191-0.988,0.316-1.297c1.359-0.812,2.68-1.706,4.113-2.371
	c2.684-1.242,5.148-2.754,6.828-5.242c1.723-2.555,3.324-5.191,4.977-7.793c0.109-0.172,0.164-0.383,0.246-0.574
	c-0.461,0.348-0.797,0.781-1.211,1.125c-3.527,2.93-7.109,5.789-10.578,8.785c-1.297,1.121-2.391,2.496-3.477,3.84
	c-0.609,0.758-1.004,1.684-1.543,2.617c-0.297-0.72-0.559-1.352-0.824-1.98c-0.555-1.328-0.586-1.362,0.574-2.242
	c2.531-1.918,5.137-3.747,7.637-5.707c1.215-0.953,2.453-1.988,3.344-3.227c1.793-2.488,2.461-5.473,3.258-8.473
	c-0.145,0.086-0.215,0.105-0.242,0.152c-0.168,0.25-0.332,0.5-0.48,0.757c-2.297,3.985-4.875,7.696-9.098,9.938
	c-2.836,1.508-4.699,3.852-5.523,6.984c-0.008,0.035-0.07,0.055-0.172,0.129c-0.488-1.105-0.965-2.188-1.375-3.109
	c2.734-2.516,5.434-4.891,8.008-7.398c2.281-2.223,4.27-4.707,5.652-7.621c0.723-1.523,1.262-4.109,1.027-5.207
	c-1.297,3.383-3.516,6.043-5.953,8.534c-1.191,1.22-2.402,2.45-3.754,3.485c-2.496,1.918-4.254,4.32-5.309,7.398
	c-0.207-0.414-0.312-0.734-0.5-0.992c-0.859-1.168-0.633-2.145,0.367-3.129c2.324-2.297,4.52-4.727,6.922-6.938
	c2.188-2.016,3.598-4.375,4.105-7.289c0.215-1.238,0.406-2.48,0.609-3.719c-2.016,3.828-4.59,7.145-7.551,10.195
	c-2.246,2.312-4.328,4.754-5.078,8.023c-0.055,0.25-0.148,0.492-0.27,0.891c-0.508-1.039-0.969-1.91-1.359-2.816
	c-0.09-0.211-0.027-0.59,0.113-0.781c1.117-1.52,2.207-3.062,3.426-4.5c1.609-1.898,3.367-3.664,4.977-5.566
	c0.625-0.738,1.211-1.625,1.453-2.539c0.477-1.801,0.703-3.668,1.035-5.508c-0.25,0.027-0.344,0.102-0.398,0.195
	c-0.262,0.438-0.555,0.859-0.758,1.324c-1.312,3.031-3.105,5.711-5.52,8c-2.355,2.234-4.492,4.656-4.789,8.359
	c-0.242-0.402-0.352-0.57-0.445-0.75c-1.246-2.418-1.262-2.43,0.516-4.551c1.543-1.84,3.152-3.617,4.68-5.469
	c2.09-2.539,2.703-5.57,2.879-8.812c-2.301,3.359-4.551,6.637-6.797,9.914c-1.18,1.727-2.008,3.605-2.41,5.668
	c-0.023,0.121-0.117,0.227-0.25,0.469c-0.309-0.559-0.496-1.043-0.805-1.434c-0.758-0.957-0.512-1.785,0.18-2.641
	c1.398-1.723,2.719-3.512,4.16-5.191c1.648-1.921,2.504-4.113,2.719-6.613c0.109-1.305,0.344-2.598,0.547-4.09
	c-0.449,0.773-0.887,1.449-1.25,2.16c-0.707,1.383-1.305,2.828-2.082,4.172c-1.035,1.789-2.301,3.445-3.281,5.262
	c-0.742,1.375-1.203,2.906-1.781,4.371c-0.066,0.172-0.102,0.355-0.191,0.676c-0.32-0.57-0.508-1.02-0.793-1.395
	c-0.59-0.77-0.484-1.422,0.121-2.145c1.414-1.672,2.762-3.398,4.168-5.069c1.07-1.271,1.785-2.692,2.031-4.341
	c0.234-1.586,0.441-3.18,0.703-5.07c-0.492,0.887-0.98,1.531-1.234,2.262c-0.812,2.355-2.133,4.399-3.57,6.41
	c-1.02,1.426-1.832,3.004-2.68,4.543c-0.242,0.441-0.289,0.988-0.445,1.555c-0.93-1.266-0.961-1.293-0.141-2.422
	c0.934-1.285,1.891-2.559,2.918-3.77c1.328-1.57,2.043-3.359,2.227-5.391c0.09-1.023,0.223-2.039,0.367-3.328
	c-0.945,1.941-1.809,3.707-2.668,5.469c-0.047-0.031-0.09-0.062-0.137-0.094c0.168-1.719,0.34-3.441,0.508-5.16
	c-0.105-0.02-0.215-0.035-0.32-0.055c-0.434,2.332-1.934,4.142-2.941,6.191c-0.777,1.582-1.262,3.312-1.875,4.977l0.004,0.004
	c0,0.004,0.004,0.004,0.004,0.008c0.961-1.165,1.918-2.328,2.879-3.492c0.031,0.027,0.066,0.059,0.102,0.086
	c-0.738,1.621-1.477,3.238-2.219,4.871c-0.219-0.43-0.488-0.949-0.758-1.469c-0.008,0.008-0.012,0.016-0.02,0.023
	c0.004-0.012,0.008-0.023,0.012-0.035c-1.211-1.859-1.32-1.5,0.055-3.348c0.234-0.312,0.488-0.609,0.758-0.887
	c2.023-2.078,2.035-4.703,2.098-7.387c-0.582,1.211-1.035,2.406-1.691,3.477c-1.113,1.824-2.238,3.622-2.336,5.84
	c0,0.047-0.074,0.086-0.203,0.227c-0.273-0.562-0.528-1.082-0.781-1.605l0.019,0.02c0.008-0.027,0.016-0.059,0.024-0.086
	c-0.012,0.016-0.024,0.035-0.036,0.051c-0.101-0.332-0.32-0.691-0.254-0.984c0.317-1.398,0.68-2.793,1.098-4.168
	c0.484-1.602,0.336-3.129-0.32-4.645C15.704,1.371,15.555,0.785,15.297,0c-0.109,1.688-0.109,3.199-0.336,4.676
	c-0.234,1.512-0.695,2.988-1.086,4.605c-1.152-3.363-4.406-4.547-6.843-6.836c0.05,0.262,0.054,0.348,0.086,0.418
	c1.535,3.449,3.75,6.324,6.98,8.367c0.387,0.246,0.68,0.645,1.016,0.969c-3.383-2.246-5.625-3.027-8.922-2.887
	c1.215,0.992,2.39,1.879,3.91,2.215c1.227,0.27,2.453,0.574,3.648,0.961c0.719,0.234,1.379,0.653,2.063,0.984
	c-0.027,0.047-0.051,0.098-0.074,0.145c-3.785-1.172-7.567-2.344-11.352-3.512c-0.031,0.086-0.066,0.172-0.098,0.258
	c0.958,0.648,1.915,1.305,2.879,1.949c1.473,0.984,3.036,1.641,4.864,1.617c1.222-0.016,2.449,0.156,3.672,0.273
	c0.242,0.023,0.562,0.133,0.683,0.312c0.426,0.63,0.781,1.31,1.293,2.196c-0.527-0.246-0.805-0.395-1.098-0.508
	c-1.386-0.547-2.747-1.203-4.175-1.594c-1.903-0.52-3.871-0.793-5.793-1.234c-1.024-0.233-2.016-0.61-3.246-0.988
	c2.089,2.406,4.476,3.742,7.429,4.005c2.032,0.179,4.059,0.382,6.094,0.476c1.16,0.055,1.406,0.832,1.688,1.531
	c-1.359-0.371-2.719-0.809-4.109-1.113c-3.183-0.699-6.379-1.336-9.57-1.988c-0.492-0.102-0.996-0.141-1.524-0.215
	c0.86,0.527,1.661,0.961,2.403,1.484c1.965,1.391,4.097,2.152,6.535,2.203c2.09,0.043,4.18,0.293,6.266,0.484
	c0.262,0.023,0.602,0.188,0.738,0.395c0.402,0.605,0.719,1.266,1.195,2.137c-0.586-0.285-0.918-0.488-1.273-0.613
	c-1.32-0.469-2.617-1.157-3.98-1.32c-4.379-0.531-8.785-0.867-13.152-1.277C2.508,18.762,2.954,19,3.418,19.188
	c3.426,1.367,6.871,2.676,10.618,2.859c2.035,0.098,4.074,0.164,6.105,0.27c0.273,0.016,0.664,0.086,0.781,0.273
	c0.418,0.652,0.742,1.363,1.051,1.961c-1.598-0.383-3.141-0.887-4.727-1.102c-3.593-0.484-7.208-0.801-10.805-1.234
	c-1.578-0.188-3.141-0.488-4.891-0.77c3.504,2.441,7.051,3.93,11.293,3.629c2.945-0.207,5.922,0.055,8.887,0.141
	c0.281,0.008,0.672,0.188,0.809,0.414c0.43,0.695,0.758,1.449,1.215,2.352c-0.348-0.152-0.512-0.211-0.664-0.285
	c-2.531-1.242-5.18-1.676-8.015-1.527C12.301,26.312,9.5,26.176,6.723,26C4.473,25.855,2.239,25.465,0,25.184
	c0.86,0.484,1.754,1.031,2.715,1.227c3.727,0.746,7.453,1.578,11.223,1.996c3.113,0.348,6.289,0.152,9.434,0.207
	c0.254,0.004,0.652,0,0.73,0.141c0.582,1.047,1.098,2.129,1.754,3.434c-0.73-0.281-1.172-0.453-1.613-0.625
	c-2.699-1.027-5.422-1.91-8.367-1.848c-2.097,0.047-4.204,0.113-6.296,0.004c-1.571-0.082-3.141-0.348-4.684-0.684
	c-1.246-0.271-2.449-0.758-3.82-1.199c2.222,1.742,4.472,3.109,7.148,3.531c1.414,0.223,2.859,0.262,4.297,0.324
	c3.98,0.168,7.965,0.246,11.941,0.48c1.57,0.093,2.18,0.895,2.406,2.547c-0.059,0.008-0.117,0.035-0.172,0.02
	c-0.289-0.074-0.578-0.152-0.867-0.234C22.29,33.508,18.688,33,15.008,32.91c-3.879-0.098-7.781,0.191-11.789-0.688
	c0.235,0.18,0.32,0.262,0.418,0.316c4.727,2.562,9.719,3.586,15.094,2.867c2.484-0.332,5.016-0.332,7.527-0.441
	c0.344-0.016,0.863,0.121,1.02,0.367c0.398,0.629,0.641,1.359,0.996,2.156c-3.527-1.371-4.188-1.363-7.125-1.164
	c-3.703,0.254-7.418,0.367-11.129,0.422c-1.953,0.027-3.906-0.199-5.965-0.316c0.164,0.082,0.234,0.133,0.313,0.156
	c3.89,1.145,7.836,2.102,11.91,2.062c3.891-0.035,7.781-0.348,11.672-0.516c0.246-0.012,0.648,0.082,0.727,0.246
	c0.512,1.066,0.949,2.164,1.535,3.535c-4.094-2.105-8.184-1.812-12.297-1.508c-4.21,0.312-8.43,0.637-12.793-0.254
	c0.25,0.176,0.352,0.281,0.477,0.336c2.844,1.25,5.789,2.246,8.902,2.316c1.985,0.047,3.981-0.379,5.969-0.586
	c3.016-0.312,6.035-0.523,9.051-0.066c0.359,0.055,0.824,0.285,0.992,0.578c0.379,0.664,0.602,1.414,0.879,2.105
	c-0.078,0.062-0.105,0.098-0.117,0.094c-0.172-0.059-0.34-0.113-0.504-0.188c-2.328-1.031-4.715-1.297-7.277-1.074
	c-3.906,0.344-7.835,0.43-11.758,0.512c-1.836,0.039-3.68-0.195-5.52-0.309c3.289,1.148,6.633,2.164,9.997,3.102
	c1.617,0.453,3.27,0.312,4.895-0.07c1.195-0.281,2.371-0.684,3.578-0.871c2.062-0.316,4.141-0.523,6.215-0.727
	c0.266-0.027,0.719,0.164,0.805,0.371c0.547,1.305,1.02,2.645,1.566,4.113c-0.543-0.147-0.914-0.246-1.281-0.348
	c-2.703-0.738-5.465-1.41-8.238-0.707c-3.582,0.902-7.172,0.93-10.8,0.629c-0.536-0.047-1.071-0.113-1.606-0.176
	c-0.496-0.059-0.992-0.121-1.484-0.184c7.691,3.215,15.516,3.664,23.754,1.285c1.309,4.641,2.652,9.395,3.992,14.145
	c0.102-0.316,0.098-0.613,0.023-0.891c-0.875-3.359-1.723-6.727-2.66-10.07c-0.578-2.07-0.66-2.09,1.324-3.031
	c2.352-1.117,4.754-2.137,7.102-3.262c2.973-1.422,4.836-3.902,6.32-6.758c-2.969,1.75-5.875,3.516-8.832,5.191
	c-2.504,1.422-4.789,3.074-6.453,5.477c-0.023,0.031-0.105,0.023-0.211,0.047c-0.141-0.375-0.289-0.758-0.426-1.145
	C32.872,47.43,32.875,47.438,35.301,46.039z"/>
<path fill="#17803F" d="M18.465,3.453C17.797,5,17.036,6.605,16.411,8.265c-0.414,1.106-0.648,2.282-0.954,3.427
	c0.407-0.59,0.778-1.215,1.243-1.75C18.387,8.012,18.422,5.68,18.465,3.453z"/>
</svg>
