<?xml version="1.0" encoding="utf-8"?>
<!-- Generator: Adobe Illustrator 16.0.4, SVG Export Plug-In . SVG Version: 6.00 Build 0)  -->
<!DOCTYPE svg PUBLIC "-//W3C//DTD SVG 1.0//EN" "http://www.w3.org/TR/2001/REC-SVG-20010904/DTD/svg10.dtd">
<svg version="1.0" id="Layer_1" xmlns="http://www.w3.org/2000/svg" xmlns:xlink="http://www.w3.org/1999/xlink" x="0px" y="0px"
	 width="68.45px" height="52.173px" viewBox="0 0 68.45 52.173" enable-background="new 0 0 68.45 52.173" xml:space="preserve">
<path fill="#17803F" d="M65.964,36.571c-0.148,0.074-0.227,0.074-0.301,0.074c-1.051-1.125-3.375-0.75-4.5,0
	c-1.273,0.898-3.301,3.301-4.5,5.102c-0.977,1.426-3,3.977-5.625,4.801c-1.574,0.449-2.852,0.449-3.523,0.375
	c0-0.074,0-0.227,0-0.301c7.352-1.727,8.477-8.176,8.551-8.25c0.074-0.375-0.227-0.824-0.602-0.824
	c-0.375-0.074-0.824,0.227-0.824,0.602c-0.074,0.227-0.977,5.551-7.352,7.051c-0.148-0.523-0.375-0.977-0.676-1.273
	c-0.148-0.148-0.301-0.301-0.449-0.523c-0.75-0.977-1.875-2.398-3.977-2.551c-0.449,0-0.75-0.375-1.125-0.898
	c0.977-0.148,2.176-0.75,2.852-1.5c0.375-0.375,0.676-0.977,0.977-1.648c0.523-0.977,1.125-2.176,1.801-2.324
	c0.602-0.148,0.75-0.074,1.051,0c0.375,0.148,0.824,0.301,1.727,0.148c0.898-0.148,1.273-0.375,1.574-0.523
	c0.074-0.074,0.148-0.074,0.227-0.148l0,0c0.074,0,0.148,0,0.301,0c0.75,0,1.648-0.602,3.375-1.727
	c1.125-0.75,2.398-1.648,3.449-2.102c2.102-0.898,3.824-0.227,4.273,0.227c0.148,0.148,0.227,0.148,0.301,0.301
	c0.148,0.148,0.301,0.301,0.449,0.449c0,0.074,0.074,0.148,0.148,0.227c0.148,0.148,0.375,0.302,0.602,0.302
	c0.074,0,0.148,0,0.148,0c0.375,0.147,0.75,0.226,1.352,0.226l0,0c0.449,0,0.676,0.977,0.977,1.949
	c0.074,0.227,0.148,0.602,0.227,0.825C67.089,34.997,66.562,36.196,65.964,36.571z M45.487,48.872
	c-1.051,1.051-3.977,2.102-7.426,2.102c-3.227,0-5.25-1.125-7.574-2.551c-0.898-0.523-1.875-0.75-2.852-0.75
	c-1.574,0-3,0.523-3.301,0.676c-2.023,0.449-3.227-0.301-3.676-1.125c-0.148-0.227-0.227-0.449-0.375-0.676
	c-0.148-0.523-0.824-3.602,0.449-7.125c1.648-4.426,0.074-8.102,0-8.25c-0.148-0.375-0.602-0.523-0.977-0.375
	s-0.523,0.602-0.375,0.977c0,0,1.426,3.301,0,7.125c-0.148,0.449-0.301,0.977-0.449,1.426c-0.898-2.176-2.625-4.949-5.625-6.977
	c-0.375-0.227-0.824-0.148-1.051,0.227s-0.148,0.824,0.227,1.051c4.727,3.148,5.926,8.625,6,9.227c0,0.523,0,1.051,0.074,1.5
	c-0.227-0.074-0.523-0.227-0.824-0.301c-1.727-0.523-3.602-2.926-5.25-5.023c-1.801-2.324-6.226-5.551-8.476-5.773
	c-0.977-0.074-1.649,0.148-2.102,0.301c-0.074,0-0.227,0.074-0.301,0.074c0,0-0.074-0.074-0.074-0.148
	c-0.375-0.523-0.523-1.125,1.199-3.227c1.274-1.574,4.274-2.102,5.852-2.477l0.375-0.074c0.898-0.148,1.949,0.301,3,0.824
	c0.449,0.227,0.977,0.449,1.426,0.602c1.199,0.449,2.25-0.227,3.074-0.75c0.602-0.375,1.125-0.676,1.5-0.602h0.375
	c1.273,0.148,2.551,0.227,3.074,1.051c0.898,1.352,1.727,1.574,2.398,1.648h0.074c0.449,0.074,1.648,0.75,2.324,1.051l0.375,0.148
	c0.074,0.148,0.148,0.676,0.148,1.051c0.074,0.75,0.148,1.574,0.676,1.949c0.602,0.449,1.199,0.301,1.574,0.148
	c0.301-0.074,0.602-0.227,1.051,0c0.375,0.148,0.449,0.301,0.676,0.75c0.301,0.523,0.602,1.199,1.648,1.426
	c0.676,0.148,1.426,0.074,2.176-0.074c0.977-0.148,1.949-0.301,3.074,0.074c0.75,0.227,1.125,1.051,1.574,1.875
	c0.523,1.051,1.199,2.324,2.773,2.398c1.426,0.074,2.176,1.051,2.852,1.949c0.148,0.227,0.301,0.449,0.449,0.602
	C46.089,45.497,46.464,47.896,45.487,48.872z M3.635,26.673c-0.375-0.227-0.375-1.5,0.301-2.926c0.75-1.574,1.125-4.273,0.375-6.301
	c-0.75-2.023-1.351-4.352-0.074-6.074c2.398-3.301,5.926-5.477,8.699-5.477c1.199,0,1.949,0.148,2.551,0.301
	c1.125,0.227,2.023,0.375,3.75-0.301c1.426-0.523,2.25-1.199,3.074-1.801c0.75-0.523,1.352-1.051,2.398-1.426
	c0.898-0.301,1.426,0.148,1.648,0.523c-0.148,0.148-0.227,0.301-0.375,0.449c-0.074,0.148-0.227,0.301-0.301,0.449
	c-0.75,0.824-2.551,2.102-4.5,2.102c-2.176,0-4.273,3.375-6.227,6.898c-0.148,0.301-0.301,0.602-0.449,0.824
	c-1.051,1.801-0.301,3.449,0,3.977c-0.375,0.676-0.602,1.273-0.824,1.949c-1.352-3.75-4.125-5.699-4.273-5.773
	c-0.375-0.227-0.824-0.148-1.051,0.227c-0.226,0.375-0.148,0.824,0.227,1.051c0.074,0,4.199,2.926,4.351,8.324
	c0,0.074,0,0.074,0,0.148c-0.148,1.949,0.148,3.676,0.375,4.801c-0.227-0.074-0.375-0.148-0.602-0.227
	c-1.199-0.523-2.551-1.199-3.898-0.898l-0.449-0.148c-0.977,0.148-2.324,0.449-3.602,0.977C4.612,27.72,4.312,27.048,3.635,26.673z
	 M30.339,2.446c1.426-0.301,6.148-1.352,8.551-0.449c0.824,0.301,1.352,0.602,1.875,0.824c0.898,0.523,1.801,0.977,3.301,0.898
	c1.727-0.074,3.375,0.824,3.977,1.727c0.148,0.301,0.301,0.898,0.375,1.574c0.227,1.199,0.449,2.699,1.426,4.051
	c0.75,1.051,1.574,1.727,2.25,2.25c0.602,0.449,1.051,0.898,1.199,1.273s-0.074,1.273-0.227,2.102
	c-0.148,0.824-0.375,1.648-0.301,2.477c0.074,0.75,0.227,1.352,0.375,1.949c0.148,0.602,0.301,1.051,0.227,1.574
	c-0.148,0.824-0.676,1.648-1.5,2.398c-0.898-3.227-2.625-6-4.125-7.574c-0.898-0.898-1.727-1.648-2.551-2.324
	c-0.977-0.824-1.875-1.5-2.023-2.176l-0.148-0.375l-0.449-0.074c-0.449-0.148-0.898-0.074-1.125,0.074
	c-6.602-5.023-13.352-3-14.926-2.398c-0.074-0.227-0.227-0.375-0.449-0.523c-0.227-0.074-0.523-0.148-0.75,0
	c-0.375,0.148-0.676,0.375-0.977,0.602c-0.449,0.301-0.824,0.602-1.727,0.898c-1.5,0.523-4.426,1.648-7.125,5.25
	c-0.074-0.449-0.074-1.051,0.301-1.648c0.148-0.227,0.301-0.523,0.449-0.824c0.898-1.648,3.449-6.074,4.949-6.074
	c2.551,0,4.727-1.574,5.625-2.625c0.148-0.148,0.227-0.301,0.375-0.523C27.862,3.646,28.386,2.896,30.339,2.446z M36.112,17.97
	c-0.148,0.074-0.227,0.148-0.375,0.301c-0.301-0.148-0.602-0.227-0.898-0.301c-0.375-0.074-0.75-0.227-0.977-0.523
	c-0.301-0.375-0.375-1.051-0.523-1.727c-0.227-1.051-0.375-2.102-1.273-2.773c-0.75-0.523-1.5-0.449-2.023-0.375
	s-0.75,0.074-0.977-0.227c-0.375-0.375-0.75-0.676-1.125-0.977c-0.074-0.074-0.148-0.148-0.227-0.148
	c2.023-0.602,7.426-1.648,12.75,2.324c-0.074,0.227-0.148,0.449-0.227,0.75c0,0.227,0,0.449,0,0.676c0,0.449,0,0.676-0.602,1.199
	s-1.199,0.75-1.875,1.051C37.237,17.372,36.714,17.595,36.112,17.97z M14.886,28.622c-0.449-1.648-1.352-6.824,1.574-11.102
	c2.477-3.602,5.176-4.574,6.676-5.176c1.051-0.375,1.574-0.75,2.023-1.051c0.074-0.074,0.227-0.148,0.301-0.227
	c0.375,0.523,0.977,1.051,1.5,1.426c0.375,0.301,0.75,0.523,1.051,0.824c0.75,0.75,1.648,0.676,2.25,0.602
	c0.449-0.074,0.676-0.074,0.977,0.148c0.375,0.301,0.523,1.051,0.676,1.801c0.148,0.824,0.301,1.727,0.824,2.324
	c0.523,0.75,1.273,0.898,1.801,1.051c0.148,0.074,0.449,0.074,0.523,0.148c0,0,0,0,0,0.074s0.074,0.148,0.074,0.227
	c-0.074,1.273,0.449,2.852,0.898,3.898c0.301,0.602,0.375,1.5-1.352,2.926c-1.352,1.199-2.852,2.398-2.926,5.176
	c-0.074,1.727,1.051,3.676,1.949,4.801c-0.301,0-0.523,0-0.75,0c-0.301-0.074-0.449-0.227-0.676-0.676
	c-0.227-0.523-0.602-1.125-1.5-1.5c-0.977-0.301-1.648-0.148-2.023,0c-0.074,0-0.148,0.074-0.148,0.074
	c-0.074-0.227-0.074-0.602-0.148-0.824c-0.074-0.824-0.148-1.801-0.977-2.25l-0.449-0.227c-1.125-0.602-2.102-1.051-2.699-1.199
	h-0.074c-0.523-0.074-0.898-0.148-1.5-1.051c-0.898-1.352-2.625-1.574-4.199-1.727h-0.375c-0.898-0.074-1.727,0.375-2.477,0.824
	C15.413,28.321,15.112,28.47,14.886,28.622z M50.362,32.747c-0.227,0.148-0.449,0.227-1.051,0.375c-0.074,0-0.074,0-0.148,0
	c0.074-0.523,0.148-0.977,0.227-1.426c0-0.074,0.074-0.227,0-0.301c0.676-8.699-4.199-12.074-4.426-12.227
	c-0.375-0.227-0.824-0.148-1.051,0.227s-0.148,0.824,0.227,1.051c0.148,0.074,3.227,2.25,3.75,7.727
	c-1.648-2.023-3.977-2.625-4.125-2.625c-0.375-0.074-0.824,0.148-0.898,0.523s0.148,0.824,0.523,0.898c0,0,3.523,0.898,4.426,4.5
	c-0.074,0.449-0.074,0.898-0.148,1.426c-0.301-0.074-0.676,0-1.199,0.148c-1.352,0.375-2.102,1.801-2.773,3.148
	c-0.301,0.523-0.523,1.051-0.75,1.352c-0.75,0.824-2.102,1.125-2.477,1.051c-0.074,0-0.074,0-0.148,0
	c-0.449-0.75-1.051-1.426-1.949-1.801c-1.051-0.375-2.023-0.301-2.926-0.227c-0.824-0.977-2.25-3-2.176-4.5
	c0.074-2.023,0.977-2.852,2.398-4.051c0.676-0.602,2.773-2.324,1.801-4.648c-0.824-1.949-1.051-3.602-0.523-3.898
	c0.449-0.301,0.898-0.449,1.352-0.602c0.75-0.301,1.574-0.602,2.398-1.352c0.977-0.977,1.051-1.574,1.051-2.324
	c0-0.148,0-0.301,0-0.449c0.074-0.301,0.148-0.523,0.227-0.602c0.449,0.824,1.273,1.5,2.324,2.398
	c0.75,0.602,1.574,1.273,2.398,2.176c2.477,2.625,5.477,8.477,3.977,14.176C50.511,32.673,50.437,32.673,50.362,32.747z
	 M53.589,8.372c1.426,0.375,2.477,1.574,3.824,3.375c1.125,1.574,2.25,1.875,3.449,2.176c0.301,0.074,0.676,0.148,1.051,0.301
	c1.727,0.602,2.699,1.426,3.301,2.926c0.375,0.898,0.148,2.102,0,3.227c-0.148,0.898-0.227,1.648-0.074,2.25
	c0.074,0.375,0.301,0.824,0.449,1.199c0.301,0.898,0.676,1.875,0.676,2.625c0,1.125-1.199,2.477-2.023,3.227l-0.074-0.074
	c-0.148-0.148-0.227-0.301-0.375-0.449c-0.824-0.824-3.148-1.727-5.926-0.523c-1.125,0.523-2.477,1.426-3.676,2.176
	c-0.602,0.449-1.426,0.977-1.949,1.273c0.375-1.875,0.301-3.75-0.074-5.551c1.426-1.125,2.324-2.398,2.625-3.75
	c0.148-0.898,0-1.574-0.227-2.25c-0.148-0.449-0.301-0.977-0.301-1.574c0-0.602,0.148-1.352,0.301-2.102
	c0.227-1.051,0.449-2.102,0.148-2.852s-0.898-1.273-1.648-1.875c-0.676-0.523-1.352-1.125-2.023-2.023
	c-0.301-0.449-0.523-0.898-0.676-1.352C51.261,8.446,52.687,8.146,53.589,8.372z M68.362,34.095
	c-0.074-0.227-0.148-0.449-0.148-0.676c-0.301-1.199-0.824-3.074-2.477-3c0.898-0.898,2.023-2.398,2.023-3.898
	c0-0.977-0.449-2.102-0.824-3.148c-0.148-0.449-0.301-0.824-0.375-1.125s0-1.051,0.074-1.648c0.148-1.199,0.375-2.699-0.148-3.977
	c-0.75-1.875-2.102-3.074-4.199-3.824c-0.375-0.148-0.75-0.227-1.125-0.301c-1.051-0.301-1.727-0.449-2.551-1.652
	c-1.199-1.727-2.625-3.375-4.648-3.977c-1.352-0.375-3,0-3.977,0.301c0-0.148-0.074-0.375-0.074-0.523
	c-0.148-0.898-0.227-1.574-0.602-2.176c-0.824-1.199-2.852-2.477-5.25-2.324c-1.125,0.074-1.648-0.227-2.551-0.75
	c-0.523-0.301-1.199-0.676-2.102-0.977c-2.699-0.977-7.5,0-9.375,0.449c-1.125,0.301-1.949,0.676-2.551,1.051
	c-0.676-0.824-1.801-1.352-3.227-0.898c-1.199,0.449-2.023,1.051-2.773,1.574s-1.5,1.125-2.699,1.574
	c-1.352,0.523-1.949,0.449-2.926,0.227c-0.676-0.148-1.574-0.301-2.852-0.301c-3.3,0-7.2,2.398-9.898,6.074
	c-1.875,2.625-0.676,6-0.074,7.5c0.601,1.574,0.301,3.824-0.301,5.176c-0.75,1.727-1.125,3.977,0.301,4.875
	c0.301,0.148,0.375,0.602,0.375,0.977c-0.676,0.375-1.199,0.824-1.649,1.352c-1.574,1.875-2.324,3.375-1.273,4.949
	c0.676,1.125,1.574,0.824,2.102,0.676c0.375-0.148,0.824-0.301,1.5-0.227c1.648,0.148,5.773,3,7.425,5.176
	c1.875,2.398,3.824,4.875,6,5.551c1.574,0.523,1.727,0.75,2.102,1.5v0.074c0.676,1.273,2.477,2.477,5.324,1.801l0.148-0.074
	c0.824-0.375,3.227-1.051,4.801-0.074c2.398,1.5,4.727,2.773,8.324,2.773c3.523,0,6.977-1.051,8.477-2.551
	c0.375-0.375,0.676-0.898,0.824-1.5c0.227,0,0.449,0,0.824,0c0.824,0,1.949-0.074,3.301-0.523c3.074-0.898,5.324-3.75,6.449-5.398
	c1.273-1.949,3.148-4.051,4.125-4.648c0.824-0.602,2.324-0.602,2.551-0.227l0.074,0.074c0.602,0.523,1.352,0.523,2.102,0.074
	C67.839,37.173,68.737,35.298,68.362,34.095z"/>
<path fill="#17803F" d="M36.862,44.821c-6.824-2.926-12.523-0.676-12.75-0.602c-0.375,0.148-0.602,0.602-0.449,0.977
	c0.148,0.375,0.602,0.602,0.977,0.449c0.074,0,5.398-2.102,11.625,0.602c0.074,0.074,0.227,0.074,0.301,0.074
	c0.301,0,0.602-0.148,0.676-0.449C37.386,45.423,37.237,44.97,36.862,44.821z"/>
<path fill="#17803F" d="M25.089,42.196c0.148,0,0.301-0.074,0.449-0.148c0,0,2.176-1.648,6.301-1.801c0.449,0,0.75-0.375,0.75-0.75
	s-0.375-0.75-0.75-0.75c-4.574,0.148-7.051,2.102-7.125,2.176c-0.301,0.227-0.375,0.75-0.148,1.051
	C24.636,42.122,24.862,42.196,25.089,42.196z"/>
<path fill="#17803F" d="M16.089,27.196c0.375,0,0.75-0.449,0.75-0.824c0.074-4.273,4.051-5.773,4.273-5.852
	c0.375-0.148,0.602-0.523,0.449-0.898c-0.148-0.375-0.523-0.602-0.977-0.449c-0.074,0-5.25,1.875-5.25,7.199
	C15.339,26.747,15.636,27.196,16.089,27.196L16.089,27.196z"/>
</svg>
