<?xml version="1.0" encoding="utf-8"?>
<!-- Generator: Adobe Illustrator 16.0.4, SVG Export Plug-In . SVG Version: 6.00 Build 0)  -->
<!DOCTYPE svg PUBLIC "-//W3C//DTD SVG 1.0//EN" "http://www.w3.org/TR/2001/REC-SVG-20010904/DTD/svg10.dtd">
<svg version="1.0" id="Layer_1" xmlns="http://www.w3.org/2000/svg" xmlns:xlink="http://www.w3.org/1999/xlink" x="0px" y="0px"
	 width="67.598px" height="60.291px" viewBox="0 0 67.598 60.291" enable-background="new 0 0 67.598 60.291" xml:space="preserve">
<path fill="#107F12" d="M65.644,11.916L65.644,11.916c-0.523,0-1.273,0-2.177-0.074h-0.977c-1.574-0.074-2.551-0.148-3.148-0.301
	c1.353-1.949,3.449-5.324,4.728-7.426c0.375,1.199,0.824,2.699,0.977,3.602c0.302,1.5,1.052,3.375,1.353,4.125
	C66.245,11.916,66.019,11.916,65.644,11.916z M55.292,22.791c-6.897,9.526-13.272,12.824-15.297,13.728
	c-0.147-2.324-1.272-6.677-4.647-8.7c-2.625-1.574-6-1.875-7.802-1.949C36.62,14.318,48.772,6.142,62.722,2.095
	c0.073,0,0.147,0,0.227,0c0.074,0,0.301,0.148,0.602,0.824c-1.272,2.102-4.051,6.75-5.477,8.699C58,11.766,57.926,11.919,58,12.067
	s0.148,0.301,0.301,0.301c0.375,0.148,1.125,0.301,2.398,0.449C59.495,15.74,57.468,19.791,55.292,22.791z M34.292,40.642
	c-0.147,0-0.301,0.148-0.375,0.301c-1.352,2.853-1.801,7.949-0.977,11.324c0.824,3.301-2.699,5.926-4.273,6.603
	c3.228-2.397,4.125-5.25,2.625-8.625c-1.5-3.449-0.75-5.25-0.75-5.25c0.074-0.228,0-0.522-0.227-0.603
	c-0.228-0.147-0.523-0.074-0.676,0.148c-0.074,0.148-0.978,1.352-0.824,6c0.147,3.977-5.176,7.727-7.051,8.773
	c-0.523,0.301-0.75,0.227-0.75,0.301c0,0,0,0,0-0.074c0-0.148,0-0.301,0.147-0.375c1.353-0.977,4.5-3.602,5.176-6.75
	c0.898-4.648-0.147-7.949-0.147-8.023c-0.074-0.147-0.148-0.227-0.301-0.301c-0.148-0.074-0.302,0-0.449,0.074
	c-0.074,0-5.699,3.449-7.949,4.727c-0.898,0.523-2.102,1.574-3.449,2.853c-2.176,1.948-4.801,4.426-6.602,4.801
	c-0.375,0.074-0.676,0.147-0.824,0.147c0.074-0.073,0.148-0.147,0.227-0.227c0.074,0,4.273-3.75,6.898-6.523
	c2.176-2.25,6.676-5.397,8.023-6.375c0.227-0.147,0.301-0.448,0.147-0.676c-0.147-0.227-0.449-0.301-0.676-0.147
	c-3.449,2.176-9.603,1.573-12.824,1.272c-0.301,0-0.602-0.074-0.897-0.074c-3.677-0.301-5.699,2.773-6.148,3.677
	c-0.148,0.301-0.301,0.448-0.375,0.603c0.148-1.427,1.426-3.228,3.148-4.5c1.801-1.353,3.75-1.728,5.176-1.125
	c3.897,1.801,9.824-0.978,10.125-1.052c0.227-0.073,0.375-0.375,0.227-0.603c-0.074-0.227-0.375-0.375-0.602-0.301
	c-2.023,0.603-5.25-2.926-7.574-5.477c-1.5-1.648-2.773-3.074-3.75-3.523c-1.574-0.676-3.523-0.375-4.875,0
	c0.676-0.522,1.875-0.977,4.125-0.897c2.398,0.073,4.875,2.551,6.898,4.5c2.022,2.022,3.823,3.823,5.25,2.698
	c2.25-1.875,4.5-4.426,4.573-4.573c0.074-0.074,0.148-0.228,0.148-0.375c0-0.978,0.227-1.647,0.75-2.177
	c1.051-0.897,2.772-0.602,2.772-0.602c0.074,0,0.148,0,0.228,0c0.147-0.074,0.301-0.148,0.75-0.449l0,0l0.074-0.074l1.272-2.324
	c1.574,0.227,3.523,0.676,5.103,1.648c3.147,1.875,4.198,6.375,4.125,8.477C37.819,39.216,35.269,40.49,34.292,40.642z
	 M28.069,28.115c-0.228-0.449-0.449-0.824-0.676-1.199c0.375,0,0.823,0,1.272,0.074L28.069,28.115z M48.319,5.693
	c0-1.875,0.449-3.676,0.602-4.051c0.523-0.602,5.023-0.977,6.375-0.301c0.523,0.301,1.949,0.75,3.228,1.051
	C54.921,3.665,51.546,5.244,48.25,7.04C48.245,6.517,48.319,5.916,48.319,5.693z M67.519,11.916v-0.074
	c-0.074-0.227-1.052-2.551-1.427-4.352c-0.301-1.273-0.977-3.523-1.352-4.801l0,0c-0.449-1.125-0.977-1.648-1.648-1.648
	c-0.147,0-0.375,0-0.522,0.074c-0.75,0.227-1.5,0.449-2.25,0.676c-1.353-0.227-3.898-0.977-4.574-1.352
	c-1.352-0.676-6.824-0.676-7.647,0.75c0,0,0,0.074-0.074,0.074c0,0.074-0.676,2.176-0.676,4.426c0,0.375-0.148,1.574-0.302,2.023
	c-7.948,4.648-15,10.801-20.772,18.301c-0.148,0.148-0.148,0.375-0.074,0.523l0,0c0.228,0.449,0.75,1.5,1.199,2.324l0,0
	c-0.523-0.074-2.25-0.148-3.449,0.824c-0.75,0.602-1.051,1.574-1.125,2.699c-0.522,0.603-2.397,2.773-4.352,4.273
	c-0.75,0.602-2.25-0.978-3.898-2.625c-2.102-2.103-4.727-4.727-7.574-4.801c-5.397-0.148-5.926,2.699-5.926,2.773
	c0,0.148,0.074,0.375,0.228,0.449c0.147,0.072,0.375,0.148,0.522,0.072c0,0,3.375-1.5,5.551-0.521
	c0.75,0.375,2.023,1.727,3.449,3.227c2.023,2.25,4.273,4.728,6.375,5.552c-2.031,0.983-5.18,1.733-7.43,0.684
	c-1.728-0.823-4.051-0.375-6.148,1.199c-1.949,1.426-3.824,3.824-3.602,6.074c0,0.147,0.074,0.227,0.227,0.375
	c0.074,0.073,0.301,0.227,0.676,0.147c0.449-0.074,0.898-0.522,1.353-1.352c0.602-1.051,2.25-3.449,5.25-3.227
	c0.301,0,0.602,0.073,0.897,0.073c2.478,0.228,6.449,0.603,9.898-0.073c-1.801,1.28-3.824,2.93-5.176,4.28
	c-2.625,2.699-6.824,6.449-6.824,6.449c-0.375,0.301-1.051,0.978-0.75,1.5c0.301,0.603,1.125,0.522,2.25,0.301
	c2.023-0.448,4.727-2.853,7.051-5.022c1.273-1.199,2.478-2.25,3.301-2.699c1.802-1.051,5.853-3.523,7.353-4.426
	c0.227,1.125,0.676,3.676,0,6.897c-0.603,2.853-3.824,5.478-4.801,6.147c-0.449,0.375-0.677,0.898-0.523,1.427
	c0.074,0.301,0.301,0.603,0.523,0.676c0.147,0.074,0.301,0.074,0.448,0.074c0.302,0,0.75-0.147,1.199-0.375
	c2.176-1.125,7.728-5.177,7.574-9.677c0-0.375,0-0.75,0-1.125c0.148,0.449,0.301,0.824,0.523,1.353
	c1.352,3.074,0.522,5.478-2.699,7.728c-0.074,0-0.074,0.074-0.074,0.074c-0.227,0.301-0.602,0.897-0.301,1.352
	c0.375,0.523,1.125,0.227,1.5,0.074c1.727-0.676,6.074-3.75,5.102-7.875c-0.75-3.074-0.375-7.728,0.824-10.426
	c1.273-0.375,3.824-1.728,5.176-3.898c1.199-0.449,8.324-3.375,16.273-14.324c1.949-2.699,4.051-6.602,5.699-10.574
	c0.227,0,0.448,0,0.676,0h0.977c0.898,0,1.648,0.074,2.176,0.074c1.273,0,1.574-0.148,1.802-0.375
	C67.594,12.365,67.519,12.142,67.519,11.916z"/>
<path fill="#107F12" d="M33.62,38.541c-1.272,0-2.25-1.051-2.25-2.25c0-1.272,1.051-2.25,2.25-2.25c1.273,0,2.25,1.051,2.25,2.25
	C35.944,37.567,34.894,38.541,33.62,38.541z M33.62,33.067c-1.801,0-3.227,1.5-3.227,3.228c0,1.802,1.5,3.228,3.227,3.228
	c1.801,0,3.228-1.5,3.228-3.228C36.917,34.49,35.417,33.067,33.62,33.067z"/>
<path fill="#107F12" d="M34.819,36.365c0,1.5-2.25,1.5-2.25,0S34.819,34.865,34.819,36.365"/>
</svg>
