<?xml version="1.0" encoding="utf-8"?>
<!-- Generator: Adobe Illustrator 16.0.4, SVG Export Plug-In . SVG Version: 6.00 Build 0)  -->
<!DOCTYPE svg PUBLIC "-//W3C//DTD SVG 1.0//EN" "http://www.w3.org/TR/2001/REC-SVG-20010904/DTD/svg10.dtd">
<svg version="1.0" xmlns="http://www.w3.org/2000/svg" xmlns:xlink="http://www.w3.org/1999/xlink" x="0px" y="0px"
	 width="65.121px" height="79.078px" viewBox="0 0 65.121 79.078" enable-background="new 0 0 65.121 79.078" xml:space="preserve">
<g id="Layer_1">
	<g>
		<path fill="#17803F" d="M20.979,58.982c-0.044,0.004-0.494,0.058-0.536,0.062c-0.333,0.039-0.619,0.094-0.948,0.143
			c-0.309,0.055-0.656,0.086-0.992,0.121c-0.684,0.062-1.383,0.098-2.086,0.125C15.014,59.488,13.6,59.5,12.19,59.48
			c-1.402-0.02-2.832-0.062-4.188-0.184c-1.309-0.094-2.602-0.535-3.883-1.027c-0.633-0.254-1.258-0.535-1.816-0.859
			c-0.211-0.121-0.43-0.266-0.566-0.383c0.008-0.02,0.016-0.035,0.027-0.059c0.254-0.426,0.77-0.93,1.266-1.395l0.391-0.363
			c0.145-0.16,0.223-0.141,0.516-0.57c0.168-0.293,0.219-0.5,0.277-0.711c0.059-0.207,0.094-0.402,0.129-0.594
			c0.246-1.512,0.285-2.934,0.328-4.379c0.035-1.438,0.039-2.871,0.027-4.301c0.008-1.473-0.184-2.961-0.422-4.371
			c-0.117-0.703-0.242-1.414-0.324-2.066L3.92,37.953l-0.012-0.191C3.905,37.641,3.92,37.547,3.936,37.5
			c0.016-0.055,0.008-0.035,0.055-0.086c0.039-0.062,0.227-0.105,0.535-0.504c0.07-0.094,0.121-0.223,0.164-0.348
			c0.035-0.121,0.043-0.23,0.051-0.348c-0.004-0.105-0.016-0.212-0.035-0.316c-0.02-0.102-0.027-0.102-0.039-0.16
			c-0.082-0.289-0.203-0.496-0.312-0.684c-0.227-0.363-0.465-0.656-0.699-0.949l-1.379-1.621c-0.211-0.262-0.414-0.527-0.562-0.773
			c-0.031-0.055-0.047-0.086-0.074-0.129c-0.023-0.047-0.055-0.129-0.082-0.202l0.004,0.011c0-0.008-0.004-0.016-0.004-0.016
			c0-0.008-0.004-0.016-0.004-0.016c0-0.004-0.004,0.008-0.004,0.008c-0.035,0.004,0.199-0.234,0.496-0.48
			c0.293-0.254,0.645-0.625,0.844-1.098c0.102-0.242,0.16-0.465,0.188-0.738c0.008-0.078,0.008-0.105,0.012-0.156l0.008-0.16
			L3.1,28.461l0.004-1.078l-0.012-2.141l-0.047-4.184l0.719-2.75l0.035-0.137l-0.02-0.141l-0.754-4.922v-0.594
			c2.438,1.984,8.176,2.812,18.371,2.812c7.398,0,14.844-0.996,18.094-3.168c-0.215,1.961-0.434,3.918-0.633,5.879
			c-0.277,2.841-0.562,5.676-0.723,8.543c-0.035,0.715-0.066,1.438-0.07,2.219 M11.12,9.547c-0.453,1.184-0.359,2.352,0.277,3.297
			c0.152,0.227,0.34,0.426,0.547,0.617c-6.766-0.637-8.477-2.016-8.781-3.363C7.881,8.391,10.713,9.383,11.12,9.547z M16.092,4.297
			c1.395-0.098,2.566,0.227,3.297,0.91c0.578,0.543,0.871,1.305,0.871,2.266c0,0.391,0.016,0.805,0.035,1.234
			c0.07,1.684,0.145,3.59-0.848,4.629c-0.184,0.191-0.418,0.34-0.668,0.469c-2.008-0.035-3.758-0.109-5.289-0.215
			c-0.641-0.293-1.145-0.68-1.473-1.164c-0.508-0.754-0.57-1.703-0.172-2.68C12.752,7.503,13.999,4.438,16.092,4.297z
			 M22.768,13.496l0.078,0.023c0.605,0.129,1.312,0.223,2.055,0.227c-1.109,0.047-2.273,0.078-3.5,0.078
			c-0.473,0-0.934-0.004-1.383-0.008c0.426-0.457,0.691-1.02,0.848-1.633C21.241,12.664,21.87,13.098,22.768,13.496z M22.639,8.703
			c0.504-0.562,1.027-1.148,1.371-1.754c0.551-0.977,0.535-2.246,0.523-3.363c-0.012-1.059-0.023-2.055,0.43-2.516
			c0.215-0.215,0.543-0.32,1.004-0.32c1.211,0,2.258,0.473,3.027,1.371c1.141,1.328,1.559,3.465,1.172,6.012
			c-0.285,1.87-1.008,3.223-2.152,4.016c-1.539,1.066-3.547,0.945-4.977,0.652c-1.105-0.5-1.723-1.023-1.836-1.559
			C21.042,10.488,21.819,9.621,22.639,8.703z M35.659,10.875c1.031-0.277,2.105-0.574,3.715-0.562
			c-1.199,1.398-5.82,2.945-13.527,3.383c0.891-0.105,1.793-0.383,2.598-0.938c0.609-0.422,1.105-0.977,1.504-1.652
			C32.686,11.664,34.139,11.285,35.659,10.875z M39.706,28.711c0-0.641,0.023-1.34,0.055-2.047
			c0.293-5.398,0.773-10.832,1.281-16.246c0.098-0.262,0.152-0.531,0.152-0.812V8.906l-0.699-0.047
			c-2.473-0.172-3.934,0.223-5.223,0.57c-1.336,0.359-2.516,0.668-4.695,0.277c0.145-0.454,0.258-0.941,0.336-1.465
			c0.422-2.766-0.059-5.117-1.344-6.612C28.663,0.578,27.389,0,25.975,0c-0.672,0-1.176,0.18-1.535,0.543
			c-0.676,0.68-0.66,1.832-0.648,3.051c0.012,1.074,0.023,2.188-0.426,2.988c-0.305,0.535-0.797,1.09-1.273,1.621
			c-0.355,0.398-0.715,0.805-1.008,1.215c-0.008-0.25-0.016-0.496-0.027-0.738c-0.016-0.418-0.035-0.824-0.035-1.203
			c0-1.18-0.375-2.129-1.109-2.816c-0.883-0.824-2.254-1.215-3.859-1.109C13.928,3.695,12.643,6,11.702,8.164
			C11.018,7.883,7.616,6.73,2.092,8.91L1.616,9.098L1.62,9.613c0.004,0.273,0.031,0.535,0.082,0.785v2.812l0.008,0.051l0.742,4.832
			l-0.742,2.703l-0.023,0.086v0.098l-0.008,4.266l-0.016,2.129l-0.016,1.059l-0.008,0.262l-0.004,0.105
			c-0.004,0.039-0.004,0.102-0.012,0.109c-0.012,0.078-0.039,0.203-0.082,0.289c-0.082,0.184-0.227,0.352-0.469,0.562
			c-0.121,0.105-0.266,0.219-0.43,0.371c-0.16,0.156-0.367,0.367-0.496,0.707c-0.066,0.168-0.094,0.355-0.094,0.527
			c0,0.09,0.008,0.168,0.02,0.25c0.004,0.043,0.012,0.078,0.023,0.113l0.012,0.055c0.012,0.039-0.008-0.012,0.031,0.105
			c0.035,0.09,0.055,0.156,0.102,0.262c0.055,0.113,0.117,0.242,0.176,0.344c0.215,0.367,0.445,0.668,0.676,0.965
			c0.461,0.586,0.938,1.117,1.367,1.652c0.211,0.267,0.414,0.531,0.559,0.773c0.047,0.078,0.078,0.145,0.102,0.199
			c-0.215,0.164-0.609,0.527-0.691,0.922c-0.094,0.293-0.113,0.555-0.109,0.789c0.004,0.113,0.008,0.23,0.02,0.344l0.027,0.266
			c0.094,0.758,0.215,1.453,0.328,2.152c0.227,1.398,0.395,2.742,0.383,4.121c0.004,1.418-0.004,2.836-0.043,4.242
			c-0.047,1.398-0.105,2.831-0.324,4.129c-0.027,0.156-0.062,0.316-0.098,0.449c-0.031,0.121-0.078,0.242-0.094,0.273
			c-0.043,0.043-0.156,0.148-0.223,0.211l-0.395,0.363c-0.531,0.512-1.086,0.984-1.582,1.773c-0.121,0.207-0.242,0.457-0.305,0.805
			c-0.008,0.098-0.012,0.199-0.012,0.297c-0.012-0.066,0.02,0.176,0.02,0.16l0.008,0.031l0.008,0.039l0.039,0.125
			c0.027,0.074,0.078,0.18,0.102,0.215l0.078,0.117c0.055,0.078,0.098,0.125,0.152,0.188c0.383,0.391,0.711,0.582,1.055,0.789
			c0.676,0.395,1.352,0.695,2.035,0.977c0.688,0.277,1.383,0.523,2.102,0.73c0.723,0.215,1.469,0.367,2.238,0.434
			c1.477,0.141,2.902,0.184,4.344,0.215c1.438,0.023,2.871,0.02,4.316-0.031c0.723-0.027,1.445-0.059,2.18-0.121
			c0.371-0.035,0.73-0.066,1.129-0.133c0.332-0.047,0.715-0.117,1.035-0.145c0.097-0.01,0.571-0.056,0.668-0.064"/>
		<path fill="#17803F" d="M26.346,30.277c-3.16,0.141-6.324,0.215-9.484,0.219c-0.863-0.137-1.723-0.293-2.57-0.496
			c-0.426-0.113-0.855-0.207-1.277-0.34c-0.422-0.121-0.84-0.254-1.254-0.402c-0.828-0.293-1.641-0.628-2.418-1.023
			c-0.387-0.203-0.77-0.41-1.133-0.648c-0.363-0.23-0.727-0.484-1.023-0.75l-0.512,0.551c0.145,0.215,0.309,0.383,0.477,0.559
			c0.164,0.176,0.344,0.328,0.531,0.473c0.363,0.301,0.754,0.566,1.164,0.785s0.816,0.449,1.25,0.617
			c0.43,0.176,0.859,0.344,1.297,0.488c0.438,0.152,0.875,0.289,1.316,0.41c0.441,0.137,0.887,0.23,1.332,0.344
			c0.891,0.207,1.793,0.363,2.691,0.5l0.051,0.008h0.051c3.191-0.016,6.375-0.152,9.559-0.332c1.59-0.086,3.18-0.223,4.77-0.371
			c1.586-0.152,3.172-0.324,4.754-0.539l-0.09-0.75C32.682,29.926,29.514,30.13,26.346,30.277z"/>
		<path fill="#17803F" d="M26.346,24.133c-3.16,0.141-6.324,0.215-9.484,0.219c-0.863-0.137-1.723-0.293-2.57-0.496
			c-0.426-0.113-0.855-0.207-1.277-0.34c-0.422-0.121-0.84-0.254-1.254-0.402c-0.828-0.293-1.641-0.629-2.418-1.023
			c-0.387-0.203-0.77-0.41-1.133-0.648c-0.363-0.23-0.727-0.484-1.023-0.75l-0.512,0.551c0.145,0.215,0.309,0.383,0.477,0.559
			c0.164,0.176,0.344,0.329,0.531,0.473c0.363,0.301,0.754,0.566,1.164,0.785s0.816,0.449,1.25,0.617
			c0.43,0.176,0.859,0.344,1.297,0.488c0.438,0.152,0.875,0.289,1.316,0.41c0.441,0.137,0.887,0.23,1.332,0.344
			c0.891,0.207,1.793,0.363,2.691,0.5l0.051,0.008h0.051c3.191-0.016,6.375-0.152,9.559-0.332c1.59-0.086,3.18-0.223,4.77-0.371
			c1.586-0.152,3.172-0.324,4.754-0.539l-0.09-0.746C32.682,23.785,29.514,23.988,26.346,24.133z"/>
		<path fill="#17803F" d="M6.331,37.676l-0.379-0.188l-1.055,2.949l0.441,0.074c0.047,0.008,4.582,0.781,5.844,2.68l0.645-0.383
			C11.76,42.68,10.081,39.527,6.331,37.676z"/>
		<path fill="#17803F" d="M16.971,54.438c-0.277-0.242-0.617-0.435-1.047-0.531c-0.234-0.066-0.371-0.07-0.562-0.109
			c-0.25-0.02-0.391-0.02-0.594-0.027c-0.348-0.02-0.707,0-1.059,0.012l0.078-0.07c0.152-0.145,0.309-0.277,0.465-0.473
			c0.152-0.188,0.328-0.445,0.371-0.797c0.043-0.355-0.078-0.652-0.188-0.855c-0.117-0.219-0.246-0.379-0.371-0.527
			c-0.121-0.152-0.258-0.281-0.379-0.41c-0.117-0.113-0.234-0.223-0.344-0.328c-0.875-0.817-1.457-1.359-1.457-1.359l-0.383,0.414
			c0,0,0.105,0.18,0.312,0.469s0.488,0.719,0.863,1.195c0.09,0.121,0.184,0.246,0.277,0.375c0.082,0.125,0.168,0.25,0.238,0.383
			c0.148,0.25,0.238,0.562,0.152,0.496c-0.004-0.062-0.207,0.156-0.52,0.355c-0.156,0.109-0.312,0.207-0.492,0.348
			c-0.074,0.059-0.195,0.164-0.289,0.257c-0.051,0.052-0.109,0.114-0.172,0.192c-0.062,0.086-0.141,0.18-0.223,0.402
			c-0.02,0.066-0.035,0.117-0.047,0.203c-0.012,0.098-0.016,0.195-0.004,0.293c0.031,0.246,0.145,0.469,0.297,0.633
			c0.289,0.276,0.445,0.293,0.586,0.348c0.238,0.062,0.379,0.066,0.508,0.078c0.258,0.012,0.465,0.016,0.672,0.004
			c0.391-0.031,0.773-0.059,1.148-0.086l0.27-0.02l0.199-0.012l0.031-0.004h0.008c0.012,0-0.105-0.004-0.055,0h0.02
			c0.16,0,0.41-0.016,0.453,0.004c0.172-0.004,0.391,0.066,0.527,0.141c0.312,0.129,0.5,0.441,0.625,0.68
			c0.059,0.121,0.094,0.223,0.113,0.293c0.023,0.074,0.027,0.09,0.027,0.086l0.562,0.004c0,0,0.066-0.199,0.051-0.574
			C17.631,55.543,17.506,54.949,16.971,54.438z"/>
	</g>
</g>
<g id="Layer_3">
	<polygon fill="#FFFFFF" points="39.542,28.482 36.854,30.607 35.979,33.357 35.479,35.232 33.604,36.232 31.792,37.795 
		28.729,43.42 22.854,54.545 21.604,57.982 22.542,59.732 41.854,34.982 	"/>
</g>
<g id="Layer_2">
	<g>
		<path fill="#17803F" d="M64.678,54.147l-0.056,0.112c-1.133,2.494-9.803,5.044-21.814,5.044c-12.069,0-20.681-2.55-21.814-5.044
			l-0.168-0.112c-0.057,0-0.057-0.339-0.057-0.454c0-0.85,0.907-1.812,2.606-2.605c1.133,2.438,2.322,3.512,2.322,3.57
			c0.112,0.112,0.228,0.172,0.396,0.172c0.228,0,0.794,0,1.36,0c0.962,0,2.095,0,2.55,0c1.189,1.021,2.55,1.812,4.078,2.095
			c0.057,0,0.057,0,0.112,0c0.056,0,0.171,0,0.228-0.056l3.739-1.588l4.645,2.154c0.057,0.056,0.171,0.056,0.228,0.056
			c0.113,0,0.171,0,0.283-0.056l4.477-2.494l5.043,1.812c0.171,0.056,0.339,0.056,0.454-0.057l3.399-1.927l3.571-0.056
			c0.171,0,0.283-0.057,0.396-0.172l1.077-1.133c0.056-0.056,0.112-0.171,0.112-0.228c0-0.112,0.228-0.905,0.34-2.039
			c1.643,0.794,2.55,1.756,2.55,2.606C64.737,53.809,64.678,54.147,64.678,54.147z M56.917,74.829
			c-0.228,0.679-1.528,1.36-3.512,1.927l4.759-17.96c2.267-0.566,4.194-1.305,5.554-2.154L56.917,74.829z M49.212,77.55
			l2.833-17.677c1.7-0.228,3.344-0.455,4.873-0.794l-4.76,17.96C51.251,77.207,50.289,77.378,49.212,77.55z M45.246,77.889
			l0.906-17.508c1.588-0.057,3.172-0.172,4.645-0.34l-2.833,17.677C47.173,77.773,46.263,77.833,45.246,77.889z M44.112,77.945
			c-0.455,0-0.906,0-1.36,0c-0.455,0-0.906,0-1.36,0L40.43,60.381c0.794,0,1.528,0.056,2.322,0.056s1.528,0,2.322-0.056
			L44.112,77.945z M37.425,77.662l-2.833-17.677c1.529,0.171,3.116,0.283,4.646,0.339l0.905,17.509
			C39.296,77.833,38.331,77.773,37.425,77.662z M33.403,77.039l-4.816-17.963c1.528,0.339,3.172,0.623,4.872,0.794l2.833,17.677
			C35.215,77.378,34.253,77.207,33.403,77.039z M28.587,74.829l-6.743-18.188c1.361,0.85,3.288,1.588,5.554,2.154l4.76,17.96
			C30.115,76.189,28.87,75.508,28.587,74.829z M25.299,45.593c0.283,2.777,1.588,5.837,3.571,8.104c-0.906,0-1.983,0-2.549,0
			c-0.339-0.339-1.189-1.36-1.983-3.116C23.316,48.143,24.509,46.442,25.299,45.593z M26.433,43.778
			c0.171-1.588,0.907-4.25,4.193-4.645c-0.794,2.72-0.17,6.289,1.588,8.669c1.133,1.529,2.095,2.379,2.833,3.117
			c1.133,1.077,1.812,1.699,2.378,3.455l-3.287,1.417C29.266,54.543,25.981,48.37,26.433,43.778z M31.987,38.623
			c0.171-0.339,0.395-0.679,0.623-1.021c0.51-0.623,1.189-1.133,2.266-1.417c0.056,0,0.056,0,0.113,0
			c-0.34,0.794-0.455,1.644-0.396,2.55c0.171,2.154,1.36,4.137,2.662,5.722c1.077,1.36,2.21,2.378,2.776,2.833
			c0.624,0.51,1.417,1.077,2.266,1.644c0.624,0.396,1.305,0.85,1.928,1.36c1.587,1.189,3.004,2.438,3.06,3.739l-0.906,0.51
			l-3.344,1.871l-3.571-1.644l-0.793-0.339c-0.455-1.529-1.021-2.379-1.756-3.173c-0.339-0.339-0.679-0.679-1.021-1.021
			c-0.793-0.738-1.644-1.529-2.721-3.005c-0.566-0.794-1.02-1.699-1.359-2.661C31.193,42.421,31.249,40.267,31.987,38.623z
			 M36.408,35.846c0.395,0.511,0.737,0.794,1.021,1.133c0.396,0.396,0.679,0.738,0.962,1.245c0.171,2.323,0.793,3.626,10.254,7.366
			c7.253,2.889,7.422,7.254,7.31,8.328l-3.004,1.699l-4.533-1.644c-0.056-2.378-2.945-4.306-5.495-6.062
			c-0.85-0.566-1.644-1.077-2.154-1.528c-2.267-1.927-4.816-4.987-5.043-7.761C35.613,37.604,35.896,36.696,36.408,35.846z
			 M38.163,29.557c0.566-0.455,1.361-0.339,2.494-0.112c0.622,0.112,1.359,0.283,2.039,0.283c0.679,0,1.417-0.112,2.039-0.283
			c1.245-0.227,1.983-0.398,2.606,0.112c1.189,0.962,1.812,2.266,1.812,3.795c0,1.133-0.228,2.039-0.738,2.777
			c-1.133-0.679-1.927-1.189-1.927-1.245c-0.171-0.112-0.454-0.112-0.623,0c-0.339,0.227-1.7,1.189-2.21,2.322
			c-1.473-1.021-2.322-1.871-2.322-1.927c-0.171-0.171-0.454-0.228-0.678-0.112c-0.172,0.112-1.19,0.738-1.757,1.587
			c-0.171-0.227-0.395-0.454-0.566-0.623c-0.395-0.396-0.793-0.794-1.36-1.587c-0.112-0.112-0.283-0.228-0.455-0.228l0,0
			c-0.056-0.339-0.056-0.679-0.056-1.021C36.348,31.768,36.974,30.463,38.163,29.557z M53.745,39.812
			c2.662,0.511,4.477,1.473,5.327,2.89c0.454,0.737,0.567,1.416,0.567,1.982c-0.057-0.056-0.113-0.056-0.172-0.111
			c-3.683-2.211-7.876-3.684-10.653-4.646c-1.643-0.566-3.06-1.304-4.25-2.039c0.112-0.51,0.85-1.304,1.588-1.812
			C47.285,36.867,51.251,39.36,53.745,39.812z M60.771,52.731l-0.794,0.85l-2.889,0.057c0.056-1.7-0.679-6.232-8.045-9.122
			c-2.605-1.021-4.533-1.871-5.894-2.55c-2.889-1.473-3.455-2.378-3.626-3.343c-0.057-0.171-0.057-0.396-0.057-0.566
			c0-0.511,0.679-1.133,1.305-1.588c0.906,0.85,3.627,3.172,7.649,4.533c2.777,0.906,6.855,2.438,10.426,4.533
			C61.904,47.293,60.939,51.882,60.771,52.731z M62.188,49.843c-0.057-1.417-0.396-3.061-1.473-4.306
			c0.113-0.623,0.228-2.039-0.678-3.456c-1.021-1.699-3.116-2.889-6.121-3.399c-1.245-0.227-3.06-1.133-4.533-1.983
			c0.624-0.906,0.907-2.04,0.907-3.344c0-1.927-0.794-3.512-2.266-4.704c-1.021-0.793-2.267-0.566-3.4-0.339
			c-0.623,0.112-1.246,0.228-1.871,0.228c-0.623,0-1.245-0.112-1.872-0.228c-1.188-0.227-2.378-0.454-3.399,0.339
			c-1.472,1.189-2.266,2.777-2.266,4.704c0,0.567,0.057,1.077,0.171,1.529c-1.927,0.283-3.399,1.36-4.306,3.06
			c-3.343,0.171-5.438,2.266-5.778,5.722c0,0.171,0,0.339-0.056,0.454c-0.228,0.171-3.172,2.379-2.267,5.894
			c-2.095,0.962-3.344,2.21-3.344,3.627c0,0.339,0.057,0.679,0.228,0.962l7.649,20.568c1.018,2.718,8.612,3.907,15.239,3.907
			s14.221-1.189,15.242-3.854l7.649-20.568c0.112-0.339,0.228-0.622,0.228-0.962C65.871,52.165,64.454,50.86,62.188,49.843z"/>
	</g>
</g>
</svg>
