<?xml version="1.0" encoding="utf-8"?>
<!-- Generator: Adobe Illustrator 16.0.4, SVG Export Plug-In . SVG Version: 6.00 Build 0)  -->
<!DOCTYPE svg PUBLIC "-//W3C//DTD SVG 1.0//EN" "http://www.w3.org/TR/2001/REC-SVG-20010904/DTD/svg10.dtd">
<svg version="1.0" id="Layer_1" xmlns="http://www.w3.org/2000/svg" xmlns:xlink="http://www.w3.org/1999/xlink" x="0px" y="0px"
	 width="40.214px" height="66.516px" viewBox="0 0 40.214 66.516" enable-background="new 0 0 40.214 66.516" xml:space="preserve">
<path fill="#17803F" d="M2.321,62.622c-0.075,0.676-0.149,1.352-0.227,1.949c-0.074,0.148,0.148,0.375,0.301,0.375
	c0.523,0,0.976,0,1.5,0c0.074-0.75,0.148-1.574,0.301-2.324C3.52,62.622,2.918,62.622,2.321,62.622z M24.969,43.571
	c0.75,6.074,1.5,12.074,2.25,18.148c0.074,0.449-0.301,0.898-0.75,0.824c-7.273,0-14.477,0-21.75,0
	c-0.074,0.75-0.148,1.574-0.301,2.324c8.324,0,16.574,0,24.899,0c0.148,0,0.375-0.148,0.375-0.301
	c-0.75-6.898-1.575-13.875-2.325-20.773c-0.074-0.148-0.226-0.227-0.375-0.227C26.242,43.571,25.571,43.571,24.969,43.571
	 M6.821,43.571C6.145,49.719,5.395,55.872,4.719,62.02c7.199,0,14.477,0,21.676,0c0.148,0,0.301-0.148,0.301-0.301
	c-0.75-6.074-1.5-12.148-2.25-18.148C18.52,43.571,12.668,43.571,6.821,43.571 M4.571,43.797c-0.75,6.074-1.5,12.148-2.25,18.301
	c0.601,0,1.199,0,1.8,0c0.676-6.148,1.426-12.301,2.102-18.449c-0.449,0-0.899,0-1.426,0C4.793,43.571,4.645,43.723,4.571,43.797
	 M21.969,40.195c0,0.602,0,1.125,0,1.727c1.273,0,2.625,0,3.898,0c0-0.602,0-1.125,0-1.727
	C24.52,40.195,23.242,40.195,21.969,40.195 M7.946,40.195c0,0.602,0,1.125,0,1.727c4.5,0,9,0,13.5,0c0-0.602,0-1.125,0-1.727
	C16.946,40.195,12.446,40.195,7.946,40.195 M5.543,40.195c0,0.602,0,1.125,0,1.727c0.602,0,1.199,0,1.875,0c0-0.602,0-1.125,0-1.727
	C6.821,40.195,6.145,40.195,5.543,40.195 M6.446,37.273c0,0.449,0.074,0.977,0.074,1.426c2.625,0,5.176,0,7.801,0
	c0-0.449,0-0.977,0-1.426C11.617,37.273,8.992,37.273,6.446,37.273 M3.742,36.07c0.075,0.75,0.075,1.5,0.149,2.324
	c0,0.148,0.148,0.301,0.301,0.301c0.601,0,1.199,0,1.8,0c0-0.449-0.074-0.977-0.074-1.426c-0.226-0.074-0.375-0.148-0.449-0.375
	c-0.148-0.227-0.074-0.523-0.148-0.75C4.793,36.07,4.27,36.148,3.742,36.07 M7.043,28.496c1.199,0,2.399,0,3.602,0
	c0-0.523,0-0.977,0-1.5c-1.199,0-2.399,0-3.602,0C7.043,27.523,7.043,28.047,7.043,28.496 M7.043,23.473c0,0.523,0,0.977,0,1.5
	c1.199,0,2.399,0,3.602,0c0-0.523,0-0.977,0-1.5C9.446,23.473,8.242,23.473,7.043,23.473 M6.895,20.023c0,0.523,0,0.977,0,1.5
	c1.199,0,2.398,0,3.601,0c0-0.523,0-0.977,0-1.5C9.367,20.023,8.094,20.023,6.895,20.023 M6.895,16.496c0,0.523,0,0.977,0,1.5
	c1.199,0,2.398,0,3.601,0c0-0.523,0-0.977,0-1.5C9.367,16.496,8.094,16.496,6.895,16.496 M29.844,26.547c1.199,0,2.324,0,3.523,0
	c0.977,0,1.875-0.75,2.102-1.727c0.074-0.301,0.074-0.602,0.074-0.824c0-3.227,0-6.449,0-9.676c0-0.227,0-0.523-0.074-0.75
	c-0.227-0.898-1.125-1.648-2.023-1.648c-0.825,0-1.649,0-2.477,0C30.594,16.797,30.219,21.672,29.844,26.547 M31.043,10.422
	c0.75,0,1.574,0,2.324,0c0.825,0,1.649,0.301,2.325,0.824c0.898,0.75,1.425,1.875,1.351,3c0,3.375,0,6.75,0,10.125
	c0,1.051-0.523,2.102-1.351,2.852c-0.676,0.523-1.5,0.898-2.399,0.898c-1.199,0-2.398,0-3.601,0
	c-0.075,0.602-0.075,1.125-0.149,1.727c1.5,0,3,0,4.5,0c0.899,0,1.801-0.227,2.551-0.75c1.273-0.824,2.102-2.25,2.102-3.75
	c0-3.977,0-7.875,0-11.852c0-0.602-0.149-1.273-0.375-1.875c-0.602-1.352-1.875-2.477-3.301-2.773
	c-0.602-0.148-1.199-0.074-1.727-0.074c-0.75,0-1.426,0-2.176,0C31.117,9.297,31.043,9.898,31.043,10.422 M27.293,4.723
	c0,0.074,0,0.227,0,0.301c-0.148,2.477-0.301,4.875-0.523,7.352c0.226,0.148,0.449,0.301,0.676,0.523
	c0.148,0.148,0.148,0.375,0.148,0.598c-0.523,7.727-0.977,15.375-1.5,23.102c0,0.375-0.375,0.75-0.75,0.676
	c-3.602,0-7.125,0-10.727,0c0,0.449,0,0.977,0,1.426c4.125,0,8.325,0,12.45,0c0.148,0,0.3-0.148,0.3-0.301
	c0.825-11.102,1.575-22.273,2.325-33.375c0-0.148-0.149-0.375-0.301-0.301C28.793,4.723,28.043,4.723,27.293,4.723 M10.27,4.723
	c1.426,1.051,2.773,2.102,4.199,3.148c1.574-1.051,3.148-2.102,4.727-3.148C16.27,4.723,13.27,4.723,10.27,4.723 M4.117,4.723
	c0.149,2.625,0.375,5.25,0.524,7.949c0.074,0,0.226,0.074,0.301,0.148c0.3,0.227,0.523,0.449,0.824,0.602
	c0.375,0.227,0.898,0.301,1.351,0.227c0.45,0,0.899-0.074,1.352-0.227c0.523-0.227,0.977-0.676,1.5-0.977
	c0.449-0.301,0.977-0.523,1.574-0.676c0.899-0.148,1.801-0.148,2.625,0.074c0-0.75,0-1.5,0-2.25
	c-0.226-0.074-0.375-0.227-0.523-0.301c-1.199-0.898-2.399-1.801-3.602-2.699C9.219,5.992,8.469,5.395,7.645,4.793
	C6.594,4.723,5.395,4.723,4.117,4.723 M1.492,5.098c0.75,10.125,1.426,20.324,2.176,30.449c0.074,0.074,0.227,0.074,0.301,0.074
	c0.449,0,0.824,0,1.273,0c0-0.375-0.074-0.824-0.074-1.199c5.699,0,11.399,0,17.102,0c0.601,0,1.125-0.523,1.125-1.125
	c0.523-7.199,0.976-14.398,1.5-21.602c0.523,0.074,0.976,0.227,1.426,0.449c0.148-2.324,0.3-4.727,0.449-7.051
	c0-0.148,0-0.227-0.074-0.301c-1.575,0-3.149,0-4.727,0c-0.074,0-0.148,0.074-0.227,0.074c-1.8,1.199-3.601,2.398-5.324,3.602
	c-0.601,0.375-1.125,0.75-1.726,1.125c0,0.824,0,1.648,0,2.477c0.675,0.301,1.273,0.75,1.875,1.199
	c0.824,0.523,1.8,0.523,2.699,0.375c0.898-0.227,1.574-0.898,2.398-1.352c0.825-0.449,1.801-0.602,2.7-0.602
	c-0.524,7.199-0.977,14.398-1.5,21.676c0,0.301-0.301,0.602-0.676,0.602c-5.699,0-11.399,0-17.176,0
	C4.563,27.145,4.114,20.32,3.66,13.492c0-0.301,0.149-0.602,0.375-0.75C3.887,10.043,3.66,7.418,3.512,4.719
	c-0.602,0-1.199,0-1.801,0C1.645,4.723,1.492,4.871,1.492,5.098 M24.446,1.496c0,0.602,0,1.125,0,1.727c1.574,0,3.074,0,4.648,0
	c0-0.449,0-0.898,0-1.352c0-0.148-0.148-0.375-0.375-0.375C27.293,1.496,25.867,1.496,24.446,1.496 M3.969,1.496
	c0,0.602,0,1.125,0,1.727c6.676,0,13.273,0,19.949,0c0-0.602,0-1.125,0-1.727C17.321,1.496,10.645,1.496,3.969,1.496 M2.321,1.797
	c0,0.449,0,0.898,0,1.352c0.375,0,0.75,0,1.125,0c0-0.602,0-1.125,0-1.727c-0.301,0-0.524,0-0.825,0
	C2.469,1.496,2.321,1.648,2.321,1.797 M0.821,1.648C0.895,0.75,1.719,0,2.621,0c8.7,0,17.477,0,26.176,0
	c0.899,0,1.727,0.75,1.801,1.648c0,0.602,0,1.273,0,1.875c0.601,0.375,0.898,1.125,0.75,1.801c-0.074,0.602-0.074,1.273-0.149,1.875
	c0.75,0,1.426,0,2.176,0c0.524,0,1.051,0,1.574,0.074c1.5,0.227,3,1.051,3.899,2.25c0.601,0.824,1.051,1.727,1.273,2.773
	c0.149,0.75,0.075,1.5,0.075,2.324c0,3.148,0,6.375,0,9.523c0,0.676,0.074,1.426-0.075,2.102c-0.226,1.426-0.976,2.699-2.023,3.602
	c-1.125,0.977-2.699,1.574-4.199,1.5c-1.5,0-2.926,0-4.426,0c-0.149,2.398-0.375,4.727-0.524,7.125c0,0.523-0.226,0.977-0.601,1.273
	c-0.301,0.301-0.676,0.449-1.051,0.449c0,0.676,0,1.273,0,1.949c0.602,0.148,1.125,0.602,1.352,1.2
	c0.074,0.301,0.074,0.523,0.148,0.824c0.75,6.824,1.5,13.574,2.324,20.398c0.075,0.75-0.449,1.574-1.199,1.801
	c-0.375,0.148-0.75,0.148-1.199,0.148c-8.774,0-17.625,0-26.399,0c-0.75,0-1.5-0.523-1.726-1.273
	c-0.074-0.227-0.074-0.449-0.074-0.676C1.348,57.743,2.172,50.993,3,44.168c0.074-0.227,0-0.523,0.149-0.75
	c0.148-0.449,0.449-0.825,0.898-1.051c0-0.676,0-1.426,0-2.102c-0.449-0.074-0.898-0.301-1.273-0.602
	c-0.301-0.301-0.45-0.75-0.45-1.199C1.574,27.363,0.75,16.266,0,5.238c0-0.602,0.301-1.199,0.824-1.574
	C0.821,2.848,0.821,2.246,0.821,1.648"/>
<path fill="#17803F" d="M15.071,49.946c-0.899,0.074-1.727,0.449-2.399,1.051c-0.676,0.602-1.199,1.426-1.426,2.324
	c-0.226,0.977-0.148,2.102,0.301,3c0.449,0.898,1.125,1.574,2.024,2.023c0.824,0.375,1.726,0.523,2.625,0.449
	c1.648-0.227,3.074-1.426,3.601-3c0.301-0.977,0.301-2.023,0-2.926c-0.301-0.898-0.898-1.648-1.648-2.176
	C17.242,50.098,16.117,49.872,15.071,49.946z M14.918,49.497c1.125-0.148,2.324,0.074,3.301,0.75
	c0.824,0.523,1.426,1.273,1.875,2.102c0.449,0.898,0.523,1.875,0.375,2.852c-0.227,1.426-1.125,2.699-2.324,3.449
	c-0.977,0.602-2.102,0.824-3.227,0.676c-1.426-0.227-2.773-1.051-3.601-2.324c-0.602-0.977-0.825-2.102-0.676-3.227
	c0.148-0.977,0.601-1.949,1.199-2.625C12.668,50.172,13.793,49.649,14.918,49.497"/>
<path fill="#17803F" d="M15.895,53.473c-0.449,0.301-0.899,0.676-1.051,1.199c-0.227,0.523-0.148,1.199,0.074,1.727
	c0.375,0.074,0.824,0.148,1.199,0c0.676-0.148,1.274-0.75,1.5-1.426c0.227-0.602,0.075-1.273-0.226-1.801
	C16.867,53.172,16.344,53.247,15.895,53.473z M13.867,53.098c-0.375,0.523-0.523,1.199-0.375,1.801
	c0.075,0.523,0.375,0.898,0.75,1.199c-0.148-0.676,0-1.5,0.375-2.102c0.45-0.75,1.352-1.273,2.325-1.273
	c-0.375-0.301-0.899-0.449-1.352-0.449C14.918,52.274,14.242,52.571,13.867,53.098 M14.844,50.774c1.051-0.227,2.176,0.074,3,0.75
	c0.676,0.523,1.199,1.352,1.352,2.176c0.148,0.824,0,1.727-0.375,2.477s-1.051,1.352-1.801,1.648c-0.899,0.375-1.875,0.375-2.774,0
	c-0.824-0.301-1.5-0.977-1.875-1.727c-0.449-0.898-0.523-2.023-0.148-2.926C12.594,51.899,13.645,50.997,14.844,50.774"/>
</svg>
