<?xml version="1.0" encoding="utf-8"?>
<!-- Generator: Adobe Illustrator 16.0.4, SVG Export Plug-In . SVG Version: 6.00 Build 0)  -->
<!DOCTYPE svg PUBLIC "-//W3C//DTD SVG 1.0//EN" "http://www.w3.org/TR/2001/REC-SVG-20010904/DTD/svg10.dtd">
<svg version="1.0" id="Layer_1" xmlns="http://www.w3.org/2000/svg" xmlns:xlink="http://www.w3.org/1999/xlink" x="0px" y="0px"
	 width="66.753px" height="66.973px" viewBox="0 0 66.753 66.973" enable-background="new 0 0 66.753 66.973" xml:space="preserve">
<path fill="#666666" d="M14.873,31.137c-1.398-2.854-2.109-5.895-2.109-9.031c0-11.358,9.242-20.602,20.602-20.602
	c11.36,0,20.602,9.242,20.602,20.602c0,3.138-0.707,6.177-2.109,9.031c-0.035,0.07-0.055,0.146-0.066,0.219
	c-2.776,6.595-15.547,21.496-18.43,24.816c-2.879-3.316-15.641-18.211-18.426-24.81C14.932,31.285,14.912,31.207,14.873,31.137z"/>
<path fill="#666666" d="M16.928,21.724c0-9.065,7.375-16.445,16.445-16.445c9.066,0,16.445,7.375,16.445,16.445
	c0,9.066-7.375,16.445-16.445,16.445C24.307,38.169,16.928,30.791,16.928,21.724z M51.314,21.724
	c0-9.895-8.051-17.945-17.945-17.945S15.428,11.83,15.428,21.724c0,9.895,8.051,17.945,17.945,17.945S51.314,31.619,51.314,21.724z"
	/>
<circle fill="#FFFFFF" cx="33.374" cy="21.599" r="16.833"/>
<path fill="#666666" d="M21.682,29.098V15.949c0-0.117,0.098-0.212,0.215-0.212h22.957c0.117,0,0.215,0.095,0.215,0.212v13.147
	c0,0.117-0.094,0.215-0.215,0.215H21.896C21.775,29.309,21.682,29.215,21.682,29.098z M45.814,29.098V15.949
	c0-0.531-0.434-0.962-0.965-0.962H21.896c-0.531,0-0.965,0.431-0.965,0.962v13.147c0,0.531,0.434,0.965,0.965,0.965h22.957
	C45.38,30.059,45.814,29.629,45.814,29.098z"/>
<path fill="#666666" d="M41.514,27.262H25.232c-0.148-0.738-0.73-1.32-1.469-1.469v-6.539c0.734-0.148,1.316-0.73,1.469-1.469
	h16.285c0.148,0.737,0.73,1.319,1.469,1.469v6.539C42.244,25.941,41.666,26.523,41.514,27.262z M43.357,18.539
	c-0.625,0-1.129-0.508-1.129-1.133c0-0.207-0.168-0.375-0.375-0.375h-16.96c-0.207,0-0.375,0.168-0.375,0.375
	c0,0.625-0.508,1.133-1.129,1.133c-0.207,0-0.375,0.168-0.375,0.375v7.215c0,0.207,0.168,0.375,0.375,0.375
	c0.625,0,1.129,0.508,1.129,1.133c0,0.207,0.168,0.375,0.375,0.375H41.85c0.207,0,0.375-0.168,0.375-0.375
	c0-0.625,0.508-1.133,1.129-1.133c0.207,0,0.375-0.168,0.375-0.375v-7.215C43.732,18.707,43.564,18.539,43.357,18.539z"/>
<path fill="#666666" d="M33.479,26.18c-2.016,0-3.656-1.641-3.656-3.656c0-2.015,1.641-3.655,3.656-3.655
	c2.015,0,3.655,1.641,3.655,3.655C37.134,24.539,35.494,26.18,33.479,26.18z M33.479,18.113c-2.43,0-4.406,1.978-4.406,4.406
	c0,2.43,1.977,4.407,4.406,4.407c2.429,0,4.406-1.978,4.406-4.407C37.885,20.09,35.908,18.113,33.479,18.113z"/>
<path fill="#666666" d="M34.251,21.309c0.207,0,0.375-0.168,0.375-0.375s-0.168-0.375-0.375-0.375h-0.503v-0.434
	c0-0.207-0.168-0.375-0.375-0.375s-0.375,0.168-0.375,0.375v0.434h-0.504c-0.207,0-0.375,0.168-0.375,0.375v1.478
	c0,0.207,0.168,0.375,0.375,0.375h1.379v0.953h-1.379c-0.207,0-0.375,0.168-0.375,0.375c0,0.206,0.168,0.375,0.375,0.375h0.504
	v0.434c0,0.207,0.168,0.375,0.375,0.375s0.375-0.168,0.375-0.375V24.49h0.503c0.207,0,0.375-0.169,0.375-0.375V22.41
	c0-0.207-0.168-0.375-0.375-0.375h-1.382v-0.728L34.251,21.309L34.251,21.309z"/>
<path fill="#666666" d="M34.119,65.473v-4.238c0-0.414-0.335-0.75-0.75-0.75s-0.75,0.336-0.75,0.75v4.238H2.096L9.303,53.84h12.852
	c0.414,0,0.75-0.336,0.75-0.75c0-0.413-0.336-0.75-0.75-0.75H10.232l5.219-8.422h5.941c5.219,6.819,11.008,13.43,11.41,13.882
	l0.57-0.487l-0.562,0.496c0.141,0.164,0.352,0.254,0.566,0.254l0,0c0.215,0,0.426-0.098,0.566-0.258
	c0.397-0.453,6.188-7.062,11.406-13.883h5.94l5.224,8.422H44.582c-0.414,0-0.75,0.336-0.75,0.75s0.336,0.75,0.75,0.75h12.855
	l7.211,11.633H34.119V65.473z M14.873,31.137c-1.398-2.854-2.109-5.895-2.109-9.031c0-11.358,9.242-20.602,20.602-20.602
	c11.36,0,20.602,9.242,20.602,20.602c0,3.138-0.707,6.177-2.109,9.031c-0.035,0.07-0.055,0.146-0.066,0.219
	c-2.776,6.595-15.547,21.496-18.43,24.816c-2.879-3.316-15.641-18.211-18.426-24.81C14.932,31.285,14.912,31.207,14.873,31.137z
	 M58.576,52.832c-0.039-0.103-0.094-0.195-0.168-0.271l-6.066-9.789c-0.137-0.224-0.379-0.354-0.637-0.354h-5.223
	c3.035-4.056,5.715-8.031,6.781-10.672c0.016-0.043,0.031-0.086,0.039-0.134c1.441-3.012,2.172-6.211,2.172-9.512
	C55.475,9.914,45.561,0,33.373,0S11.268,9.918,11.268,22.105c0,3.302,0.73,6.496,2.172,9.508c0.008,0.048,0.023,0.091,0.039,0.134
	c1.066,2.645,3.746,6.616,6.781,10.672h-5.223c-0.258,0-0.5,0.132-0.637,0.354l-6.066,9.789c-0.078,0.078-0.133,0.172-0.172,0.273
	L0.111,65.828c-0.145,0.229-0.148,0.522-0.016,0.758c0.133,0.238,0.383,0.387,0.656,0.387h65.25c0.272,0,0.522-0.147,0.655-0.387
	c0.134-0.239,0.125-0.527-0.02-0.762L58.576,52.832z"/>
</svg>
