<?xml version="1.0" encoding="utf-8"?>
<!-- Generator: Adobe Illustrator 16.0.4, SVG Export Plug-In . SVG Version: 6.00 Build 0)  -->
<!DOCTYPE svg PUBLIC "-//W3C//DTD SVG 1.0//EN" "http://www.w3.org/TR/2001/REC-SVG-20010904/DTD/svg10.dtd">
<svg version="1.0" id="Layer_1" xmlns="http://www.w3.org/2000/svg" xmlns:xlink="http://www.w3.org/1999/xlink" x="0px" y="0px"
	 width="49.986px" height="45.332px" viewBox="0 27.668 49.986 45.332" enable-background="new 0 27.668 49.986 45.332"
	 xml:space="preserve">
<path fill="#666666" d="M8.066,63.715V50.227c0.547,0.965,1.789,1.75,3.117,1.75c1.512,0,2.723-1.02,3.434-2.156
	c0.711,1.138,1.941,2.156,3.453,2.156s2.75-1.02,3.461-2.156c0.711,1.138,1.957,2.156,3.469,2.156c1.513,0,2.758-1.02,3.47-2.156
	c0.711,1.138,1.961,2.156,3.469,2.156c1.512,0,2.762-1.02,3.473-2.156c0.711,1.138,1.883,2.156,3.396,2.156
	c1.327,0,2.569-0.785,3.112-1.75v13.488H8.066z M13.711,48.422c-0.422,1.094-1.469,1.969-2.604,1.969S8.922,49.512,8.5,48.422
	H13.711z M8.398,47.329l4.062-18.57h3.965l-2.516,18.57H8.398z M27.602,48.422c-0.422,1.094-1.47,1.969-2.605,1.969
	s-2.184-0.879-2.604-1.969H27.602z M22.215,47.329l0.816-18.57h3.785l0.781,18.57H22.215z M41.492,48.422
	c-0.422,1.094-1.469,1.969-2.604,1.969c-1.137,0-2.185-0.879-2.605-1.969H41.492z M36.055,47.329l-2.466-18.57h3.938l4.104,18.57
	H36.055z M49.934,47.329c0.004,0,0.008-0.138-0.017-0.211c-0.035-0.113-0.102-0.188-0.184-0.263L44.02,28.129
	c-0.082-0.277-0.34-0.461-0.629-0.461H6.602c-0.289,0-0.547,0.191-0.629,0.469L0.34,46.812c-0.133,0.09-0.233,0.195-0.28,0.355
	c-0.021,0.062-0.013,0.164-0.013,0.164H0l0.056,0.729c0.116,1.549,1.836,3.903,4.133,3.903c0.395,0,0.604-0.062,1.147-0.184v19.907
	C5.336,72.415,5.977,73,6.703,73c0.727,0,1.363-0.586,1.363-1.312v-6.332h33.858v6.332c0,0.727,0.642,1.312,1.367,1.312
	c0.727,0,1.363-0.586,1.363-1.312V51.782c0.547,0.125,0.754,0.194,1.148,0.194c2.293,0,4.004-2.367,4.116-3.914l0.066-0.729h-0.055
	v-0.004H49.934z"/>
<path fill="#666666" d="M13.383,57.52c-0.354,0.031-0.69,0.125-0.995,0.263l-0.109-0.23c0.004,0,0.914-0.077,1.309-1.03
	c0.367-0.906-0.211-1.652-0.211-1.652s-0.854-0.07-1.305,1.035c-0.148,0.367-0.168,0.672-0.133,0.922l-0.273-0.582l-0.711,0.336
	c0,0,0.812,0.996,1.117,1.371c-1.012,0.598-1.648,1.742-1.535,2.992c0.156,1.729,1.688,3.008,3.418,2.852
	c1.73-0.156,3.008-1.688,2.853-3.418C16.645,58.641,15.109,57.364,13.383,57.52z"/>
<path fill="#666666" d="M20.938,57.52c-0.355,0.031-0.691,0.125-1,0.263l-0.109-0.23c0.004,0,0.918-0.077,1.31-1.03
	c0.366-0.906-0.216-1.652-0.216-1.652s-0.854-0.07-1.305,1.035c-0.147,0.367-0.168,0.672-0.133,0.922l-0.273-0.582L18.5,56.579
	c0,0,0.812,0.996,1.121,1.371c-1.012,0.598-1.647,1.741-1.535,2.991c0.156,1.73,1.688,3.009,3.418,2.853
	c1.73-0.155,3.009-1.688,2.853-3.418C24.199,58.641,22.668,57.364,20.938,57.52z"/>
<path fill="#666666" d="M28.496,57.52c-0.354,0.031-0.69,0.125-1,0.263l-0.108-0.23c0.004,0,0.918-0.077,1.309-1.03
	c0.367-0.906-0.211-1.652-0.211-1.652s-0.855-0.07-1.31,1.035c-0.147,0.367-0.168,0.672-0.133,0.922l-0.272-0.582l-0.711,0.336
	c0,0,0.812,0.996,1.116,1.371c-1.012,0.598-1.647,1.742-1.534,2.992c0.155,1.729,1.688,3.008,3.418,2.852
	c1.729-0.156,3.008-1.688,2.852-3.418C31.758,58.641,30.227,57.364,28.496,57.52z"/>
<path fill="#666666" d="M36.055,57.52c-0.355,0.031-0.688,0.125-0.996,0.263l-0.109-0.23c0.004,0,0.918-0.077,1.309-1.03
	c0.367-0.906-0.211-1.652-0.211-1.652s-0.854-0.07-1.309,1.035c-0.148,0.367-0.168,0.672-0.133,0.922l-0.273-0.582l-0.711,0.336
	c0,0,0.812,0.996,1.117,1.371c-1.012,0.598-1.645,1.742-1.535,2.992c0.156,1.729,1.688,3.008,3.418,2.852
	c1.73-0.156,3.008-1.688,2.853-3.418C39.316,58.641,37.785,57.364,36.055,57.52z"/>
</svg>
