<?xml version="1.0" encoding="utf-8"?>
<!-- Generator: Adobe Illustrator 16.0.4, SVG Export Plug-In . SVG Version: 6.00 Build 0)  -->
<!DOCTYPE svg PUBLIC "-//W3C//DTD SVG 1.0//EN" "http://www.w3.org/TR/2001/REC-SVG-20010904/DTD/svg10.dtd">
<svg version="1.0" id="Layer_1" xmlns="http://www.w3.org/2000/svg" xmlns:xlink="http://www.w3.org/1999/xlink" x="0px" y="0px"
	 width="83.663px" height="41.257px" viewBox="0 0 83.663 41.257" enable-background="new 0 0 83.663 41.257" xml:space="preserve">
<g>
	<path fill="#FFFFFF" d="M5.601,8.35c0,0.107,0,0.184,0,0.23s0.004,0.119,0.012,0.219C5.62,8.898,5.63,8.97,5.643,9.013
		c0.013,0.043,0.033,0.105,0.061,0.184c0.028,0.08,0.063,0.137,0.104,0.173C5.849,9.406,5.9,9.449,5.961,9.5
		s0.133,0.088,0.215,0.111c0.082,0.023,0.179,0.043,0.292,0.062S6.706,9.7,6.844,9.7v2.755H1.848V9.7
		c0.138,0,0.263-0.01,0.376-0.031C2.336,9.649,2.434,9.626,2.516,9.6C2.598,9.575,2.67,9.531,2.734,9.47s0.116-0.116,0.157-0.165
		c0.041-0.048,0.076-0.124,0.104-0.226c0.028-0.103,0.05-0.187,0.065-0.253c0.015-0.066,0.027-0.17,0.035-0.311
		c0.007-0.141,0.011-0.253,0.011-0.337s0-0.213,0-0.388v-5.08H1.825L1.817,0h6.408l2.379,5.886L12.722,0h6.017v2.709h-1.128V9.7
		h1.182v2.755H12.63V9.7h0.944V4.958l-2.625,7.498H8.793L5.601,4.789V8.35z"/>
	<path fill="#FFFFFF" d="M31.01,9.025c0.041,0.159,0.076,0.279,0.104,0.36c0.028,0.082,0.07,0.155,0.126,0.219
		C31.296,9.668,31.363,9.7,31.439,9.7h0.66v2.755h-6.339L25.753,9.7h0.921c0-0.839-0.171-1.259-0.514-1.259h-2.11
		c-0.066,0-0.118,0.027-0.153,0.081s-0.056,0.109-0.062,0.165c-0.005,0.057-0.01,0.138-0.015,0.246c0,0.143,0.028,0.307,0.084,0.491
		C23.96,9.608,24.042,9.7,24.149,9.7h0.645v2.755h-5.203V9.7c0.225,0,0.424-0.021,0.599-0.062c0.399-0.097,0.683-0.34,0.852-0.729
		c0.056-0.123,0.154-0.453,0.292-0.99l1.32-5.21h-1.627V0h7.628L31.01,9.025z M26.014,6.523l-0.898-3.898l-0.859,3.898H26.014z"/>
	<path fill="#FFFFFF" d="M32.92,9.7h1.251V2.701h-1.297V0h6.37c2.107,0,3.686,0.525,4.735,1.577c1.049,1.051,1.573,2.59,1.573,4.616
		c0,0.834-0.141,1.625-0.422,2.372c-0.282,0.747-0.686,1.411-1.213,1.991s-1.208,1.042-2.041,1.385
		c-0.834,0.343-1.768,0.514-2.801,0.514H32.92V9.7z M38.638,9.7c0.374,0,0.702-0.073,0.986-0.219
		c0.284-0.146,0.51-0.333,0.679-0.561C40.472,8.693,40.61,8.42,40.717,8.1s0.181-0.633,0.219-0.94
		c0.039-0.307,0.058-0.631,0.058-0.975c0-0.353-0.015-0.676-0.046-0.971C40.917,4.92,40.854,4.612,40.76,4.29
		c-0.095-0.322-0.221-0.595-0.38-0.817c-0.159-0.223-0.379-0.407-0.66-0.553s-0.611-0.219-0.99-0.219h-0.361V9.7H38.638z"/>
	<path fill="#FFFFFF" d="M54.217,5.026l-0.583-2.317h-1.634v2.164h1.573v2.701h-1.573V9.7h1.68l0.1-0.468l0.483-2.049h2.095v5.272
		h-9.815V9.7h1.212V2.709h-1.212V0h9.731v5.019L54.217,5.026z"/>
	<path fill="#FFFFFF" d="M68.36,2.709h-1.128V9.7h1.082v2.755h-6.615V9.7h1.128V2.709H61.73V0h6.63V2.709z"/>
	<path fill="#FFFFFF" d="M83.079,2.709c-0.435,0-0.746,0.1-0.933,0.299c-0.187,0.199-0.28,0.488-0.28,0.867v8.58h-4.65l-3.63-6.968
		v3.078c0,0.419,0.094,0.713,0.28,0.882S74.364,9.7,74.798,9.7v2.755H69.91V9.7c0.235,0,0.434-0.028,0.595-0.084
		s0.284-0.123,0.368-0.2c0.085-0.077,0.148-0.188,0.192-0.333c0.043-0.146,0.07-0.275,0.08-0.388
		c0.011-0.113,0.016-0.266,0.016-0.46V2.693h-1.205V0h5.641l3.807,7.49V3.891c0-0.123-0.001-0.215-0.004-0.276
		c-0.003-0.061-0.013-0.149-0.03-0.265c-0.019-0.115-0.053-0.205-0.104-0.269c-0.051-0.064-0.118-0.13-0.203-0.2
		c-0.084-0.069-0.2-0.116-0.349-0.142c-0.148-0.026-0.322-0.036-0.522-0.031V0l4.889,0.008V2.709z"/>
</g>
<g>
	<path fill="#FFFFFF" d="M19.526,30.25c-0.315,1.109-0.568,2.143-0.757,3.103c-0.189,0.96-0.284,1.792-0.284,2.495
		c0,0.613,0.128,1.093,0.385,1.44c0.257,0.347,0.683,0.521,1.278,0.521c0.225,0,0.496-0.065,0.812-0.196
		c0.315-0.13,0.676-0.336,1.082-0.615s0.859-0.64,1.359-1.082c0.5-0.441,1.057-0.969,1.67-1.582
		c0.027,0.054,0.081,0.181,0.162,0.379c0.072,0.171,0.173,0.431,0.304,0.777c0.13,0.347,0.313,0.823,0.548,1.427
		c-0.676,0.712-1.354,1.338-2.035,1.879s-1.343,0.994-1.988,1.359c-0.645,0.365-1.262,0.64-1.853,0.825
		c-0.591,0.185-1.134,0.277-1.629,0.277c-0.568,0-1.096-0.106-1.582-0.317c-0.487-0.212-0.909-0.521-1.265-0.926
		c-0.356-0.406-0.638-0.904-0.845-1.495c-0.208-0.59-0.311-1.264-0.311-2.021c0-0.261,0.027-0.59,0.082-0.987
		c0.054-0.397,0.133-0.848,0.236-1.353s0.23-1.057,0.379-1.656c0.148-0.6,0.313-1.233,0.493-1.9
		c-1.208,0.126-2.366,0.243-3.475,0.352c-1.109,0.108-2.213,0.212-3.313,0.311c-0.252,0.757-0.502,1.499-0.75,2.224
		c-0.248,0.726-0.487,1.407-0.717,2.042c-0.229,0.636-0.441,1.217-0.635,1.745S6.518,38.25,6.382,38.62
		c-0.442,0.956-0.872,1.632-1.292,2.028c-0.419,0.396-0.795,0.595-1.129,0.595c-0.216,0-0.428-0.036-0.636-0.108
		s-0.392-0.176-0.554-0.311c-0.163-0.135-0.291-0.297-0.386-0.487c-0.094-0.189-0.142-0.401-0.142-0.635
		c0-0.144,0.018-0.284,0.054-0.419c0.379-1.379,0.792-2.711,1.237-3.996c0.446-1.285,0.899-2.536,1.359-3.752
		c-0.496,0-0.972-0.039-1.427-0.115c-0.456-0.076-0.877-0.209-1.264-0.399c-0.388-0.189-0.733-0.451-1.035-0.784
		c-0.302-0.333-0.552-0.757-0.75-1.271c-0.036-0.162-0.065-0.307-0.088-0.433c-0.022-0.126-0.034-0.252-0.034-0.379
		c0-0.396,0.14-0.595,0.419-0.595c0.171,0,0.361,0.092,0.568,0.277c0.208,0.185,0.474,0.48,0.798,0.886
		c0.424-0.018,0.848-0.031,1.271-0.041c0.423-0.009,0.879-0.013,1.366-0.013h1.298c0.325-0.838,0.633-1.647,0.926-2.427
		s0.566-1.544,0.818-2.292c0.153-0.478,0.275-0.955,0.365-1.433c0.09-0.478,0.135-0.933,0.135-1.366
		c0-0.352-0.032-0.676-0.094-0.974C8.104,19.878,8,19.626,7.856,19.418c-0.145-0.207-0.33-0.37-0.555-0.487
		c-0.226-0.117-0.505-0.176-0.838-0.176c-0.271,0-0.583,0.045-0.94,0.135c-0.356,0.09-0.75,0.237-1.183,0.439
		s-0.904,0.469-1.413,0.798s-1.062,0.737-1.656,1.224c-0.208,0.171-0.399,0.293-0.575,0.365s-0.336,0.108-0.48,0.108
		c-0.072,0-0.126-0.12-0.163-0.358S0,20.933,0,20.582c0-0.469,0.11-0.915,0.331-1.339c0.221-0.424,0.516-0.813,0.886-1.169
		c0.37-0.356,0.795-0.681,1.278-0.974c0.482-0.293,0.978-0.541,1.487-0.744c0.509-0.203,1.017-0.358,1.521-0.466
		c0.505-0.108,0.969-0.162,1.393-0.162c0.631,0,1.235,0.085,1.812,0.257c0.577,0.171,1.084,0.446,1.521,0.825
		c0.437,0.379,0.784,0.87,1.041,1.474s0.386,1.339,0.386,2.204c0,0.406-0.047,0.901-0.142,1.487
		c-0.095,0.586-0.223,1.229-0.386,1.927c-0.162,0.699-0.354,1.442-0.575,2.231c-0.221,0.789-0.458,1.594-0.709,2.414
		c0.928-0.063,1.974-0.126,3.137-0.189c1.163-0.063,2.331-0.126,3.502-0.189c0.46-1.505,0.967-3.063,1.521-4.672
		c0.554-1.609,1.143-3.189,1.765-4.74c0.207-0.514,0.48-0.924,0.818-1.23c0.338-0.306,0.737-0.46,1.197-0.46
		c0.189,0,0.372,0.027,0.548,0.082c0.176,0.054,0.331,0.137,0.466,0.25s0.241,0.257,0.318,0.433s0.115,0.381,0.115,0.615
		c0,0.208-0.013,0.449-0.041,0.724c-0.027,0.275-0.099,0.57-0.216,0.886c-0.208,0.559-0.428,1.156-0.663,1.792
		c-0.234,0.636-0.471,1.29-0.71,1.961s-0.478,1.359-0.717,2.062s-0.466,1.402-0.683,2.096c0.568-0.036,1.063-0.07,1.487-0.102
		s0.744-0.056,0.96-0.075c0.099-0.009,0.192-0.016,0.277-0.02s0.165-0.007,0.237-0.007c0.271,0,0.489,0.027,0.656,0.081
		c0.167,0.054,0.297,0.131,0.392,0.23s0.16,0.216,0.196,0.352c0.036,0.135,0.054,0.289,0.054,0.46c0,0.189-0.041,0.347-0.122,0.473
		c-0.081,0.126-0.183,0.228-0.304,0.304s-0.25,0.131-0.385,0.162c-0.135,0.032-0.262,0.052-0.379,0.061
		c-0.252,0.027-0.433,0.047-0.541,0.061c-0.108,0.013-0.185,0.022-0.23,0.027c-0.045,0.005-0.074,0.009-0.088,0.014
		S22.366,29.995,22.312,30c-0.054,0.005-0.148,0.012-0.284,0.021c-0.135,0.009-0.343,0.027-0.622,0.054
		c-0.325,0.036-0.643,0.067-0.954,0.095C20.141,30.196,19.833,30.223,19.526,30.25z"/>
	<path fill="#FFFFFF" d="M39.633,37.079c-0.208,0.289-0.484,0.626-0.832,1.014s-0.737,0.757-1.169,1.109s-0.897,0.649-1.393,0.893
		c-0.496,0.243-0.992,0.365-1.487,0.365c-0.595,0-1.091-0.191-1.487-0.575c-0.397-0.383-0.739-0.939-1.028-1.67
		c-0.216,0.252-0.482,0.51-0.798,0.771c-0.315,0.262-0.661,0.498-1.035,0.71s-0.764,0.385-1.169,0.521s-0.812,0.203-1.217,0.203
		c-0.433,0-0.854-0.088-1.265-0.264s-0.773-0.428-1.088-0.757c-0.316-0.329-0.568-0.73-0.757-1.204
		c-0.189-0.474-0.284-1.007-0.284-1.603c0-0.676,0.095-1.37,0.284-2.083c0.189-0.712,0.451-1.408,0.784-2.089
		s0.728-1.323,1.183-1.927c0.455-0.604,0.954-1.131,1.495-1.582c0.541-0.451,1.111-0.809,1.71-1.075
		c0.599-0.266,1.21-0.399,1.832-0.399c0.208,0,0.37,0.041,0.487,0.122s0.214,0.173,0.291,0.277c0.076,0.104,0.151,0.206,0.223,0.305
		c0.072,0.099,0.162,0.171,0.27,0.216c0.108,0.045,0.219,0.074,0.332,0.088c0.113,0.013,0.228,0.02,0.345,0.02
		c0.099,0,0.201-0.002,0.304-0.007c0.104-0.004,0.205-0.007,0.304-0.007c0.135,0,0.262,0.014,0.379,0.041
		c0.117,0.027,0.221,0.085,0.311,0.176c0.09,0.09,0.16,0.216,0.209,0.378c0.049,0.162,0.074,0.383,0.074,0.663
		c0,0.433-0.045,0.913-0.135,1.44c-0.09,0.527-0.189,1.068-0.297,1.623c-0.108,0.554-0.208,1.108-0.297,1.663
		c-0.09,0.554-0.135,1.08-0.135,1.575c0,0.424,0.038,0.755,0.115,0.994s0.241,0.358,0.494,0.358c0.189,0,0.388-0.047,0.595-0.142
		c0.207-0.095,0.417-0.219,0.628-0.372c0.212-0.153,0.424-0.327,0.636-0.521s0.413-0.394,0.602-0.602
		c0.442-0.487,0.888-1.037,1.339-1.65L39.633,37.079z M28.085,36.01c0,0.226,0.016,0.444,0.047,0.656
		c0.031,0.212,0.088,0.401,0.169,0.568c0.081,0.167,0.189,0.302,0.325,0.405c0.135,0.104,0.306,0.156,0.514,0.156
		c0.333,0,0.636-0.144,0.906-0.433c0.27-0.289,0.504-0.636,0.703-1.042c0.198-0.406,0.358-0.825,0.48-1.257
		c0.122-0.433,0.2-0.793,0.236-1.082l0.825-3.976c-0.37,0-0.73,0.093-1.082,0.277c-0.352,0.185-0.683,0.435-0.994,0.75
		s-0.598,0.676-0.859,1.082c-0.262,0.406-0.487,0.832-0.676,1.278c-0.189,0.446-0.336,0.895-0.439,1.345S28.085,35.614,28.085,36.01
		z"/>
	<path fill="#FFFFFF" d="M43.92,33.711c-0.262,0.983-0.57,1.882-0.926,2.698c-0.356,0.816-0.737,1.519-1.143,2.109
		c-0.405,0.591-0.825,1.05-1.257,1.379s-0.856,0.494-1.271,0.494c-0.703,0-1.22-0.518-1.548-1.555
		c-0.329-1.037-0.494-2.569-0.494-4.598c0-0.288,0-0.543,0-0.764c0-0.221,0.004-0.442,0.014-0.663
		c0.009-0.221,0.022-0.46,0.041-0.717s0.041-0.565,0.067-0.926c0.009-0.09,0.029-0.246,0.061-0.467
		c0.031-0.221,0.081-0.471,0.148-0.75c0.068-0.279,0.158-0.57,0.271-0.872c0.113-0.302,0.257-0.577,0.433-0.825
		c0.176-0.248,0.383-0.453,0.622-0.615s0.525-0.244,0.859-0.244l0.325,0.027c0.396,0,0.701,0.079,0.913,0.236
		c0.212,0.158,0.318,0.368,0.318,0.629l-0.947,7.315l0.176-0.013c0.396-0.919,0.742-1.76,1.035-2.522s0.563-1.445,0.811-2.049
		c0.248-0.604,0.487-1.131,0.717-1.582c0.23-0.451,0.48-0.825,0.75-1.122c0.271-0.298,0.575-0.521,0.913-0.669
		c0.338-0.149,0.742-0.223,1.21-0.223c0.396,0,0.701,0.079,0.913,0.236c0.212,0.158,0.318,0.368,0.318,0.629l-1.109,7.315
		l0.189-0.013l3.232-7.221c0.108-0.252,0.342-0.475,0.703-0.669c0.36-0.193,0.789-0.291,1.285-0.291
		c0.514,0,0.928,0.106,1.244,0.318c0.315,0.212,0.473,0.485,0.473,0.818c0,0.252-0.043,0.523-0.128,0.812
		c-0.086,0.289-0.178,0.557-0.277,0.805s-0.194,0.459-0.284,0.635c-0.09,0.176-0.14,0.273-0.148,0.291
		c-0.198,0.36-0.381,0.694-0.548,1c-0.167,0.307-0.313,0.577-0.439,0.812c-0.153,0.271-0.289,0.523-0.406,0.757
		c0.126,0.352,0.289,0.667,0.487,0.946c0.171,0.234,0.383,0.451,0.636,0.649c0.252,0.199,0.554,0.298,0.906,0.298
		c0.298,0,0.64-0.079,1.028-0.237s0.753-0.336,1.095-0.534c0.406-0.225,0.82-0.482,1.244-0.771v3.178
		c-0.595,0.378-1.21,0.681-1.846,0.906c-0.636,0.226-1.247,0.338-1.832,0.338c-0.46,0-0.895-0.054-1.305-0.162
		c-0.41-0.108-0.771-0.279-1.082-0.514s-0.559-0.539-0.744-0.913c-0.185-0.374-0.282-0.827-0.291-1.359
		c-0.307,0.721-0.626,1.382-0.96,1.981c-0.333,0.6-0.676,1.116-1.028,1.548s-0.708,0.771-1.068,1.014
		c-0.36,0.244-0.721,0.365-1.082,0.365c-0.126,0-0.237-0.097-0.332-0.291s-0.173-0.455-0.236-0.785
		c-0.063-0.329-0.115-0.712-0.156-1.149c-0.041-0.437-0.072-0.899-0.095-1.386s-0.038-0.987-0.047-1.501
		c-0.009-0.514-0.013-1.014-0.013-1.501L43.92,33.711z"/>
	<path fill="#FFFFFF" d="M69.775,37.079c-0.208,0.289-0.484,0.626-0.831,1.014c-0.348,0.388-0.737,0.757-1.17,1.109
		s-0.897,0.649-1.393,0.893c-0.496,0.243-0.992,0.365-1.488,0.365c-0.595,0-1.09-0.191-1.486-0.575
		c-0.397-0.383-0.74-0.939-1.028-1.67c-0.216,0.252-0.482,0.51-0.798,0.771c-0.315,0.262-0.66,0.498-1.035,0.71
		c-0.373,0.212-0.764,0.385-1.169,0.521s-0.812,0.203-1.217,0.203c-0.433,0-0.854-0.088-1.265-0.264s-0.773-0.428-1.088-0.757
		c-0.316-0.329-0.568-0.73-0.757-1.204c-0.189-0.474-0.284-1.007-0.284-1.603c0-0.676,0.095-1.37,0.284-2.083
		c0.189-0.712,0.451-1.408,0.784-2.089s0.728-1.323,1.183-1.927c0.455-0.604,0.954-1.131,1.495-1.582
		c0.54-0.451,1.11-0.809,1.71-1.075c0.6-0.266,1.211-0.399,1.832-0.399c0.208,0,0.37,0.041,0.487,0.122s0.214,0.173,0.291,0.277
		c0.076,0.104,0.151,0.206,0.224,0.305c0.071,0.099,0.162,0.171,0.27,0.216c0.108,0.045,0.219,0.074,0.332,0.088
		c0.112,0.013,0.227,0.02,0.344,0.02c0.1,0,0.201-0.002,0.305-0.007c0.104-0.004,0.205-0.007,0.305-0.007
		c0.135,0,0.262,0.014,0.379,0.041c0.117,0.027,0.221,0.085,0.311,0.176c0.09,0.09,0.16,0.216,0.209,0.378
		c0.05,0.162,0.074,0.383,0.074,0.663c0,0.433-0.045,0.913-0.135,1.44s-0.189,1.068-0.297,1.623
		c-0.108,0.554-0.208,1.108-0.298,1.663c-0.091,0.554-0.136,1.08-0.136,1.575c0,0.424,0.039,0.755,0.115,0.994
		s0.241,0.358,0.494,0.358c0.189,0,0.387-0.047,0.595-0.142c0.207-0.095,0.417-0.219,0.628-0.372
		c0.213-0.153,0.424-0.327,0.637-0.521c0.211-0.194,0.412-0.394,0.602-0.602c0.441-0.487,0.888-1.037,1.338-1.65L69.775,37.079z
		 M58.227,36.01c0,0.226,0.016,0.444,0.047,0.656c0.031,0.212,0.088,0.401,0.169,0.568c0.08,0.167,0.189,0.302,0.324,0.405
		c0.135,0.104,0.307,0.156,0.514,0.156c0.334,0,0.636-0.144,0.906-0.433c0.27-0.289,0.504-0.636,0.703-1.042
		c0.198-0.406,0.358-0.825,0.48-1.257c0.121-0.433,0.199-0.793,0.236-1.082l0.824-3.976c-0.369,0-0.73,0.093-1.082,0.277
		c-0.352,0.185-0.682,0.435-0.993,0.75s-0.598,0.676-0.858,1.082c-0.262,0.406-0.487,0.832-0.677,1.278
		c-0.188,0.446-0.336,0.895-0.439,1.345S58.227,35.614,58.227,36.01z"/>
	<path fill="#FFFFFF" d="M76.401,37.511c-0.324,0.298-0.729,0.615-1.211,0.954c-0.482,0.338-1.002,0.649-1.562,0.933
		c-0.56,0.284-1.129,0.521-1.71,0.709c-0.582,0.189-1.135,0.284-1.656,0.284c-0.47,0-0.863-0.065-1.184-0.196
		c-0.32-0.13-0.58-0.313-0.777-0.547c-0.199-0.234-0.341-0.521-0.426-0.859c-0.086-0.338-0.129-0.71-0.129-1.115
		c0-0.568,0.064-1.229,0.195-1.981c0.131-0.752,0.291-1.532,0.48-2.339c0.189-0.807,0.391-1.611,0.602-2.414
		c0.212-0.802,0.399-1.542,0.562-2.218c0.063-0.234,0.189-0.435,0.378-0.602c0.189-0.167,0.404-0.302,0.643-0.406
		c0.239-0.104,0.487-0.18,0.744-0.23c0.257-0.049,0.488-0.074,0.696-0.074c0.379,0,0.636,0.07,0.771,0.209
		c0.136,0.14,0.203,0.327,0.203,0.562c0,0.198-0.045,0.484-0.135,0.858c-0.091,0.374-0.203,0.798-0.338,1.271
		c-0.136,0.474-0.28,0.983-0.434,1.528c-0.152,0.545-0.297,1.091-0.433,1.636c-0.135,0.545-0.248,1.077-0.338,1.596
		c-0.091,0.518-0.136,0.985-0.136,1.399c0,0.406,0.045,0.728,0.136,0.967c0.09,0.239,0.274,0.358,0.555,0.358
		c0.324,0,0.685-0.113,1.081-0.338c0.396-0.225,0.799-0.498,1.204-0.818c0.405-0.32,0.802-0.651,1.19-0.994
		c0.387-0.343,0.729-0.636,1.027-0.879V37.511z M70.356,23.61c0-0.207,0.045-0.441,0.135-0.703c0.091-0.261,0.237-0.507,0.439-0.737
		c0.203-0.23,0.475-0.424,0.812-0.582s0.759-0.237,1.264-0.237c0.315,0,0.613,0.036,0.893,0.108s0.523,0.183,0.73,0.331
		c0.207,0.149,0.371,0.345,0.493,0.588c0.122,0.244,0.183,0.532,0.183,0.865c0,0.307-0.049,0.604-0.148,0.893
		c-0.1,0.289-0.257,0.545-0.474,0.771c-0.216,0.225-0.489,0.408-0.817,0.547c-0.33,0.14-0.725,0.21-1.184,0.21
		c-0.793,0-1.379-0.187-1.758-0.562C70.545,24.73,70.356,24.232,70.356,23.61z"/>
	<path fill="#FFFFFF" d="M83.663,37.511c-0.324,0.298-0.729,0.615-1.211,0.954c-0.482,0.338-1.002,0.649-1.562,0.933
		c-0.56,0.284-1.129,0.521-1.71,0.709c-0.582,0.189-1.135,0.284-1.656,0.284c-0.47,0-0.863-0.065-1.184-0.196
		c-0.32-0.13-0.58-0.313-0.777-0.547c-0.199-0.234-0.341-0.521-0.426-0.859c-0.086-0.338-0.129-0.71-0.129-1.115
		c0-0.568,0.064-1.229,0.195-1.981c0.131-0.752,0.291-1.532,0.48-2.339c0.189-0.807,0.391-1.611,0.602-2.414
		c0.212-0.802,0.399-1.542,0.562-2.218c0.063-0.234,0.189-0.435,0.378-0.602c0.189-0.167,0.404-0.302,0.643-0.406
		c0.239-0.104,0.487-0.18,0.744-0.23c0.257-0.049,0.488-0.074,0.696-0.074c0.379,0,0.636,0.07,0.771,0.209
		c0.136,0.14,0.203,0.327,0.203,0.562c0,0.198-0.045,0.484-0.135,0.858c-0.091,0.374-0.203,0.798-0.338,1.271
		c-0.136,0.474-0.28,0.983-0.434,1.528c-0.152,0.545-0.297,1.091-0.433,1.636c-0.135,0.545-0.248,1.077-0.338,1.596
		c-0.091,0.518-0.136,0.985-0.136,1.399c0,0.406,0.045,0.728,0.136,0.967c0.09,0.239,0.274,0.358,0.555,0.358
		c0.324,0,0.685-0.113,1.081-0.338c0.396-0.225,0.799-0.498,1.204-0.818c0.405-0.32,0.802-0.651,1.19-0.994
		c0.387-0.343,0.729-0.636,1.027-0.879V37.511z M77.618,23.61c0-0.207,0.045-0.441,0.135-0.703c0.091-0.261,0.237-0.507,0.439-0.737
		c0.203-0.23,0.475-0.424,0.812-0.582s0.759-0.237,1.264-0.237c0.315,0,0.613,0.036,0.893,0.108s0.523,0.183,0.73,0.331
		c0.207,0.149,0.371,0.345,0.493,0.588c0.122,0.244,0.183,0.532,0.183,0.865c0,0.307-0.049,0.604-0.148,0.893
		c-0.1,0.289-0.257,0.545-0.474,0.771c-0.216,0.225-0.489,0.408-0.817,0.547c-0.33,0.14-0.725,0.21-1.184,0.21
		c-0.793,0-1.379-0.187-1.758-0.562C77.807,24.73,77.618,24.232,77.618,23.61z"/>
</g>
</svg>
