<?xml version="1.0" encoding="utf-8"?>
<!-- Generator: Adobe Illustrator 16.0.4, SVG Export Plug-In . SVG Version: 6.00 Build 0)  -->
<!DOCTYPE svg PUBLIC "-//W3C//DTD SVG 1.0//EN" "http://www.w3.org/TR/2001/REC-SVG-20010904/DTD/svg10.dtd">
<svg version="1.0" id="Layer_1" xmlns="http://www.w3.org/2000/svg" xmlns:xlink="http://www.w3.org/1999/xlink" x="0px" y="0px"
	 width="65.518px" height="42.083px" viewBox="0 0 65.518 42.083" enable-background="new 0 0 65.518 42.083" xml:space="preserve">
<path fill="#666666" d="M26.494,9.227c0.012-0.074-0.086-0.199-0.168-0.246c-0.297-0.184-0.336-0.352-0.125-0.637
	C26.24,8.29,26.28,8.235,26.319,8.18c-0.211-0.034-0.398-0.078-0.59-0.094l-0.109,0.129l-0.008,0.012
	C25.333,8.168,24.893,8,24.897,7.637c0.066-0.137,0.164-0.309,0.121-0.418c-0.07-0.176-0.238-0.316-0.367-0.465
	c-0.027-0.027-0.824-0.617-0.625-1.152c-0.199-0.25-0.383-0.516-0.605-0.746c-0.078-0.082-0.266-0.152-0.352-0.109
	c-0.238,0.109-0.452,0.272-0.664,0.43c-0.371,0.277-0.551,0.72-0.848,1.059c-0.277,0.316-0.543,0.25-0.816,0.289
	c-0.402,0.051-0.812,0.023-1.219,0.039c-0.062,0-0.117,0.051-0.199,0.09C19.397,6.72,19.44,6.77,19.49,6.806
	c0.328,0.203,0.527,0.457,0.484,0.883c-0.016,0.164,0.086,0.383,0.207,0.512c0.191,0.207,0.348,0.395,0.445,0.68
	c0.078,0.234,0.363,0.39,0.535,0.602c0.062,0.074,0.059,0.199,0.086,0.297c0.051,0.168,0.086,0.352,0.168,0.504
	c0.051,0.09,0.191,0.195,0.273,0.188c0.402-0.059,0.801-0.152,1.199-0.234c0,0.004,0.266-0.07,0.395-0.086
	c0.083-0.012,0.219-0.003,0.246,0.047c0.152,0.281,0.355,0.129,0.547,0.102c0.262,0.137,0.73,0.332,0.859,0.461
	c0.262,0.25,0.375,0.289,0.629,0.098c0.34-0.254,0.57-0.262,0.914-0.027c0.039,0.027,0.121,0.039,0.152,0.016
	c0.235-0.195,0.461-0.398,0.707-0.613C26.877,9.973,26.42,9.825,26.494,9.227z"/>
<path fill="#666666" d="M12.037,2.004c0.086-0.23,0.172-0.477,0.172-0.719c0-0.16-0.145-0.324-0.227-0.484
	c-0.148-0.289-0.285-0.594-0.703-0.574c-0.074,0.004-0.148-0.09-0.227-0.133c-0.074-0.039-0.18-0.113-0.223-0.09
	C10.487,0.2,10.155,0.051,9.815,0.008C9.74,0,9.639,0.165,9.557,0.254C9.522,0.29,9.502,0.34,9.51,0.325
	C9.276,0.227,9.08,0.098,8.873,0.071c-0.172-0.02-0.348,0.02-0.535,0.145C7.944,0.473,7.6,0.833,7.088,0.915
	C6.901,0.946,6.643,1.129,6.592,1.293C6.483,1.657,6.307,1.938,6.018,2.172c-0.18,0.145-0.039,0.84-0.039,0.84
	c-0.059-0.336,0.062,0.039,0,0c0,0,0,0,0,0.004V3.012c-0.004,0,0.312,0.539,0.707,0.605c0.312,0.051,0.703,0.18,0.871,0.414
	c0.312,0.434,0.664,0.66,1.188,0.664c0.16,0.005,0.339,0.138,0.48,0.098c0.32-0.09,0.574,0.023,0.844,0.141
	c0.074,0.031,0.195,0.051,0.25,0.012c0.258-0.191,0.512-0.391,0.742-0.609c0.172-0.16,0.512-0.168,0.484-0.516
	c0.25-0.008,0.203-0.145,0.176-0.328c-0.043-0.277-0.059-0.57-0.008-0.84C11.768,2.422,11.955,2.231,12.037,2.004z"/>
<path fill="#666666" d="M0.225,4.778C0.44,4.375,0.787,4.094,1.19,3.934c0.285-0.113,0.438-0.285,0.539-0.547
	c0.138-0.344,0.457-0.449,0.75-0.234c0.125,0.09,0.176,0.188,0.016,0.324C2.24,3.7,2.127,3.985,2.244,4.325
	C2.307,4.505,2.24,4.63,2.076,4.708C2.03,4.731,1.979,4.75,1.928,4.754C1.076,4.836,0.866,5.512,0.612,6.157
	C0.026,6.071-0.167,5.399,0.155,5.016C0.201,4.958,0.201,4.86,0.221,4.782C0.342,4.844,0.244,4.836,0.225,4.778z"/>
<path fill="#666666" d="M48.518,16.926c-0.453-0.082-0.789-0.508-1.297-0.407c-0.027,0.005-0.082-0.026-0.098-0.058
	c-0.121-0.254-0.289-0.387-0.586-0.484s-0.539-0.414-0.75-0.68c-0.152-0.195-0.332-0.234-0.535-0.285
	c-0.082-0.02-0.164-0.051-0.25-0.055c-0.23-0.012-0.484-0.078-0.691-0.004c-0.461,0.16-0.898,0.398-1.348,0.594
	c-0.246,0.109-0.488,0.145-0.648-0.148c-0.074-0.137-0.133-0.281-0.215-0.41c-0.109-0.184-0.207-0.387-0.355-0.531
	c-0.227-0.219-0.484-0.406-0.746-0.59c-0.05-0.039-0.16-0.02-0.234-0.008c-0.137,0.016-0.27,0.047-0.43,0.078
	c-0.023,0.043-0.062,0.18-0.121,0.191c-0.265,0.047-0.297,0.277-0.367,0.457c-0.102,0.27-0.25,0.562-0.223,0.836
	c0.043,0.434,0.297,0.809,0.609,1.125c0.125,0.129,0.23,0.301,0.384,0.371c0.339,0.156,0.702,0.266,1.054,0.391
	c-0.238-0.133-0.469-0.297-0.722-0.395c0.253,0.102,0.483,0.262,0.722,0.395c0,0-0.012-0.008-0.012-0.012
	c0.184,0.164,0.266-0.028,0.391-0.098c0.105-0.059,0.266-0.09,0.371-0.054c0.105,0.038,0.23,0.171,0.254,0.276
	c0.094,0.461,0.141,0.93,0.223,1.391c0.039,0.227-0.012,0.441,0.043,0.684c0.078,0.359,0.387,0.438,0.535,0.465
	c0.695,0.129,1.371,0.012,2.016-0.332c0.281-0.152,0.555-0.387,0.977-0.246c0.207,0.07,0.605,0.105,0.793-0.234
	c0.02-0.039,0.109-0.055,0.168-0.051c0.551,0.008,0.852-0.426,1.191-0.734c0.168-0.152,0.176-0.492,0.238-0.754
	C48.928,17.321,48.791,16.977,48.518,16.926z"/>
<path fill="#666666" d="M38.557,11.907c-0.496-0.043-0.965,0.215-1.492,0.112c-0.402-0.073-0.57-0.058-0.754-0.409
	c-0.047-0.091-0.152-0.148-0.23-0.223c-0.066,0.09-0.18,0.172-0.188,0.266c-0.023,0.215-0.121,0.223-0.293,0.188
	c-0.227-0.039-0.461-0.043-0.688-0.074c-0.395-0.051-0.789-0.117-1.184-0.176c-0.137-0.02-0.336,0.023-0.395-0.051
	c-0.238-0.301-0.595-0.062-0.852-0.215c-0.02-0.012-0.086,0.055-0.129,0.086c0.039,0.031,0.078,0.059,0.117,0.09
	c0,0.004,0,0.008,0,0.012l0.004,0.004c0.098,0.027,0,0,0,0c-0.035,0.18-0.02,0.438-0.125,0.508
	c-0.379,0.245-0.473,0.641-0.637,1.043c0.117,0.039,0.23,0.102,0.348,0.109c0.301,0.016,0.602-0.023,0.898,0.008
	c0.766,0.078,1.508-0.297,2.277-0.125c-0.055-0.035,0.625,0.246,0.625,0.246c0.199,0.066,0.402,0.141,0.602,0.199
	c0.273,0.086,0.57,0.27,0.824,0.227c0.656-0.109,1.273-0.383,1.75-0.871c0.195-0.199,0.324-0.461,0.535-0.766
	C39.162,12.019,38.862,11.93,38.557,11.907z"/>
<path fill="#666666" d="M37.811,16.149c0.004-0.003,0.004-0.008,0.004-0.008c-0.012-0.004-0.758-0.629-0.773-0.645
	c-0.016,0-0.031,0-0.047,0c-0.5-0.062-1.004-0.152-1.504-0.164c-0.164-0.004-0.398,0.168-0.488,0.324
	c-0.141,0.239,0.027,0.496,0.34,0.612c0.324,0.127,0.543,0.345,0.535,0.696c-0.008,0.418,0.047,0.797,0.375,1.078
	c0.484-0.07,0.965-0.051,1.434-0.324c0.285-0.164,0.363-0.383,0.5-0.598c0.008-0.004,0.012-0.004,0.016-0.008
	c0-0.004-0.004-0.008-0.004-0.016C38.385,16.797,38.225,16.391,37.811,16.149z"/>
<path fill="#666666" d="M40.994,20.793c0.078,0.016,0.141,0.074,0.207,0.16C41.135,20.868,41.069,20.813,40.994,20.793z
	 M41.623,20.461c0.008-0.035-0.004-0.18,0.059-0.23c0.176-0.137,0.086-0.212-0.012-0.324c-0.277-0.324-0.434-0.293-0.801-0.094
	c-0.309,0.164-0.617,0.333-0.91,0.523c-0.109,0.07-0.195,0.191-0.258,0.31c-0.078,0.144,0.254,0.511,0.391,0.495
	c0.371-0.047,1.117-0.18,1.121-0.18c0.026-0.012,0.238-0.082,0.297-0.059c0.184,0.078,0.301,0.016,0.328-0.148
	C41.846,20.68,41.717,20.583,41.623,20.461z"/>
<path fill="#666666" d="M65.428,33.325c-0.164-0.102-0.355-0.156-0.539-0.23c-0.492-0.19-0.953-0.413-1.176-0.94
	c-0.012-0.034-0.051-0.081-0.078-0.081c-0.422-0.005-0.391-0.298-0.379-0.582c0.004-0.099,0.004-0.195-0.004-0.289
	c-0.023-0.363-0.23-0.603-0.586-0.609c-0.242,0.004-0.488,0.082-0.77,0.129c0.008,0.012-0.047-0.031-0.047-0.073
	c0.008-0.442,0.031-0.88,0.039-1.321c0.004-0.121,0.016-0.277-0.047-0.359c-0.219-0.276-0.445-0.565-0.715-0.784
	c-0.684-0.556-1.34-1.156-2.18-1.492c-0.551-0.219-1.062-0.526-1.609-0.754c-0.472-0.194-0.965-0.345-1.453-0.479
	c-0.156-0.043-0.34,0.008-0.512,0.008c-0.082,0-0.184,0.016-0.25-0.027c-0.359-0.223-0.707-0.461-1.062-0.691
	c-0.207-0.133-0.5-0.207-0.613-0.395c-0.094-0.152-0.18-0.27-0.328-0.329c-0.387-0.155-0.773-0.304-1.168-0.437
	c-0.297-0.103-0.516,0.008-0.664,0.289c-0.344,0.651-0.129,1.285,0.121,1.883c0.156,0.379,0.465,0.695,0.703,1.039
	c0.094,0.137,0.039,0.664-0.062,0.758c-0.191,0.18-0.406,0.345-0.555,0.555c-0.211,0.309-0.371,0.652-0.559,0.977
	c-0.039,0.063-0.117,0.152-0.164,0.146c-0.391-0.06-0.582,0.19-0.789,0.453c-0.297,0.375-0.746,0.655-0.703,1.224
	c0.008,0.073,0,0.151,0.027,0.219c0.102,0.246,0.289,0.479,0.301,0.729c0.012,0.242,0.066,0.294,0.27,0.272
	c0.324,0.099,0.422,0.375,0.523,0.652c0.109,0.535,0.219,1.066,0.324,1.59c0.145,0.012,0.246,0.017,0.348,0.023
	c-0.027,0.016-0.059,0.027-0.086,0.043c0.098,0.395,0.109,0.848,0.32,1.172c0.277,0.422,0.262,0.859,0.227,1.277
	c-0.059,0.738-0.242,1.465-0.348,2.199c-0.02,0.137,0.07,0.289,0.109,0.437c0.082,0.153,0.168,0.302,0.254,0.454
	c0.07,0.324,0.234,0.578,0.555,0.691c0.309,0.104,0.621,0.188,0.934,0.281l0,0c0.188,0.125,0.375,0.25,0.559,0.379
	c0.242,0.172,0.547,0.305,0.699,0.534c0.074,0.117,0.105,0.181,0.145,0.203c-0.121-0.328-0.117-0.319,0.008,0.021
	c0.008-0.008,0.012-0.012,0.016-0.021c0.039,0.004,0.09-0.017,0.195-0.069c0.324-0.181,0.367-0.664,0.805-0.711
	c0.031-0.004,0.051-0.129,0.074-0.199c0.047-0.137,0.059-0.297,0.141-0.41c0.195-0.262,0.477-0.477,0.316-0.867
	c-0.008-0.016,0.004-0.047,0.016-0.059c0.375-0.312,0.57-0.867,1.176-0.888c0.07-0.004,0.152-0.073,0.203-0.137
	c0.258-0.302,0.535-0.56,0.938-0.672c0.133-0.035,0.246-0.152,0.355-0.246c0.242-0.203,0.457-0.44,0.715-0.613
	c0.137-0.09,0.375-0.147,0.512-0.09c0.305,0.133,0.578,0.211,0.898,0.047c0.172-0.086,1.562-0.685,1.883-0.853
	c0.242-0.125,0.504-0.223,0.715-0.387c0.462-0.363,0.891-0.765,1.332-1.147c0.367-0.312,0.734-0.621,0.777-1.146
	C65.53,33.519,65.498,33.368,65.428,33.325z"/>
</svg>
